<svg width="612" height="741" fill="none" xmlns="http://www.w3.org/2000/svg">
  <g opacity=".3">
    <path d="M143.151 641.595c-13.538 9.9-29.28 15.801-45.221 19.758-3.465.867-6.969 1.594-10.473 2.307-13.977 2.811-28.882-2-42.448 1.175 4.925-5.286 9.902-10.404 14.282-16.235 3.57-4.768 5.708-10.025 9.477-14.612 9.424-11.522 18.225-23.687 28.644-34.272-25.856 26.302-62 35.335-97.412 41.879 22.126-12.725 44.253-25.491 66.392-38.216 13.247-7.606 27.104-15.87 34.856-29.518-16.817 14.011-38.599 11.033-59.663 6.824 34.112-7.467 67.003-21.226 96.669-40.467a210.458 210.458 0 0 1-57.407 6.516c16.366-6.236 32.971-12.64 47.014-23.505 11.999-9.257 21.648-21.45 32.506-32.161 19.113-18.821 42.182-33.433 57.844-55.471 11.906-16.751 19.14-37.306 33.767-51.443 11.574-11.27 26.852-17.521 38.599-28.539 9.238-8.656 16.153-20.094 26.705-26.862 46.921 39.404 99.403 76.921 125.419 133.873 20.6 45.068 58.402 78.249 95.102 109.963 9.503 8.166 19.007 16.402 29.427 23.24-14.601-4.629-26.494-7.523-40.736-13.2-9.742-3.846-19.657-8.111-27.21-15.647 31.272 41.012 70.6 77.214 112.716 105.599-39.103-2.293-76.374-9.858-112.915-24.82 19.259 22.024 40.311 42.663 63.048 60.589-22.804.238-43.815-9.383-62.756-22.765-18.914-13.423-35.081-30.65-51.088-47.723 4.433 29.07 22.312 55.288 36.156 80.891-33.661-18.807-65.636-40.788-90.63-71.089 2.735 22.414 9.623 44.843 17.747 65.776-1.368-3.482-6.863-7.397-9.477-9.9-3.624-3.468-7.34-6.74-10.991-10.138-6.477-6.027-11.574-15.242-15.768-23.212.318 14.151.664 28.274 1.009 42.425.106 5.075.252 10.151 1.115 15.115-15.849-28.791-32.798-57.4-43.775-88.47-9.093 26.623-23.082 49.346-40.245 70.894-4.3 5.369-8.986 10.557-12.941 16.178-3.318 4.754-6.013 9.956-9.57 14.668 9.331-27.421 10.565-57.806 3.504-85.995-10.526 19.324-23.467 34.999-41.041 47.402-11.016 7.775-23.082 13.815-35.041 19.87-7.565 3.817-15.131 7.593-22.684 11.396 10.234-17.087 16.472-36.859 18.052-57.009-28.71 24.596-64.495 35.391-101.487 36.622 22.817-18.388 40.444-43.585 50.929-71.691Z" fill="#025D62"/>
    <path d="M260.128 221.351c-16.698 29.714-31.006 60.91-48.898 89.841-17.893 28.931-38.957 55.275-67.335 72.544 17.003-3.049 34.895-8.782 50.371-16.822-19.644 25.743-51.539 44.466-70.586 70.712 15.304-3.859 30.156-14.948 42.182-25.631-4.566 13.452-14.747 23.827-24.994 33.196-16.445 15.018-33.076 30.175-51.42 42.522 37.603 9.844 77.21 5.747 111.959-12.305-3.889 11.354-11.507 25.966-16.339 36.915 14.043-8.446 24.383-17.577 37.019-28.204-.438 14.711-5.88 32.763-12.769 45.571 30.9-16.374 55.509-37.083 78.193-64.601 2.455 8.557 1.34 17.73.199 26.581-2.456 18.989-4.022 38.845-6.478 57.834l30.794-39.53c9.743-12.501 20.733-21.38 26.626-36.314 9.53 37.782 33.688 69.244 56.889 99.755-5.349-28.791-8.203-62.127-5.15-91.281 21.131 31.811 47.146 57.526 79.347 76.417-10.671-23.925-20.268-48.689-24.449-74.767 17.733 17.115 40.722 26.987 63.884 33.811 23.161 6.823 45.421 8.641 68.383 16.178-26.692-23.156-51.447-50.171-70.653-80.472 7.672 5.971 17.68 7.103 27.184 8.04 16.113 1.594 28.683 3.804 44.797 5.398-39.873-24.764-76.003-51.681-110.938-83.675 13.911 6.405 27.98 6.852 43.112 5.482-45.089-25.477-83.13-64.616-108.389-111.487-17.308-32.133-40.019-65.65-56.756-98.104-3.292-6.391-6.597-12.977-11.721-17.843-8.548-8.096-21.847-10.067-32.174-4.74-10.26 5.286-16.565 16.262-22.299 26.666-6.981 12.71-12.49 25.686-19.591 38.313Z" fill="#096969"/>
    <path d="M161.787 355.392c14.667-13.27 32.626-21.786 49.403-31.951 16.777-10.166 34.603-22.751 43.111-41.04-3.305 10.221-6.411 20.513-9.371 30.846 21.344-16.472 39.714-37.628 50.916-62.867 1.58 10.067 3.173 20.149 4.712 30.259 2.522 16.08 4.58 34.398 1.965 50.492 9.955-12.263 15.304-27.84 20.427-43.053 3.982-11.774 6.252-23.324 10.22-35.112 9 27.519 19.034 55.709 28.047 83.227-1.474-8.418-.783-17.031-.067-25.547 1.5-17.884.691-38.229 2.164-56.141 11.176 24.973 32.201 47.024 52.721 64.21-5.017-12.529-10.194-26.177-16.233-38.845.04.07.066.112.133.139 2.893 1.497 5.893 6.195 8.282 8.544a264.165 264.165 0 0 0 9.703 9.061c12.941 11.466 27.064 21.45 42.142 29.504 15.742 8.418 32.652 13.368 48.845 20.611-2.588-2.964-5.203-5.859-7.764-8.865a738.017 738.017 0 0 1-30.077-37.642c-19.525-26.093-37.417-53.541-53.266-82.262 19.034 14.892 40.935 25.952 64.415 29.28-32.586-21.911-67.016-46.298-90.35-78.808 14.998 11.942 31.855 19.968 50.477 22.583-27.13-15.186-49.071-39.321-66.034-66.294-16.963-26.987-29.267-56.855-40.549-86.946-4.752-12.64-9.358-25.421-11.76-38.775-3.849 18.765-10.168 33.336-15.158 51.835-3.027 11.228-6.252 22.387-10.752 33.028-14.573 34.454-40.576 59.26-66.817 84.947 1.102 1.244 3.08.727 4.619.139 6.438-2.572 13.433-5.089 19.884-7.662-6.518 14.57-14.866 28.231-26.547 38.635 9.769-2.21 15.848-6.516 23.905-12.739-5.694 11.718-13.711 21.911-21.675 32.035-18.662 23.729-40.257 46.997-58.92 70.726 4.792-.335 9.252-2.74 13.499-5.118a1909.62 1909.62 0 0 1 13.592-7.536c6.942-3.874 13.207-7.397 16.406-14.948-11.84 30.189-31.604 56.044-50.107 82.29-1.805 2.531-3.69 6.628-4.141 9.76Z" fill="#0F8A80"/>
    <path d="M399.722 243.539c.04.098.08.182.133.28a120.155 120.155 0 0 0 6.823 11.858c3.358 5.089 7.167 9.9 9.901 15.395-8.455-6.292-15.981-14.081-21.462-23.324-3.186-5.369-5.655-11.172-8.084-16.975-1.593-3.803-3.172-7.635-4.181-11.648-1.181-4.726-2.522-12.906-.73-18.038 2.535 15.144 9.676 29.253 17.6 42.452ZM263.658 226.383c7.884-15.521 15.543-31.294 23.055-47.01a866.268 866.268 0 0 0 9.995-21.8c-1.818 4.111-2.177 10.25-3.053 14.822-1.885 9.788-3.172 19.772-6.198 29.266-3.319 10.418-8.814 17.717-16.233 25.226-5.217 5.271-10.566 10.473-16.725 14.444 3.252-4.838 6.504-9.704 9.159-14.948ZM380.37 257.104c-4.327-3.174-7.3-7.984-9.928-12.808-5.243-9.621-9.531-19.814-12.809-30.357 1.062 8.599 2.137 17.199 3.199 25.798-7.407-14.486-11.827-30.664-12.822-47.094.093 1.51 5.973 6.711 7.167 7.816 1.089 1.007 1.567 2.196 3.173 2.028 1.075-.112 1.354-2.028 2.495-1.972 3.849.21 4.977 13.312 5.694 16.192a245.66 245.66 0 0 0 13.831 40.397Z" fill="#19807A"/>
    <path d="M383.025 498.801c-13.087-11.046-13.3-33.671-26.865-44.06-.796 3.216-1.593 6.418-2.376 9.634-3.783-1.398-5.681-5.691-7.844-9.243-2.164-3.551-6.079-7.005-9.782-5.411-2.018.867-3.239 2.964-4.487 4.852a40.67 40.67 0 0 1-7.446 8.404c-.478.419-1.035.839-1.659.797-.982-.042-1.566-1.133-1.965-2.07-2.508-5.928-5.017-11.843-7.512-17.772a74.494 74.494 0 0 1-15.915 10.823c-1.314.657-2.867 1.272-4.154.573-.903-.489-1.421-1.51-1.832-2.489-2.88-6.852-3.358-14.808-1.301-21.995.266-.937.611-1.902 1.328-2.517 2.641-2.265 5.667 2.041 8.083 4.572 4.5 4.699 12.53 3.188 17.109-1.44 4.566-4.614 6.53-11.34 8.19-17.786 1.672-6.433 3.344-13.186 7.579-18.15 1.446 11.284 2.906 22.582 4.353 33.867.425 3.258 2.111 7.536 5.163 6.837-.159-4.055 4.075-7.578 7.779-6.488 3.052.895 4.937 4.041 6.517 6.95 1.035 1.915 2.309 4.614 4.194 5.747 2.827 1.692 4.885-.406 7.008.405 3.053 1.147 1.075-1.202 3.518 2.391 1.38 2.056 1.38 8.152 1.831 10.599a409.835 409.835 0 0 0 10.486 42.97ZM239.331 497.457c9.609-12.822 15.98-28.301 18.303-44.452a205.58 205.58 0 0 0-21.21 25.869c-1.354-.993-.664-3.216.159-4.727 8.681-16.08 17.375-32.16 26.055-48.241 3.796 6.53-1.924 15.759 1.633 22.457 4.712-6.684 9.079-13.647 12.968-20.905 3.398 12.389-1.314 22.848-6.809 33.797-7.779 15.479-21.291 23.1-31.099 36.202ZM423.84 481.255a246.166 246.166 0 0 1-7.646-24.596c-2.283-8.949-4.46-18.723-11.282-24.568 2.097 1.804-2.163 9.704-2.323 11.675-.385 4.433.757 6.978 3.013 11.369 4.885 9.536 11.03 18.359 18.238 26.12ZM206.451 415.421a377.829 377.829 0 0 1-46.244 24.736c23.454-25.366 43.802-53.919 60.38-84.723-4.712 17.283-9.424 34.566-14.136 51.835 7.181-6.81 14.892-13.983 23.241-19.129-5.668 18.094-13.047 37.978-25.936 51.863.16-3.216.438-23.156 2.695-24.582ZM487.192 420.554c-10.273-2.168-19.405-8.166-28.099-14.333-5.787-4.111-11.535-8.376-16.286-13.759-7.128-8.068-12.544-19.339-13.048-30.441 7.353 9.047 13.433 18.262 22.126 26.022 5.788 5.16 11.681 10.152 17.402 15.396 4.008 3.677 12.928 16.066 17.905 17.115Z" fill="#127370"/>
    <path d="M219.061 663.674a57659.86 57659.86 0 0 1 6.026-44.956c-3.836 5.51-7.685 11.033-11.521 16.542a817.243 817.243 0 0 1 32.493-84.499c-4.646 12.151-6.663 25.421-5.84 38.495 3.411-1.258 6.411-3.719 8.415-6.893-14.972 23.785-16.339 55.932-29.573 81.311ZM357.487 594.261a118.133 118.133 0 0 1 10.91 29.085c-4.446-6.236-9.968-11.606-16.206-15.773-.717-.475-1.646-.937-2.336-.419-.438.335-.584.95-.651 1.524-.292 2.489.186 5.02.014 7.509-.186 2.503-1.314 5.215-3.584 6.012a103.208 103.208 0 0 1-6.676-28.511c2.468.615 4.526 2.349 6.782 3.594 2.257 1.244 5.124 1.943 7.247.475 2.124-1.468 3.624-4.95 6.053-4.181" fill="#096969"/>
  </g>
</svg>