<svg width="157" height="158" fill="none" xmlns="http://www.w3.org/2000/svg">
  <path d="M142.597 122.299c11.627-28.744-.451-66.175-30.685-89.153C81.677 10.17 43.293 9.262 19.935 29.09l-1.287-.976-7.784 10.81C-10.362 68.39.467 113.583 35.05 139.862c34.583 26.28 79.822 23.694 101.048-5.777l7.785-10.81-1.287-.976Z" fill="#C6640C"/>
  <path d="m141.123 90.998-58.822 33.716-20.428 29.296c28.483 9.254 58.198 2.33 74.226-19.921l7.785-10.81-1.287-.976c1.952-4.826 3.235-9.898 3.88-15.106l-5.354-16.2Z" fill="#A3490A"/>
  <path d="M143.883 123.275c-21.226 29.471-66.465 32.057-101.048 5.777C8.252 102.773-2.575 57.581 18.648 28.114 39.87-1.353 85.113-3.943 119.696 22.337c34.583 26.279 45.413 71.471 24.187 100.938Z" fill="url(#a)"/>
  <path d="M143.883 123.275c-21.226 29.471-66.465 32.057-101.048 5.777C8.252 102.773-2.575 57.581 18.648 28.114 39.87-1.353 85.113-3.943 119.696 22.337c34.583 26.279 45.413 71.471 24.187 100.938Z" fill="url(#b)"/>
  <path opacity=".7" d="M43.584 53.613 55.718 5.318c-7.758 1.414-15.064 4.167-21.545 8.235l-13.378 91.728a91.21 91.21 0 0 0 10.812 13.741l11.977-65.41Z" fill="#FCFFAC"/>
  <path d="m83.934 34.233 4.585-.641L93.31 8.335a84.754 84.754 0 0 0-6.197-1.792l-3.18 27.69Z" fill="#FCFFAC"/>
  <path opacity=".7" d="m123.992 76.847-7.975 66.837a59.379 59.379 0 0 0 9.002-3.911l9.786-103.082a92.98 92.98 0 0 0-7.764-8.171l-3.049 48.327Z" fill="#FCFFAC"/>
  <path d="M127.663 114.032c15.824-21.971 7.751-55.665-18.033-75.257-25.783-19.592-59.513-17.662-75.338 4.31-15.824 21.971-7.75 55.665 18.033 75.257 25.783 19.592 59.513 17.662 75.338-4.31Z" fill="#FCFFAC"/>
  <path d="M128.189 111.346c15.912-22.094 7.793-55.975-18.133-75.675-25.927-19.7-59.844-17.76-75.756 4.333-15.912 22.093-7.794 55.974 18.133 75.675 25.926 19.7 59.843 17.76 75.756-4.333Z" fill="#FBAA12"/>
  <path opacity=".3" d="M136.247 81.9c-.69 7.851-3.291 15.342-7.955 21.821-15.913 22.094-49.83 24.031-75.758 4.331-15.886-12.071-25.085-29.467-26.17-46.211-1.665 18.924 7.763 39.931 26.087 53.858 25.928 19.701 59.845 17.763 75.758-4.331 6.166-8.559 8.725-18.881 8.038-29.467Z" fill="#EA831C"/>
  <path opacity=".25" d="M30.095 16.374c-5.947 20.865 3.357 46.407 24.53 62.496 25.946 19.714 59.887 17.773 75.811-4.335 7.001-9.72 9.352-21.72 7.587-33.791-5.045-6.74-11.176-12.98-18.323-18.408C90.464.121 53.616-1.467 30.095 16.374Z" fill="#FFFFEB"/>
  <path d="M34.416 42.404c15.913-22.094 49.83-24.032 75.758-4.331 15.931 12.106 25.137 29.563 26.178 46.353-.274-17.503-9.585-36.056-26.271-48.736-25.928-19.7-59.846-17.763-75.759 4.33-6.134 8.52-8.697 18.79-8.045 29.325-.152-9.695 2.466-19.066 8.139-26.941Z" fill="#CF7310"/>
  <defs>
    <radialGradient id="a" cx="0" cy="0" r="1" gradientUnits="userSpaceOnUse" gradientTransform="matrix(62.6178 47.5805 -39.7708 52.33991 81.267 75.694)">
      <stop stop-color="#FBC01E"/>
      <stop offset=".461" stop-color="#FDC822"/>
      <stop offset="1" stop-color="#FCE13C"/>
    </radialGradient>
    <radialGradient id="b" cx="0" cy="0" r="1" gradientUnits="userSpaceOnUse" gradientTransform="matrix(62.6178 47.5805 -39.7708 52.33991 81.267 75.694)">
      <stop stop-color="#FBC01E"/>
      <stop offset=".461" stop-color="#FDC822"/>
      <stop offset="1" stop-color="#FCE13C"/>
    </radialGradient>
  </defs>
</svg>