<svg width="157" height="180" fill="none" xmlns="http://www.w3.org/2000/svg">
  <path d="M94.991 44.202v12.506H61.98V44.202c0-2.908 3.083-5.272 6.945-5.272h19.121c3.831.023 6.945 2.388 6.945 5.272Z" fill="#fff"/>
  <path d="M78.486 56.73H61.98V44.226c0-2.908 3.083-5.272 6.945-5.272h9.56V56.73Z" fill="#8AF3FF"/>
  <path d="M151.296 97.771c11.99-8.18 3.737-23.239-12.333-22.6h-.872c-9.779 0-17.564-6.195-17.097-13.641.841-12.223-18.997-18.464-29.773-9.362-3.425 2.837-8.066 4.255-12.706 4.255-4.64 0-9.312-1.418-12.706-4.255-3.55-3.003-8.066-4.326-12.55-4.326-9.063 0-17.752 5.484-17.223 13.688.499 7.66-7.816 14.019-17.969 13.64-.343-.023-.654-.023-.965-.023-15.447 0-23.108 14.61-11.368 22.624 7.537 5.154 7.537 14.114 0 19.291-3.955 2.695-5.699 6.123-5.699 9.527 0 6.88 7.225 13.476 18.032 13.074h.84c9.78 0 17.565 6.17 17.098 13.641-.84 12.222 18.997 18.463 29.773 9.361 3.425-2.837 8.066-4.302 12.706-4.302 4.64 0 9.312 1.442 12.706 4.302 10.776 9.102 30.614 2.837 29.773-9.361-.499-7.684 7.817-14.019 17.969-13.641.343.023.654.023.966.023 15.446 0 23.107-14.61 11.367-22.624-7.506-5.177-7.506-14.137.031-19.29ZM78.484 129.12c-15.79 0-28.59-9.693-28.59-21.702 0-11.986 12.8-21.703 28.59-21.703s28.589 9.717 28.589 21.703c.031 12.009-12.8 21.702-28.589 21.702Z" fill="#FFB017"/>
  <path d="M49.896 107.418c0 12.009 12.8 21.702 28.589 21.702v29.244c-4.64 0-9.312 1.442-12.706 4.302-10.776 9.102-30.614 2.837-29.773-9.361.467-7.471-7.318-13.641-17.097-13.641h-.872C7.23 140.066.005 133.47.005 126.59c0-3.404 1.744-6.832 5.7-9.527 7.536-5.177 7.536-14.137 0-19.29-11.742-8.015-4.08-22.625 11.366-22.625.312 0 .623 0 .966.023 10.121.379 18.467-5.957 17.97-13.64-.53-8.204 8.159-13.689 17.221-13.689 4.485 0 9 1.324 12.55 4.327 3.426 2.837 8.067 4.255 12.707 4.255v29.291c-15.79-.023-28.59 9.717-28.59 21.703Z" fill="#FC8035"/>
  <path d="M105.89 70.82c-1.807 6.337 3.737 12.483 12.083 13.523.249.024.498.071.779.071 13.858 1.182 18.094 14.965 6.353 20.686" stroke="#fff" stroke-width="2" stroke-miterlimit="10"/>
  <path d="M82.479 36.075c-1.677 1.361-4.483 3.081-4.483 3.081s-1.632-4.477-2.392-7.372c-.808-3.072-1.553-7.883-1.553-7.883s-.83-4.379-.728-7.349l.002-.052c.088-2.537.146-4.212.925-6.573.654-1.982 1.088-3.156 2.287-4.685 1.186-1.512 2.087-2.111 3.648-2.918 1.744-.9 2.854-1.244 4.733-1.155 1.667.078 2.632.404 4.143 1.282 1.855 1.077 2.847 2.051 4.104 4.076.982 1.582 1.48 2.621 1.877 4.57.47 2.309.292 3.77-.087 6.113-.408 2.523-1 3.856-2.029 6.086-1.416 3.066-2.66 4.442-4.676 6.921-2.072 2.547-3.338 3.884-5.771 5.858Z" stroke="#fff" stroke-width="2"/>
</svg>