<svg width="157" height="180" fill="none" xmlns="http://www.w3.org/2000/svg">
  <path d="M98.276 44.715V62.43H58.07V44.715c0-4.12 3.761-7.44 8.43-7.44h23.313c4.67-.029 8.463 3.32 8.463 7.44Z" fill="#fff"/>
  <path d="M78.173 62.43H58.07V44.715c0-4.12 3.761-7.44 8.43-7.44h11.64v20.49l.033 4.665Z" fill="#8AF3FF"/>
  <path d="M91.305 162.537c-3.6 2.805-8.041 4.236-12.516 4.436-5.285.257-10.667-1.317-14.818-4.722-96.85-78.614-62.35-122.572-29.343-122.257 32.262.286 42.962 20.061 44.161 22.551.097.172.13.258.13.258s10.44-22.265 44.875-21.95c33.007.372 66.371 44.987-32.49 121.684Z" fill="#8AF3FF"/>
  <path opacity=".5" d="M78.205 62.544v104.4c-5.285.257-10.667-1.317-14.817-4.722C-33.462 83.607 1.036 39.65 34.044 39.965c32.262.314 42.93 20.09 44.161 22.58Z" fill="#00AB91"/>
  <path d="M100.611 64.176c18.449-17.2 47.793-6.267 33.137 27.931" stroke="#fff" stroke-width="2" stroke-miterlimit="10"/>
  <path d="M82.479 36.075c-1.677 1.36-4.483 3.08-4.483 3.08s-1.632-4.477-2.392-7.371C74.796 28.71 74.05 23.9 74.05 23.9s-.83-4.378-.728-7.348l.002-.052c.088-2.538.146-4.212.925-6.574.654-1.981 1.088-3.156 2.287-4.684 1.186-1.513 2.087-2.112 3.648-2.918 1.744-.901 2.854-1.245 4.733-1.156 1.667.079 2.632.404 4.143 1.282 1.855 1.077 2.847 2.052 4.104 4.077.982 1.582 1.48 2.62 1.877 4.569.47 2.309.292 3.77-.087 6.113-.408 2.523-1 3.857-2.029 6.086-1.416 3.067-2.66 4.442-4.676 6.922-2.072 2.547-3.338 3.883-5.771 5.858Z" stroke="#fff" stroke-width="2"/>
</svg>