<svg width="157" height="158" fill="none" xmlns="http://www.w3.org/2000/svg">
  <path d="M153.691 106.004c-6.691 7.042-16.147 6.712-24.127 7.96a239.94 239.94 0 0 1-14.649 1.793c-.317.028-.941.028-1.75.014-1.005-.014-2.317-.043-3.695-.057-3.76-.043-8.1.043-8.57.96a292.447 292.447 0 0 1-4.964 9.337l-.01.014c-.58 1.076-1.192 2.137-1.804 3.198a119.19 119.19 0 0 1-1.542 2.668 127.232 127.232 0 0 1-1.88 3.155 288.948 288.948 0 0 1-5.783 9.236c-2.908 4.446-6.133 8.935-10.156 11.674-4.81 3.285-7.893 2.582-11.97-1.907-8.451-9.337-14.759-22-20.116-34.994a202.916 202.916 0 0 1-1.476-3.657c-.885-2.194-1.727-4.403-2.569-6.583a174.868 174.868 0 0 1-20.148-5.105c-5.968-1.894-12.386-2.941-16.77-8.964C.937 93.685.194 92.466.03 91.003c-.12-1.176.153-2.352.437-3.47.153-.589.317-1.191.492-1.78.59-2.05 1.29-4.072 2.067-6.037 6.624-16.837 19.36-30.39 31.233-41.017a.837.837 0 0 0 .098-.1c.087-.99.186-1.994.306-2.998 1.126-9.853 3.76-20.28 6.81-29.171.635-1.85 1.356-3.758 2.603-4.962C45.955-.34 48.524-.11 50.842.306 62.605 2.457 74.04 7.577 84.347 15.307c10.856-5.837 22.969-7.716 34.633-9.064 4.603-.53 9.238-1.047 13.83-.387.863.13 1.781.316 2.437 1.061.011.015.033.03.044.043.241.273.415.574.569.933.262.573.426 1.219.568 1.85 3.597 15.388 1.268 31.982-1.924 47.557-.109.545-.241 1.118-.35 1.663.186.187.372.373.569.56.371.373.743.76 1.126 1.161 4.668 4.92 9.981 11.66 13.501 17.368 2.175 3.543 4.996 8.232 6.526 13.022 1.695 5.293 1.826 10.728-2.186 14.93Z" fill="url(#a)"/>
  <path d="M153.691 106.005c-6.691 7.041-16.147 6.711-24.127 7.959a239.94 239.94 0 0 1-14.649 1.793c-1.815.172-13.228-.617-14.015.932a296.658 296.658 0 0 1-15.961 27.594c-2.908 4.445-6.133 8.934-10.156 11.674-4.81 3.284-7.893 2.581-11.97-1.908-10.681-11.774-17.918-28.87-24.16-45.234a174.661 174.661 0 0 1-20.148-5.105c-5.97-1.893-12.387-2.94-16.77-8.964-.777-1.061-1.52-2.28-1.684-3.743-.12-1.176.153-2.352.437-3.47.153-.589.317-1.191.492-1.779a7.597 7.597 0 0 0 2.46 2.868c1.541 1.047 3.28 1.42 4.985 1.75 8.527 1.606 17.174 2.237 25.778 1.807 5.27-.258 9.117-.803 11.468 6.095 4.854 14.299 9.467 30.892 18.737 41.003 8.33 9.079 16.912-3.069 22.444-11.172 2.897-4.245 5.63-8.906 8.1-13.61 2.592-4.905 5.893-9.165 9.173-13.266 2.121-2.653 5.958-1.865 8.724-2.022 3.695-.201 7.422-.259 11.128-.259 7.423 0 14.846.259 22.28.244 1.815 0 3.684-.043 5.368-.946 2.241-1.205 3.815-4.045 4.274-7.142 1.673 5.263 1.804 10.698-2.208 14.901ZM134.177 58.978c.186.187.372.373.568.56-2.514-1.062-4.613-3.959-5.258-7.3-.678-3.485.066-7.157.765-10.627 2.318-11.388 4.395-22.961 5.018-34.693.011.014.033.029.044.043.612.703.896 1.764 1.137 2.782 3.739 15.948 1.104 33.173-2.274 49.235Z" fill="#490828"/>
  <path d="M135.883 7.893c-6.713.115-13.403.617-20.072 1.492-8.822 1.161-19.732 1.62-27.942 5.994-.776.416-1.574.818-2.405.918-1.498.144-2.92-.745-4.286-1.563C70.52 8.309 59.008 4.336 47.333 3.06c-.613-.072-1.29-.115-1.804.344-.448.387-.689 1.061-.897 1.707-3.192 9.738-5.51 19.949-6.887 30.375-.197 1.506-.393 3.07-1.027 4.36-.613 1.248-1.597 2.109-2.537 2.955-8.34 7.486-15.993 16.292-22.75 26.159-2.601 3.786-5.105 7.773-8.297 10.656-.022.028-.055.043-.076.072 6.646-16.88 19.426-30.477 31.331-41.104.896-10.699 3.76-22.359 7.117-32.168.634-1.85 1.355-3.758 2.602-4.962 1.88-1.807 4.449-1.578 6.767-1.162 11.763 2.151 23.198 7.271 33.507 15.001 10.855-5.837 22.968-7.716 34.632-9.064 4.603-.53 9.238-1.047 13.83-.387.863.13 1.781.316 2.437 1.061.011.015.033.03.044.043.23.287.416.603.558.947Z" fill="url(#b)"/>
  <path d="M111.876 52.553c-1.214 10.426-5.324 29.673-15.786 26.876-11.238-3.012-21.372-12.85-30.774-20.896-4.646-3.972-9.314-7.916-14.266-11.215-5.313-3.528-11.064-5.149-16.41-8.332a1.721 1.721 0 0 1-.36-.302.846.846 0 0 0 .098-.1c.088-.99.186-1.994.306-2.997.219-.201.46-.33.722-.359 8.352-1.162 17.699 6.138 24.575 11.545 8.046 6.34 15.611 13.74 23.898 19.562 4.405 3.098 12.473 9.638 17.36 5.25 1.574-1.406 2.842-6.139 3.607-8.434a63.624 63.624 0 0 0 2.46-10.182c2.208-14.04-.306-27.235-6.1-39.167-1.53-3.141 2.132-5.766 3.728-2.869 6.45 11.732 8.593 27.508 6.942 41.62Z" fill="#490828"/>
  <path d="M38.444 22.493c3.018 2.882 7.26 2.897 10.878 3.6 4.613.903 9.194 1.735 13.763 3.04 8.812 2.51 17.48 5.407 25.899 9.68.787.402 1.738-.272 2.153-1.147 3.313-6.984 4.45-14.915 2.875-22.932-.524-2.64-3.378-1.477-3.06 1.104.863 7.042-.077 13.352-3.105 19.304.863-.301 1.738-.602 2.602-.89-8.67-5.019-17.547-9.565-26.839-12.204-6.854-1.936-18.716-6.669-25.166-1.735-.666.516-.568 1.635 0 2.18ZM135.872 60.699c-.077.903-.405 1.764-1.061 2.337-7.302 6.469-12.441 12.65-15.95 23.593-1.869 5.794-3.072 11.903-4.023 18.056-.568 3.657-.688 7.601-1.672 11.072-1.006-.015-2.318-.043-3.695-.058-.503-5.249.874-11.258 1.639-16.163.995-6.41 2.395-12.72 4.504-18.673 3.368-9.537 9.435-20.221 17.361-23.606.601-.258 1.137-.215 1.574.043-.109.545-.241 1.119-.35 1.664.186.186.372.372.568.559.35.401.722.789 1.105 1.176ZM95.926 126.012a138.149 138.149 0 0 1-1.815 3.212c-.503.904-1.017 1.778-1.541 2.668a1.086 1.086 0 0 1 .022-.617 15.35 15.35 0 0 0 .36-1.793c1.312-8.82-4.1-20.652-7.444-27.522A67.876 67.876 0 0 0 67.656 79.3c-7.292-6.023-15.36-10.21-23.658-13.194-8.264-2.94-16.846-3.915-25.11-6.769-1.88-.645-1.225-3.815.415-4.087 10.014-1.635 20.814 1.921 30.314 5.908 9.162 3.844 18.006 9.294 25.68 16.98 9.96 9.968 22.98 29.76 20.629 47.874Z" fill="#490828"/>
  <path d="M94.11 129.224c-.502.904-1.016 1.778-1.54 2.668a127.232 127.232 0 0 1-1.88 3.155c-.733-.258-1.477-.746-2.21-1.434-4.82-4.446-8.231-9.093-13.992-11.746-5.805-2.682-11.993-3.528-18.115-3.528-4.558.014-9.15.918-13.687.717a203.655 203.655 0 0 1-1.476-3.657c5.729-2.037 12.277-1.965 18.082-1.736 5.466.23 11.009 1.205 16.19 3.543 4.833 2.194 9.293 5.435 13.097 9.924 1.4 1.664 2.121 2.28 4.089 2.424a.467.467 0 0 0 .295-.072c.35-.129.733-.502 1.115-.287 0 .015.022.015.033.029Z" fill="#490828"/>
  <path d="M34.224 35.816C39.56 39 45.332 40.621 50.635 44.15c4.952 3.284 9.62 7.243 14.266 11.215 9.402 8.046 19.536 17.884 30.774 20.896 10.462 2.797 14.583-16.436 15.797-26.876 1.64-14.112-.492-29.888-6.942-41.606-1.596-2.897-5.258-.272-3.728 2.869 5.794 11.918 8.308 25.127 6.1 39.167a62.3 62.3 0 0 1-2.46 10.168c-.765 2.295-2.022 7.028-3.596 8.433-4.898 4.389-12.955-2.151-17.36-5.249-8.287-5.823-15.852-13.223-23.898-19.562-6.865-5.407-16.212-12.707-24.565-11.56-1.344.201-2.339 2.855-.797 3.773Z" fill="url(#c)"/>
  <path d="M38.04 19.31c3.017 2.882 7.259 2.896 10.877 3.599 4.613.904 9.194 1.735 13.764 3.04 8.81 2.51 17.48 5.407 25.898 9.681.787.402 1.738-.272 2.153-1.147 3.313-6.985 4.45-14.916 2.876-22.933-.525-2.638-3.379-1.477-3.061 1.105.863 7.042-.077 13.352-3.105 19.304.864-.302 1.738-.603 2.602-.89-8.67-5.02-17.546-9.566-26.839-12.204-6.854-1.936-18.715-6.67-25.165-1.736-.667.517-.569 1.635 0 2.18Z" fill="url(#d)"/>
  <path d="M111.427 115.886c2.274-4.116 2.241-9.508 2.995-14.37.951-6.153 2.176-12.262 4.034-18.056 3.52-10.943 8.648-17.124 15.95-23.593 2.143-1.893.875-6.927-1.847-5.765-7.926 3.385-13.982 14.07-17.36 23.607-2.11 5.951-3.51 12.247-4.504 18.672-.919 5.881-2.712 13.367-1.105 19.19.296 1.133 1.312 1.262 1.837.315Z" fill="url(#e)"/>
  <path d="M18.482 56.153c8.265 2.869 16.836 3.83 25.1 6.784 8.298 2.969 16.366 7.157 23.668 13.18a68.208 68.208 0 0 1 17.853 22.674c3.585 7.343 9.521 20.351 7.095 29.315-.383 1.391 1.366 2.38 1.847 1.018 6.92-19.62-8.013-43.01-19.142-54.169-7.675-7.687-16.519-13.122-25.68-16.966-9.5-3.987-20.3-7.53-30.314-5.894-1.662.243-2.307 3.413-.427 4.058Z" fill="url(#f)"/>
  <path d="M39.166 115.542c5.554.99 11.206-.373 16.792-.373 6.133 0 12.31.832 18.125 3.514 5.772 2.668 9.172 7.3 13.993 11.746 1.465 1.348 3.728 2.452 5.412 1.018 1.541-1.319 1.935-4.962 1.935-7.228-.569-.143-1.214-.258-1.662.215-1.17 1.248-1.006 2.295-2.798 1.721-1.116-.358-1.957-1.219-2.8-2.208-3.803-4.504-8.264-7.731-13.096-9.925-5.182-2.352-10.724-3.327-16.19-3.557-6.363-.258-13.61-.329-19.7 2.381-.885.416-1.126 2.496-.01 2.696Z" fill="url(#g)"/>
  <defs>
    <linearGradient id="a" x1="64.328" y1="18.462" x2="136.062" y2="238.734" gradientUnits="userSpaceOnUse">
      <stop stop-color="#8F3333"/>
      <stop offset="1" stop-color="#4C0D43"/>
    </linearGradient>
    <linearGradient id="b" x1="-13.165" y1="-43.597" x2="149.814" y2="56.377" gradientUnits="userSpaceOnUse">
      <stop stop-color="#99553C"/>
      <stop offset="1"/>
    </linearGradient>
    <linearGradient id="c" x1="57.757" y1="-9.686" x2="164.926" y2="157.522" gradientUnits="userSpaceOnUse">
      <stop stop-color="#FFEAAD"/>
      <stop offset=".534" stop-color="#FBB481"/>
      <stop offset="1" stop-color="#F78157"/>
    </linearGradient>
    <linearGradient id="d" x1="56.673" y1="-8.992" x2="163.842" y2="158.216" gradientUnits="userSpaceOnUse">
      <stop stop-color="#FFEAAD"/>
      <stop offset=".534" stop-color="#FBB481"/>
      <stop offset="1" stop-color="#F78157"/>
    </linearGradient>
    <linearGradient id="e" x1="81.3" y1="-24.775" x2="188.468" y2="142.433" gradientUnits="userSpaceOnUse">
      <stop stop-color="#FFEAAD"/>
      <stop offset=".534" stop-color="#FBB481"/>
      <stop offset="1" stop-color="#F78157"/>
    </linearGradient>
    <linearGradient id="f" x1="28.994" y1="8.75" x2="136.162" y2="175.958" gradientUnits="userSpaceOnUse">
      <stop stop-color="#FFEAAD"/>
      <stop offset=".534" stop-color="#FBB481"/>
      <stop offset="1" stop-color="#F78157"/>
    </linearGradient>
    <linearGradient id="g" x1="26.304" y1="10.406" x2="133.538" y2="177.716" gradientUnits="userSpaceOnUse">
      <stop stop-color="#FFEAAD"/>
      <stop offset=".534" stop-color="#FBB481"/>
      <stop offset="1" stop-color="#F78157"/>
    </linearGradient>
  </defs>
</svg>