<svg width="157" height="158" fill="none" xmlns="http://www.w3.org/2000/svg">
  <path d="M105.384 18.692c-2.794-1.596-7.27.316-10.053 1.147-5.006 1.503-10.043 3.033-14.72 5.723-3.715 2.149-8.297 5.472-10.467 9.995-1.608 3.336-.952 8.412-.085 12.038 5.916-2.307 12.287-3.032 18.033-2.36.096.013.201.026.296.04-.253-3.152.688-7.042 1.768-8.888.666-1.134 1.545-2.044 2.423-2.94 2.932-3.02 5.884-6.053 9.101-8.597.995-.778 7.069-4.246 3.704-6.158ZM61.498 94.194c.286.501.603.976 1.027 1.292-4-.95-4.752 1.345-5.874 5.736-1.185 4.589-2.042 9.283-2.9 13.977-.539 3.007-.846 6.026.742 8.637.56.923 1.407 1.635 2.338 1.674.932.04 1.81-.606 2.434-1.45.91-1.239 1.44-2.914 2.149-4.338 2.158-4.285 3.788-8.901 5.566-13.436 1.217-3.126 2.815-6 3.958-9.138a19.8 19.8 0 0 1 .487-1.227c-3.376-.026-6.73-.58-9.927-1.727Zm43.886-75.502c-2.794-1.596-7.27.316-10.053 1.147-5.006 1.503-10.043 3.033-14.72 5.723-3.715 2.149-8.297 5.472-10.467 9.995-1.608 3.336-.952 8.412-.085 12.038 5.916-2.307 12.287-3.032 18.033-2.36.096.013.201.026.296.04-.253-3.152.688-7.042 1.768-8.888.666-1.134 1.545-2.044 2.423-2.94 2.932-3.02 5.884-6.053 9.101-8.597.995-.778 7.069-4.246 3.704-6.158ZM61.498 94.194c.286.501.603.976 1.027 1.292-4-.95-4.752 1.345-5.874 5.736-1.185 4.589-2.042 9.283-2.9 13.977-.539 3.007-.846 6.026.742 8.637.56.923 1.407 1.635 2.338 1.674.932.04 1.81-.606 2.434-1.45.91-1.239 1.44-2.914 2.149-4.338 2.158-4.285 3.788-8.901 5.566-13.436 1.217-3.126 2.815-6 3.958-9.138a19.8 19.8 0 0 1 .487-1.227c-3.376-.026-6.73-.58-9.927-1.727Zm93.984-37.184a83.934 83.934 0 0 0-6.191-17.985c-4.296-9.033-10.085-17.01-16.794-23.247C117.85 2.17 96.727-1.258 78.959.377c-18.815 1.74-37.039 9.968-52.87 22.64-9.46 7.582-16.223 18.21-20.488 30.367C1.4 65.357-.378 78.806.066 92.243c.456 13.515 5.482 25.567 12.752 35.324 6.329 8.519 14.382 15.283 22.615 19.753a86.76 86.76 0 0 0 3.884 1.991c33.864 16.258 77.412 10.826 101.508-25.884 11.567-17.629 19.684-43.58 14.657-66.417ZM48.862 73.98c.52-3.942 1.916-7.925 3.853-11.472 3.069-5.617 7.524-9.797 12.582-12.658a33.206 33.206 0 0 1 4.763-2.255c5.915-2.307 12.286-3.032 18.032-2.36.096.013.201.026.296.04 1.355.171 2.72.5 4.043.989 4.72 1.674 9.027 5.221 11.271 10.47.232.526.444 1.067.624 1.634.212.646.391 1.292.54 1.952.497 2.188.645 4.377.497 6.527-.593 8.716-5.969 16.798-11.8 21.374a36.27 36.27 0 0 1-15.334 7.054c-2.254.449-4.54.673-6.804.646-3.376-.026-6.73-.58-9.927-1.727a26.981 26.981 0 0 1-5.048-2.347 15.18 15.18 0 0 1-.603-.382c-1.862-1.2-3.323-2.664-4.423-4.299-1.503-2.215-2.34-4.76-2.646-7.45-.212-1.86-.17-3.797.085-5.736Zm12.636 20.214c.286.501.603.976 1.027 1.292-4-.95-4.752 1.345-5.874 5.736-1.185 4.589-2.042 9.283-2.9 13.977-.539 3.007-.846 6.026.742 8.637.56.923 1.407 1.635 2.338 1.674.932.04 1.81-.606 2.434-1.45.91-1.239 1.44-2.914 2.149-4.338 2.158-4.285 3.788-8.901 5.566-13.436 1.217-3.126 2.815-6 3.958-9.138a19.8 19.8 0 0 1 .487-1.227c-3.376-.026-6.73-.58-9.927-1.727Zm43.886-75.502c-2.794-1.596-7.27.316-10.053 1.147-5.006 1.503-10.043 3.033-14.72 5.723-3.715 2.149-8.297 5.472-10.467 9.995-1.608 3.336-.952 8.412-.085 12.038 5.916-2.307 12.287-3.032 18.033-2.36.096.013.201.026.296.04-.253-3.152.688-7.042 1.768-8.888.666-1.134 1.545-2.044 2.423-2.94 2.932-3.02 5.884-6.053 9.101-8.597.995-.778 7.069-4.246 3.704-6.158ZM61.498 94.194c.286.501.603.976 1.027 1.292-4-.95-4.752 1.345-5.874 5.736-1.185 4.589-2.042 9.283-2.9 13.977-.539 3.007-.846 6.026.742 8.637.56.923 1.407 1.635 2.338 1.674.932.04 1.81-.606 2.434-1.45.91-1.239 1.44-2.914 2.149-4.338 2.158-4.285 3.788-8.901 5.566-13.436 1.217-3.126 2.815-6 3.958-9.138a19.8 19.8 0 0 1 .487-1.227c-3.376-.026-6.73-.58-9.927-1.727Zm43.886-75.502c-2.794-1.596-7.27.316-10.053 1.147-5.006 1.503-10.043 3.033-14.72 5.723-3.715 2.149-8.297 5.472-10.467 9.995-1.608 3.336-.952 8.412-.085 12.038 5.916-2.307 12.287-3.032 18.033-2.36.096.013.201.026.296.04-.253-3.152.688-7.042 1.768-8.888.666-1.134 1.545-2.044 2.423-2.94 2.932-3.02 5.884-6.053 9.101-8.597.995-.778 7.069-4.246 3.704-6.158Z" fill="url(#a)"/>
  <path d="M69.996 11.756c-3.175 7.292-8.847 11.314-13.81 16.509-5.344 5.604-10.18 11.986-14.318 18.987-4.307 7.292-7.916 15.256-10.657 23.643-1.27 3.89-2.53 7.819-3.418 11.88-.423 1.886-2.794 9.362.635 8.637.931-.211 1.672-1.068 2.286-1.952 1.11-1.635 2.148-3.283 3.26-4.918 2.476-3.652 4.92-8.57 7.947-11.498 2.465-2.387 5.153-1.556 6.942.936-.254 1.939-.297 3.877-.085 5.736-1.608-.013-3.915-.725-5.185-.04-1.662.924-2.953 2.598-4.202 4.246-2.36 3.112-4.73 6.21-7.09 9.323-1.386 1.82-3.915 6.685-6.254 6.58-3.958-.185-2.953-12.422-2.582-15.626 1.439-12.434 6.667-24.011 12.01-34.454 3.8-7.424 8.276-14.347 13.324-20.491 3.82-4.642 10.848-8.61 13.408-14.228-2.148 1.147-4.423 1.899-6.54 3.099-2.645 1.49-5.206 3.217-7.788 4.905-6.91 4.496-13.42 12.026-18.044 19.805-1.714 2.875-3.376 5.881-4.847 8.967-.592 1.24-2.38 7.384-3.545 3.283-.624-2.189 1.694-7.2 2.487-9.059 1.302-2.993 2.953-5.762 4.741-8.333 3.313-4.8 7.186-8.98 11.165-12.91C48.228 16.53 57.19 9.054 68.038 7.498c1.81-.25 2.699 2.558 1.958 4.26ZM110.908 20.749c-1.407 3.943-6.064 6.553-8.868 8.531-2.92 2.057-6.37 4.734-8.085 8.479-.826 1.793-1.947 5.986-1.524 8.505a18.393 18.393 0 0 0-4.043-.99c-.254-3.15.688-7.04 1.768-8.887.666-1.134 1.545-2.043 2.423-2.94 2.931-3.02 5.884-6.052 9.101-8.597.995-.778 7.069-4.246 3.704-6.158-2.794-1.596-7.27.316-10.053 1.147-5.006 1.503-10.043 3.033-14.72 5.723-3.715 2.15-8.297 5.472-10.467 9.995-1.608 3.336-.952 8.412-.085 12.038a33.21 33.21 0 0 0-4.762 2.255c-3.206-7.806 1.492-17.524 6.604-22.126 7.334-6.619 17.61-11.036 26.446-13.027 3.291-.752 15.842-3.125 12.561 6.052ZM146.021 70.183c-2.159 1.925-4.741 2.597-7.059 4.193-2.412 1.648-4.592 3.797-6.656 6.052-4.043 4.418-7.641 9.389-11.345 14.241-4.201 5.498-8.254 11.34-12.688 16.548-2.815 3.31-5.937 5.762-9.873 5.842-1.09.026-2.223-1.24-2.138-2.651 1.428-22.917 14.212-41.232 24.996-58.585 3.27-5.26 6.762-10.337 9.291-16.218 1.683-3.916 4.964-12.474-1.534-8.017-4.847 3.323-8.932 8.043-13.271 12.263-2.635 2.57-5.333 5.248-7.249 8.715-.952 1.728-1.693 3.64-2.063 5.684-.403 2.202-.191 4.522-1.196 6.513.169-1.542-.032-2.953-.36-4.443a20.972 20.972 0 0 0-.54-1.952 16.064 16.064 0 0 0-.624-1.635c.762-3.02 2-5.854 3.64-8.267 3.747-5.578 7.884-11.314 12.689-15.401 3.566-3.02 9.387-9.494 13.969-8.967 8.73 1.002.317 18.052-1.958 21.941-5.693 9.718-12.001 18.856-17.641 28.614-5.641 9.77-10.646 20.28-13.334 31.844-.603 2.597-.328 5.182 2.032 4.325 1.756-.633 3.545-3.152 4.804-4.708 2.752-3.402 4.963-7.37 7.598-10.904 3.673-4.945 7.398-9.824 10.975-14.874 4.603-6.514 11.238-16.654 19.006-15.23 2.095.383 1.884 3.877.529 5.077ZM78.832 96.225c-1.957.659-3.735 2.136-4.984 4.127-.71 1.147-1.249 2.426-1.778 3.705-2.116 5.103-4 10.417-6.275 15.388-1.99 4.338-5.651 12.843-10.583 12.078-5.387-.817-5.725-9.757-5.006-14.913.836-6.039 1.482-12.21 3.186-17.999.455-1.556 1.344-5.169 2.455-7.146.286-.528.582-.937.9-1.16 1.164-.845 2.349.237 3.153 1.278.275.356 1.545 3.39 2.053 3.086-1.238.725-2.667.58-3.63 1.925-.9 1.253-1.27 3.072-1.672 4.628-1.185 4.589-2.042 9.283-2.9 13.977-.54 3.007-.846 6.026.742 8.637.56.923 1.407 1.635 2.338 1.675.931.039 1.81-.607 2.434-1.451.91-1.239 1.44-2.914 2.148-4.338 2.16-4.285 3.789-8.901 5.567-13.436 1.217-3.125 2.815-6 3.958-9.138.159-.435.317-.844.487-1.227.486-1.134 1.068-1.977 2.116-2.32.37-.132.794-.198 1.302-.198 1.27.013 2.518.712 3.386 1.872.233.29.434.607.603.95Z" fill="#470927"/>
  <path d="M49.752 76.42c-.064-.37-.19-.792-.37-1.28-1.546-4.193-5.07-6.395-8.223-3.349-3.016 2.914-5.472 7.846-7.948 11.498-1.111 1.635-2.137 3.284-3.26 4.906-.613.896-1.354 1.753-2.285 1.951-3.429.738-1.058-6.738-.635-8.637.9-4.061 2.159-7.99 3.429-11.88a118.67 118.67 0 0 1 10.656-23.63c4.138-7.014 8.974-13.383 14.319-18.987 4.963-5.195 10.624-9.217 13.81-16.509.74-1.7-.159-4.522-1.958-4.259C56.44 7.8 47.477 15.277 39.084 23.531c-3.979 3.916-7.841 8.11-11.164 12.896-1.789 2.584-3.44 5.34-4.73 8.346-.805 1.86-3.112 6.87-2.498 9.046 1.164 4.1 2.953-2.044 3.545-3.283 1.471-3.086 3.133-6.092 4.847-8.967 4.625-7.766 11.133-15.295 18.043-19.805 2.572-1.674 5.133-3.402 7.789-4.905 2.127-1.2 4.392-1.952 6.54-3.099-2.561 5.618-9.588 9.586-13.398 14.228-5.047 6.145-9.524 13.08-13.323 20.49C29.391 58.936 24.163 70.5 22.724 82.934c-.37 3.204-1.376 15.441 2.582 15.612 2.339.106 4.868-4.76 6.254-6.58 2.36-3.111 4.72-6.21 7.09-9.322 1.25-1.648 2.54-3.323 4.202-4.246 2.201-1.186 7.63 1.926 6.9-1.978Z" fill="url(#b)"/>
  <path d="M101.278 28.014c2.805-1.978 7.461-4.575 8.868-8.518 3.281-9.177-9.27-6.804-12.561-6.052-8.836 1.991-19.102 6.408-26.446 13.028-5.228 4.707-10.032 14.78-6.37 22.692 1.407 3.06 5.481 1.042 4.624-2.426-.9-3.652-1.662-8.966 0-12.42 2.17-4.524 6.752-7.846 10.466-9.996 4.678-2.703 9.715-4.22 14.72-5.722 2.773-.831 7.26-2.743 10.043-1.16 3.366 1.911-2.698 5.38-3.704 6.157-3.227 2.532-6.17 5.578-9.111 8.597-.868.897-1.757 1.807-2.424 2.94-2 3.403-3.502 13.674 2.022 13.661.328 0 .688-.079.92-.382.466-.62.075-1.609-.317-2.308-1.154-2.123.212-7.502 1.175-9.612 1.725-3.745 5.174-6.422 8.095-8.479Z" fill="url(#c)"/>
  <path d="M144.731 63.84c-7.768-1.41-14.414 8.716-19.017 15.23-3.566 5.05-7.302 9.929-10.974 14.874-2.625 3.534-4.847 7.516-7.598 10.918-1.249 1.542-3.048 4.074-4.805 4.707-2.36.857-2.635-1.741-2.021-4.338 2.688-11.551 7.693-22.073 13.334-31.83 5.64-9.758 11.948-18.896 17.641-28.614 2.275-3.89 10.688-20.94 1.958-21.941-4.583-.528-10.403 5.946-13.969 8.966-4.815 4.088-8.943 9.823-12.689 15.388-1.704 2.531-2.984 5.485-3.735 8.65-.434 1.82-.699 3.758-.413 5.617.286 1.86 1.206 3.652 2.603 4.417.72-2.32.18-4.944.423-7.41.71-7.107 5.324-11.788 9.525-15.876 4.328-4.22 8.424-8.94 13.27-12.263 6.498-4.457 3.217 4.1 1.535 8.017-2.529 5.881-6.022 10.958-9.292 16.219-10.783 17.352-23.567 35.668-24.996 58.584-.084 1.411 1.048 2.677 2.138 2.664 3.937-.092 7.059-2.532 9.884-5.841 4.434-5.209 8.477-11.05 12.689-16.548 3.703-4.84 7.302-9.824 11.344-14.241 2.064-2.255 4.244-4.404 6.657-6.053 2.328-1.595 4.899-2.267 7.058-4.18 1.334-1.239 1.545-4.733-.55-5.116Z" fill="url(#d)"/>
  <path d="M72.779 92.335c-1.386.475-1.958 1.78-2.603 3.547-1.143 3.152-2.741 6.013-3.958 9.138-1.778 4.536-3.408 9.164-5.556 13.45-.71 1.424-1.249 3.085-2.159 4.325-.624.857-1.503 1.49-2.434 1.45-.931-.04-1.778-.752-2.339-1.675-1.587-2.624-1.29-5.643-.74-8.636.857-4.695 1.714-9.389 2.889-13.977 1.132-4.391 1.873-6.686 5.873-5.75-.667-.5-1.08-1.37-1.524-2.162-.974-1.754-2.624-4.206-4.265-3.02-1.502 1.095-2.772 6.343-3.354 8.308-1.704 5.788-2.34 11.946-3.186 17.998-.72 5.156-.38 14.096 5.006 14.914 4.931.751 8.593-7.754 10.582-12.092 2.276-4.971 4.16-10.285 6.276-15.375.529-1.279 1.069-2.571 1.778-3.705 1.249-1.99 3.026-3.468 4.984-4.14-.825-1.701-2.392-2.809-3.99-2.809-.476.027-.91.093-1.28.211Z" fill="url(#e)"/>
  <path d="M104.865 60.32a21.28 21.28 0 0 0-.539-1.952c-2.561-7.832-9.472-12.355-16.234-13.133-12.53-1.464-27.97 3.718-35.377 17.273-4.276 7.82-5.916 17.801-1.292 24.658a16.916 16.916 0 0 1-.455-.316c-4.571-3.284-7.048-12.593-6.497-19.067.37-4.299 1.884-8.294 3.725-11.867C55.773 41.213 69.573 32.55 82.97 34.093c5.874.672 11.79 3.31 16.117 8.623 3.651 4.497 5.98 11.09 5.778 17.604Z" fill="#470927"/>
  <path d="M26.978 37.93c-.635.87-1.29 1.833-1.725 2.875-.349.83-.582 1.265-.38 2.162.031.132.465-.21.497-.25 1.164-1.398 2.455-3.125 2.603-5.248.021-.304-.91.342-.995.461ZM59.678 10.068c-.646-.145-1.514.316-2.096.567-1.142.501-2.296 1.002-3.407 1.609-.085.053-1.503 1.081-1.133 1.16 1.07.264 2.35-.448 3.334-.87 1.122-.488 2.434-1.2 3.302-2.242.032-.04.116-.197 0-.224ZM31.052 57.023c-.963 1.503-1.65 2.953-2.328 4.68-.614 1.583-.931 3.139-1.354 4.8-.032.132.72-.21.814-.408 1.397-3.033 3.334-6.092 3.937-9.56.042-.277-.973.33-1.069.488ZM72.165 25.68a2.473 2.473 0 0 0-.846.554c-.878.897-1.894 1.794-2.275 3.178-.085.29.487.066.529.053.37-.145.762-.383 1.069-.699a14.33 14.33 0 0 0 1.428-1.714c.159-.224.307-.435.392-.712.053-.198.084-.422.127-.62.042-.224-.37-.053-.424-.04ZM42.344 71.673a4.248 4.248 0 0 0-.614.356c.106-.093.212-.185.328-.277-.074.052-.148.092-.222.145-.137.105-.275.21-.402.343-.01.013-.021.013-.032.026-.148.119-.296.237-.391.395.031-.026.052-.04.084-.066a2.143 2.143 0 0 0-.233.317c-.105.171-.243.343-.317.54-.064.159-.032.29 0 .449.042.224.656-.08.698-.092.212-.093.445-.238.657-.383.02-.013.074-.052.2-.158a.581.581 0 0 0 .085-.092l.096-.08c-.032.027-.053.04-.085.067.074-.066.137-.132.2-.211.128-.145.276-.29.392-.449.17-.237.254-.54.36-.83.138-.383-.762-.014-.804 0ZM56.112 91.386c-.043-.317-1.196.527-1.28.659-1.038 1.463-1.546 2.835-1.345 4.786.032.264 1.1-.474 1.185-.659.593-1.424 1.672-3.099 1.44-4.786ZM70.462 99.02c-.265.132-.667.343-.815.672-.328.752-.794 1.517-.89 2.374-.031.25.784-.29.858-.396.582-.831.995-1.754 1.44-2.69.116-.237-.572.026-.594.04ZM101.162 24.296c-1.217.83-2.149 1.925-3.07 3.191-.158.224.085.198.202.185.275-.053.603-.25.825-.462.646-.593 1.344-1.147 1.958-1.806.275-.303.878-.844.868-1.372-.021-.184-.773.25-.783.264ZM116.125 35.767c.032-.026.043-.026 0 0Z" fill="#FFEFDE"/>
  <path d="M115.925 35.939c.105-.092.158-.145.19-.172a17.92 17.92 0 0 1-.487.422c-.232.211-.465.41-.698.633-.466.449-.91.923-1.323 1.45-.286.37-.645.752-.847 1.2-.158.37-.243.752-.423 1.121-.159.317.625.053.614.066a3.502 3.502 0 0 0 1.238-.817c.815-.844 1.683-1.57 2.423-2.532.445-.58.921-1.16 1.027-1.964.095-.567-1.566.474-1.714.593ZM102.21 87.785c-.942 1.78-1.947 3.996-1.884 6.211 0 .185.857-.356.931-.475 1.037-1.859 2.022-4.06 2.064-6.355.011-.224-1.027.448-1.111.62ZM137.914 66.688c-.899.62-1.862 1.28-2.444 2.36-.085.159.233.093.243.093.233-.053.477-.198.667-.343.804-.593 1.81-1.226 2.244-2.307.084-.198-.667.171-.71.197Z" fill="#FFEFDE"/>
  <path d="M140.825 123.427c-24.096 36.71-67.644 42.142-101.508 25.884a86.76 86.76 0 0 1-3.884-1.991c-8.233-4.47-16.286-11.234-22.615-19.753 7.292 4.892 16.192 7.846 22.647 9.916 29.525 9.455 60.617 15.863 86.544-9.23 7.196-6.949 13.334-16.073 18.054-26.345 8.064-17.55 11.98-38.49 9.895-57.833-.18-1.622-.402-3.31-.667-5.05a83.934 83.934 0 0 1 6.191 17.985c5.027 22.838-3.09 48.788-14.657 66.417Z" fill="url(#f)"/>
  <defs>
    <linearGradient id="a" x1="45.037" y1="20.776" x2="234.145" y2="233.049" gradientUnits="userSpaceOnUse">
      <stop stop-color="#FFD061"/>
      <stop offset="1" stop-color="#CC5327"/>
    </linearGradient>
    <linearGradient id="b" x1="27.506" y1="15.818" x2="126.017" y2="139.006" gradientUnits="userSpaceOnUse">
      <stop stop-color="#611111"/>
      <stop offset="1" stop-color="#310736"/>
    </linearGradient>
    <linearGradient id="c" x1="64.091" y1="-13.439" x2="162.602" y2="109.749" gradientUnits="userSpaceOnUse">
      <stop stop-color="#611111"/>
      <stop offset="1" stop-color="#310736"/>
    </linearGradient>
    <linearGradient id="d" x1="70.63" y1="-18.668" x2="169.142" y2="104.52" gradientUnits="userSpaceOnUse">
      <stop stop-color="#611111"/>
      <stop offset="1" stop-color="#310736"/>
    </linearGradient>
    <linearGradient id="e" x1="18.843" y1="22.746" x2="117.354" y2="145.933" gradientUnits="userSpaceOnUse">
      <stop stop-color="#611111"/>
      <stop offset="1" stop-color="#310736"/>
    </linearGradient>
    <linearGradient id="f" x1="44.256" y1="14.272" x2="175.174" y2="172.446" gradientUnits="userSpaceOnUse">
      <stop stop-color="#FFD061"/>
      <stop offset="1" stop-color="#CC5327"/>
    </linearGradient>
  </defs>
</svg>