<svg width="157" height="158" fill="none" xmlns="http://www.w3.org/2000/svg">
  <path d="M156.113 86.89c-.615 4.8.095 8.937-.159 13.645-.254 4.601-2.236 8.871-4.916 12.04-1.706 2.029-3.496 3.7-5.456 5.079a24.806 24.806 0 0 1-3.274 1.989c-.074.053-.159.093-.233.133-.339 3.103-1.992 5.689-3.581 8.102-1.335 2.042-2.68 4.085-4.015 6.127-1.886 2.851-3.793 5.742-6.198 7.89-2.765 2.453-5.912 4.204-9.291 3.7a40.125 40.125 0 0 1-2.829-.544 39.454 39.454 0 0 1-7.893-2.758c-1.112 2.055-2.214 4.124-3.316 6.179-.243.464-.498.929-.826 1.287-.064.079-.138.145-.212.212-2.966 2.612-7.787 3.103-11.251 4.124a94.466 94.466 0 0 1-13.699 2.983 92.581 92.581 0 0 1-27.143-.159c-8.454-1.299-16.697-7.001-23.297-13.552-3.327-3.289-6.378-7.294-8.401-12.001-.996-2.334-1.335-3.673-1.08-6.233.137-1.405 1.408-3.607.222-4.482a2.008 2.008 0 0 0-.594-.252c-3.125-.782-7.405 0-9.927-3.037a4.765 4.765 0 0 1-.54-.808c-.18-.305-.328-.61-.487-.929-3.359-6.869-8.01-14.016-7.703-22.543.053-1.604.35-3.17.7-4.707.498-2.135 1.123-4.23 1.43-6.419.424-3.01.233-5.132 1.483-7.797.445-.928.964-1.83 1.536-2.679a8.63 8.63 0 0 1 .265-.398c.954-1.392 2.034-2.665 3.104-3.805-.656-1.313-1.324-2.626-1.98-3.926-.213-.424-.435-.861-.541-1.352-.01-.027-.021-.04-.021-.067-.572-2.678 1.176-8.221 1.62-10.94.69-4.15 1.526-8.367 3.306-12.027a30.127 30.127 0 0 1 4.27-6.485c2.299-2.691 4.968-4.906 7.723-6.683 2.998-1.923 6.134-3.435 9.302-4.867 4.587-2.082 9.238-3.978 13.603-6.67 1.335-.835 2.638-1.737 3.952-2.612 1.504-.995 3.02-1.963 4.598-2.745 1.748-.875 3.56-1.525 5.392-2.016 2.607-.716 5.287-1.154 7.936-1.591 4.64-.743 9.27-1.499 13.91-2.254 6.441-1.048 12.194.503 18.434 2.546 2.882.941 5.774 1.883 8.603 3.036 6.759 2.745 13.688 6.525 19.25 12.134 2.161 2.188 3.655 4.774 5.064 7.452 1.547 2.944 2.988 5.968 5.096 8.62 1.42 1.79 3.316 1.512 5.117 2.493 1.833 1.008 3.422 2.785 4.842 4.867 1.483 2.161 2.776 4.667 3.952 6.975.476.915.932 1.79 1.377 2.612 4.598 8.487 4.026 23.432 2.776 33.112Z" fill="url(#a)"/>
  <path d="M13.003 50.157c.53.41 1.166.517 1.78.623 3.93.676 7.872 1.366 11.802 2.042-3.358 6.471-7.691 12.134-12.713 16.616-2.045 1.83-4.29 3.567-5.488 6.325-1.345 3.09-1.133 6.83-.88 10.344.18 2.532.499 5.383 2.14 6.895 1.442 1.326 3.497 1.127 5.086.106 1.59-1.034 2.808-2.745 3.984-4.429 2.14-3.063 22.301-33.006 25.183-27.622.402.77.233 1.777.233 2.692-.01 3.647 2.839 6.617 2.744 10.277-.043 1.737-.763 3.329-1.42 4.867-2.829 6.63-4.81 13.83-5.837 21.23-.392 2.851-.35 6.471 1.716 7.771 1.472.915 3.231.106 4.704-.809 5.636-3.474 10.69-8.275 15.34-13.566 3.846-4.376 7.448-9.136 10.394-14.507 6.992-12.783 10.128-28.855 18.932-39.756 7.373-9.136 18.36-14.11 23-25.739-10.276-3.607-19.525-9.574-30.438-7.85-6.43 1.02-12.713 3.328-19.175 3.991-3.105.319-6.251.266-9.27 1.194-1.992.623-3.889 1.67-5.774 2.705-7.565 4.177-15.13 8.367-22.694 12.545-4.598 2.546-8.168 5.49-10.658 10.98-1.271 2.758-6.05 10.476-2.69 13.075Z" fill="url(#b)"/>
  <path d="M156.113 86.876c-.615 4.8.095 8.938-.159 13.646-.254 4.601-2.236 8.871-4.916 12.04-1.706 2.029-3.496 3.7-5.456 5.079a24.806 24.806 0 0 1-3.274 1.989c-.074.053-.159.093-.233.133-.339 3.103-1.992 5.689-3.581 8.102-1.335 2.043-2.68 4.085-4.015 6.127-1.886 2.851-3.793 5.742-6.198 7.89-2.765 2.453-5.912 4.204-9.291 3.7a40.125 40.125 0 0 1-2.829-.544 39.391 39.391 0 0 1-7.893-2.758c-1.112 2.055-2.214 4.124-3.316 6.179-.243.464-.498.929-.826 1.287-.064.079-.138.145-.212.212-2.966 2.612-7.787 3.103-11.251 4.124a94.602 94.602 0 0 1-13.699 2.984 92.616 92.616 0 0 1-27.143-.16c-8.454-1.299-16.697-7.001-23.297-13.552-3.327-3.289-6.378-7.293-8.401-12.001-.996-2.334-1.335-3.673-1.08-6.233.137-1.405 1.408-3.607.222-4.482a2.008 2.008 0 0 0-.594-.252c-3.125-.782-7.405 0-9.927-3.036a4.813 4.813 0 0 1-.54-.809c-.18-.305-.328-.61-.487-.929-3.359-6.869-8.01-14.016-7.703-22.543.053-1.604.35-3.17.7-4.707.137 9.653 1.06 20.633 9.365 23.179 4.196 1.287 8.592.133 12.798-1.007-1.716 3.858-1.038 8.858.89 12.571 1.928 3.699 4.905 6.325 7.946 8.579 14.652 10.848 32.408 14.945 49.19 11.338 3.994-.862 7.999-2.32 11.548-4.8 3.263-2.281 5.36-6.073 8.581-8.673 1.992-1.604 3.772-3.567 4.492-6.484 4.757 6.789 8.698 5.145 15.119 2.825 6.6-2.387 12.469-8.01 15.743-15.622l-5.658-6.723 4.069 2.785c.466.318.996.65 1.504.464.487-.172.784-.769 1.113-1.26.974-1.485 2.426-2.334 3.697-3.421 4.45-3.74 6.897-10.304 8.084-16.855 1.631-8.99 2.616-19.082 2.563-28.298-.01-1.896-.084-3.938.191-5.808.477.915.932 1.79 1.377 2.612 4.609 8.487 4.037 23.432 2.787 33.112Z" fill="url(#c)"/>
  <path d="M31.046 98.704a4742.757 4742.757 0 0 1-5 10.45c-1.96 4.097-3.963 8.275-6.781 11.484a1.982 1.982 0 0 0-.594-.252c-3.125-.783-7.405 0-9.927-3.037a4.773 4.773 0 0 1-.54-.809c2.236 1.697 4.757 2.732 6.76 1.114 3.103-2.52 5.816-6.922 8.486-10.118 3.612-4.31 7.034-8.38 7.596-8.832Z" fill="url(#d)"/>
  <path d="M24.837 54.002c-2.362 1.605-4.714 3.21-7.077 4.814-.943.65-1.896 1.3-2.765 2.095-1.716 1.592-4.428 7.36-6.59 7.453H8.31c.954-1.392 2.034-2.666 3.104-3.806-.657-1.313-1.324-2.626-1.98-3.925-.213-.425-.435-.862-.541-1.353.943-.146 1.886-.305 2.818-.45.466-.067.922-.133 1.388-.226 4.068-.73 8.052-2.294 11.738-4.602Z" fill="url(#e)"/>
  <path d="M116.161 145.038a39.457 39.457 0 0 1-7.893-2.759c-1.112 2.056-2.214 4.124-3.316 6.18-.243.464-.498.928-.826 1.286.424-1.697 1.663-4.005 1.949-4.986 1.049-3.554.615-6.564.731-10.224.043-1.406.308-2.785.382-4.19.519-10.039-8.603-17.147-9.641-27.105a143.197 143.197 0 0 0 7.31 14.189c2.765 4.681 5.954 10.118 4.799 15.753-.254 1.207-.699 2.427-.498 3.647.212 1.247 1.06 2.148 1.844 2.957 1.716 1.751 3.443 3.501 5.159 5.252Z" fill="url(#f)"/>
  <path d="M145.582 117.641a25.088 25.088 0 0 1-3.274 1.989c-.106-2.148-.71-4.191-2.225-5.715-.466-.478-.996-.849-1.462-1.327-.593-.61-1.07-1.352-1.547-2.095-2.129-3.368-4.237-6.803-6.854-9.574l8.009 7.161c1.621 1.432 3.316 2.997 4.1 5.278.371 1.087.54 2.36 1.24 3.169.54.623 1.292.862 2.013 1.114Z" fill="url(#g)"/>
  <path d="M143.633 60.686c-2.13 3.514-4.927 6.59-6.05 10.768-.922 3.395-.625 7.174-1.653 10.516-1.673 5.503-6.335 8.447-10.615 10.887-3.136 1.79-6.272 3.58-9.408 5.384-.985.557-2.002 1.127-3.083 1.3-1.589.238-3.178-.438-4.736-.929-2.606-.822-11.929-3.766-12.226 1.605-.084 1.578.467 3.089.996 4.535 1.293 3.514 2.384 5.277.329 8.579-1.25 2.003-2.977 3.515-4.62 4.973-7.871 7.028-18.794 4.973-28.043 4.893-3.03-.026-5.965 1.499-8.984 1.353-4.62-.212-8.338-4.111-11.484-8.593a87.368 87.368 0 0 1-2.617-3.991c-1.092-1.751-2.204-3.554-2.818-5.636-.053-.173-.106-.345-.149-.517-.879-3.448 3.168-13.023-1.811-12.97-2.13.027-4.227 1.287-6.22 1.99-3.326 1.206-6.78 2.294-10.212 1.763-6.876-1.047-11.601-10.45-13.264-18.26-.043-.172-.075-.331-.106-.49-.615-3.09-.064-6.313 1.197-9.07.085-.133.17-.266.265-.399.953-1.392 2.034-2.665 3.104-3.805-.657-1.313-1.325-2.626-1.981-3.926-.212-.424-.435-.861-.54-1.352-.011-.027-.022-.04-.022-.066-.572-2.68 1.176-8.222 1.621-10.94.689-4.151 1.526-8.368 3.306-12.028a30.127 30.127 0 0 1 4.27-6.485c4.872-4.96 10.742-8.221 16.473-11.258.18-.093.371-.199.551-.292 4.45-2.36 8.9-4.707 13.35-7.068a449.385 449.385 0 0 1 4.205-2.214c3.295-1.698 6.611-3.342 9.99-4.76 2.607-.717 5.287-1.155 7.936-1.592 4.64-.743 9.27-1.499 13.91-2.255C90.936-.71 96.69.84 102.93 2.883c2.882.941 5.774 1.883 8.602 3.036 6.76 2.745 13.688 6.525 19.251 12.134 1.917 1.936 3.305 4.19 4.576 6.537.159.305.329.61.488.915l4.99 14.243c.604 1.723 1.207 3.46 2.14 4.92.805 1.285 1.843 2.346 2.511 3.752 1.79 3.806.286 8.739-1.854 12.266Z" fill="url(#h)"/>
  <path d="M39.288 89.674c.487.756.498 1.804.434 2.772-.265 4.561-1.388 9.481-1.102 13.884-.052-.173-.105-.345-.148-.518-.88-3.447 3.168-13.022-1.812-12.968-2.129.026-4.227 1.286-6.218 1.989-3.327 1.206-6.78 2.294-10.213 1.763-6.876-1.047-11.601-10.45-13.265-18.26.286.517.52.955.668 1.247 2.723 5.476 6.515 9.866 11.802 10.807 5.837 1.034 11.686-2.161 17.576-1.764.827.054 1.748.24 2.278 1.048Z" fill="#C47695"/>
  <path d="M143.632 60.686c-2.129 3.514-4.926 6.59-6.049 10.768-.922 3.395-.625 7.174-1.653 10.516-1.674 5.503-6.335 8.447-10.616 10.887-3.136 1.79-6.271 3.58-9.407 5.384-.986.557-2.003 1.127-3.083 1.3-1.59.238-3.179-.438-4.736-.929-2.606-.822-11.93-3.766-12.226 1.605-.085 1.578.466 3.089.996 4.535 1.292 3.514 2.384 5.278.328 8.579-1.25 2.003-2.977 3.515-4.619 4.973-7.872 7.028-18.794 4.973-28.043 4.893-3.03-.026-5.965 1.499-8.985 1.353-4.619-.212-8.337-4.111-11.484-8.593 2.013 1.154 4.344 1.75 6.537 2.241 7.247 1.644 14.726 3.289 21.93 1.366 7.215-1.91 14.176-8.288 15.627-17.332.487-3.063.36-6.418 1.695-9.07 1.706-3.382 5.276-4.509 8.465-4.257 3.189.252 6.283 1.552 9.472 1.79 3.189.226 6.367-.61 9.471-1.578 6.865-2.135 14.43-5.768 17.057-13.977 1.409-4.376 1.155-9.481 3.03-13.578 1.176-2.573 3.136-4.629 3.761-7.493.551-2.506-.032-5.172-.625-7.665-1.706-7.28-3.411-14.547-5.117-21.814.159.305.328.61.487.915l4.99 14.243c.604 1.723 1.208 3.46 2.14 4.92.806 1.285 1.844 2.346 2.511 3.752 1.791 3.806.286 8.739-1.854 12.266Z" fill="#501727"/>
  <path d="M14.095 67.608c-1.463 2.215-2.575 4.933-2.617 7.797-.043 2.878 1.176 5.888 3.284 7.002 1.918 1.021 4.121.358 6.134-.305 8.624-2.851 20.786-4.098 28.34-10.29 3.051-2.493 4.99-6.777 7.904-9.601 3.75-3.647 8.136-6.233 12.639-8.05 7.977-3.222 16.4-4.283 24.6-6.524 9.418-2.586 27.005-9.72 26.232-25.46-.201-4.151-2.331-7.864-4.99-10.37-2.659-2.507-5.827-3.979-8.952-5.437C100.725 3.612 94.496.8 88.192 1.755c-11.294 1.71-22.238 3.328-33.277 7.837-.88.358-1.77.716-2.575 1.286-.879.61-1.652 1.433-2.468 2.188-7.808 7.214-18.244 8.103-26.73 13.858-3.92 2.665-5.604 5.092-7.68 9.946-2.332 5.463-3.147 8.288-3.847 14.189-.646 5.463 4.46 3.408 5.425 7.571.73 3.196-1.462 6.737-2.945 8.978Z" fill="url(#i)"/>
  <path d="M83.223 68.59c3.358-2.135 6.76-4.84 8.37-9.097-3.825-5.954-17.64-3.196-22.662-.703-5.403 2.679-13.847 11.563-13.402 19.347 9.196.398 19.6-4.402 27.694-9.547Z" fill="url(#j)"/>
  <path d="M55.995 20.599c3.592-.026 7.173-.239 10.764-.544 2.374-.199 2.384-4.84 0-4.64-3.591.29-7.172.503-10.764.543-2.394.013-2.394 4.654 0 4.641ZM37.36 39.43c1.557-2.626 3.125-5.252 4.683-7.877.604-1.008.127-2.586-.668-3.17-.943-.703-1.938-.172-2.532.836a3054.973 3054.973 0 0 1-4.683 7.877c-.603 1.007-.127 2.586.668 3.169.932.703 1.928.172 2.532-.836ZM45.19 42.28c2.055 3.063 4.1 6.127 6.154 9.19 1.537 2.294 4.143-1.008 2.617-3.276-2.055-3.063-4.1-6.126-6.155-9.19-1.526-2.293-4.142 1.009-2.617 3.276ZM29.467 66.866c2.67-1.326 5.329-2.653 7.999-3.992 2.193-1.087 1.24-5.583-.986-4.482-2.67 1.326-5.328 2.652-7.998 3.991-2.193 1.101-1.24 5.596.985 4.483ZM52.213 87.009a141.628 141.628 0 0 0 10.16 9.72c1.97 1.698 3.825-2.32 1.875-4.005a128.834 128.834 0 0 1-9.408-9.004c-1.822-1.91-4.46 1.353-2.627 3.289ZM82.524 86.704c.646-3.17 1.515-6.22 2.66-9.15 1.038-2.679-2.151-5.026-3.2-2.347a63.386 63.386 0 0 0-3.04 10.264c-.583 2.89 2.998 4.124 3.58 1.233ZM95.84 55.037a208.357 208.357 0 0 1 8.36 6.856c1.96 1.71 3.824-2.32 1.875-4.005a184.846 184.846 0 0 0-8.359-6.855c-2.045-1.578-3.899 2.44-1.875 4.004ZM111.065 31.101a93.23 93.23 0 0 1 9.906-8.434c2.055-1.525.191-5.53-1.875-4.005-3.719 2.759-7.257 5.822-10.658 9.164-1.875 1.843.763 5.105 2.627 3.275ZM85.437 16.554c1.695 2.533 3.39 5.08 5.086 7.612 1.536 2.294 4.142-1.008 2.617-3.275-1.695-2.533-3.39-5.08-5.086-7.612-1.525-2.294-4.142 1.008-2.617 3.275ZM69.896 38.54a46.3 46.3 0 0 1 11.113 1.168c2.331.543 3.338-3.925.986-4.47-4.005-.928-8.02-1.392-12.1-1.338-2.383.026-2.394 4.667 0 4.64ZM124.891 53.631c-.445 3.7-.89 7.4-1.335 11.113-.349 2.917 3.221 4.177 3.581 1.233.445-3.7.89-7.4 1.335-11.113.35-2.917-3.231-4.177-3.581-1.233ZM63.475 70.048c1.812.915 3.634 1.83 5.446 2.745.932.464 2.034-.504 2.278-1.618.286-1.326-.36-2.386-1.293-2.85-1.812-.916-3.634-1.83-5.445-2.746-.933-.464-2.035.504-2.278 1.618-.297 1.326.36 2.387 1.292 2.851Z" fill="#C47695"/>
  <path d="M55.455 19.246c3.591-.026 7.172-.239 10.764-.544 2.373-.199 2.384-4.84 0-4.64-3.592.29-7.173.503-10.764.543-2.394.013-2.394 4.654 0 4.641Z" fill="url(#k)"/>
  <path d="M36.82 38.077c1.557-2.626 3.114-5.252 4.682-7.877.604-1.008.127-2.586-.667-3.17-.943-.703-1.939-.172-2.532.836-1.558 2.625-3.115 5.251-4.683 7.877-.604 1.007-.127 2.585.667 3.169.933.703 1.94.172 2.532-.835Z" fill="url(#l)"/>
  <path d="M44.649 40.928c2.055 3.063 4.1 6.126 6.155 9.19 1.536 2.293 4.142-1.009 2.617-3.276-2.056-3.063-4.1-6.127-6.155-9.19-1.526-2.294-4.143 1.008-2.617 3.276Z" fill="url(#m)"/>
  <path d="M28.927 65.513c2.67-1.326 5.328-2.652 7.998-3.991 2.193-1.088 1.24-5.583-.985-4.482-2.67 1.326-5.329 2.652-7.999 3.991-2.193 1.1-1.24 5.583.986 4.482Z" fill="url(#n)"/>
  <path d="M51.672 85.656a141.65 141.65 0 0 0 10.16 9.72c1.971 1.697 3.825-2.32 1.876-4.005a128.833 128.833 0 0 1-9.408-9.004c-1.822-1.91-4.46 1.353-2.628 3.289Z" fill="url(#o)"/>
  <path d="M81.994 85.351c.646-3.169 1.515-6.219 2.66-9.15 1.038-2.678-2.151-5.025-3.2-2.347a63.401 63.401 0 0 0-3.04 10.264c-.594 2.89 2.987 4.124 3.58 1.233Z" fill="url(#p)"/>
  <path d="M95.3 53.684a208.36 208.36 0 0 1 8.36 6.856c1.96 1.71 3.824-2.32 1.875-4.005a184.928 184.928 0 0 0-8.36-6.855c-2.033-1.578-3.898 2.44-1.874 4.004Z" fill="url(#q)"/>
  <path d="M110.524 29.749a93.242 93.242 0 0 1 9.906-8.434c2.055-1.525.191-5.53-1.875-4.005-3.719 2.759-7.257 5.822-10.658 9.164-1.875 1.83.773 5.092 2.627 3.275Z" fill="url(#r)"/>
  <path d="M84.897 15.202c1.695 2.533 3.39 5.079 5.085 7.612 1.536 2.294 4.143-1.008 2.617-3.276-1.695-2.533-3.39-5.079-5.085-7.612-1.526-2.294-4.143.995-2.617 3.276Z" fill="url(#s)"/>
  <path d="M69.355 37.175a46.3 46.3 0 0 1 11.114 1.167c2.33.543 3.337-3.925.985-4.482-4.005-.929-8.02-1.393-12.099-1.34-2.383.053-2.394 4.694 0 4.655Z" fill="url(#t)"/>
  <path d="m124.351 52.279-1.335 11.112c-.35 2.918 3.22 4.177 3.581 1.233.445-3.7.89-7.399 1.335-11.112.349-2.917-3.232-4.177-3.581-1.233Z" fill="url(#u)"/>
  <path d="M62.935 68.695c1.811.916 3.634 1.83 5.445 2.746.933.464 2.035-.504 2.278-1.618.286-1.326-.36-2.387-1.292-2.851-1.812-.915-3.634-1.83-5.446-2.745-.932-.465-2.034.504-2.278 1.617-.296 1.313.36 2.374 1.293 2.852Z" fill="url(#v)"/>
  <path d="M25.79 25.665c-3.167.437-5.201 3.17-6.907 6.418-1.536 2.917-2.934 5.901-4.492 8.818-1.186 2.215-2.373 4.947-1.112 7.4.148.292 1.26-.45 1.26-.77.138-4.892 1.537-7.147 3.74-10.992 2.056-3.568 2.819-9.64 6.971-10.41.149-.04.7-.49.54-.464ZM33.991 23.37c-1.737-.61-3.21.053-4.905.65-.148.053-1.24.836-.996.915.668.252 1.123.358 1.843.212 1.092-.212 2.151-.636 3.21-1.007.128-.04 1.05-.703.848-.77ZM18.428 57.145c-.201-.517-.657-.795-1.06-1.114-.137-.106-.752.292-.784.478-.095.543-.275 1.14-.285 1.684-.022.504.127 1.06.137 1.578.021 1.114.074 2.32-.053 3.421-.042.332 1.346-.41 1.483-.756.467-1.127.89-2.294.816-3.58-.042-.53-.063-1.233-.254-1.71ZM87.715 1.464c-2.077-1.565-6.886 2.148-8.92 2.718-3.804 1.088-7.618-.132-11.337 1.631-.095.04-.71.57-.317.451 3.178-.994 6.377.796 9.598.067 3.316-.756 6.505-2.759 9.768-3.833.127-.053 1.505-.809 1.208-1.034ZM92.345 1.742c-.54-.066-1.07-.146-1.61-.212-.329-.04-.7.199-.975.398-.064.04-.636.517-.413.596 1.006.332 1.875.69 2.924.504.159-.026 1.197-.45 1.07-.769-.17-.464-.636-.464-.996-.517Z" fill="#FFEFDE"/>
  <defs>
    <linearGradient id="a" x1="25.768" y1="47.44" x2="246.17" y2="140.866" gradientUnits="userSpaceOnUse">
      <stop stop-color="#FFD061"/>
      <stop offset="1" stop-color="#CC5327"/>
    </linearGradient>
    <linearGradient id="b" x1="-16.578" y1="13.457" x2="88.054" y2="47.491" gradientUnits="userSpaceOnUse">
      <stop stop-color="#BF9A73"/>
      <stop offset="1"/>
    </linearGradient>
    <linearGradient id="c" x1="-11.755" y1="11.218" x2="202.563" y2="126.815" gradientUnits="userSpaceOnUse">
      <stop stop-color="#FFD061"/>
      <stop offset="1" stop-color="#CC5327"/>
    </linearGradient>
    <linearGradient id="d" x1="-37.697" y1="22.748" x2="49.722" y2="105.399" gradientUnits="userSpaceOnUse">
      <stop stop-color="#FFD061"/>
      <stop offset="1" stop-color="#CC5327"/>
    </linearGradient>
    <linearGradient id="e" x1="-21.034" y1="5.477" x2="66.385" y2="88.128" gradientUnits="userSpaceOnUse">
      <stop stop-color="#FFD061"/>
      <stop offset="1" stop-color="#CC5327"/>
    </linearGradient>
    <linearGradient id="f" x1="2.26" y1="-19.514" x2="89.679" y2="63.137" gradientUnits="userSpaceOnUse">
      <stop stop-color="#FFD061"/>
      <stop offset="1" stop-color="#CC5327"/>
    </linearGradient>
    <linearGradient id="g" x1="30.505" y1="-49.388" x2="117.923" y2="33.263" gradientUnits="userSpaceOnUse">
      <stop stop-color="#FFD061"/>
      <stop offset="1" stop-color="#CC5327"/>
    </linearGradient>
    <linearGradient id="h" x1="37.235" y1="-34.435" x2="137.394" y2="127.097" gradientUnits="userSpaceOnUse">
      <stop stop-color="#8F3333"/>
      <stop offset="1" stop-color="#4C0D43"/>
    </linearGradient>
    <linearGradient id="i" x1="40.856" y1="-58.979" x2="92.125" y2="81.321" gradientUnits="userSpaceOnUse">
      <stop stop-color="#6A1E3C"/>
      <stop offset="1" stop-color="#974E55"/>
    </linearGradient>
    <linearGradient id="j" x1="43.524" y1="-59.954" x2="94.794" y2="80.347" gradientUnits="userSpaceOnUse">
      <stop stop-color="#99553C"/>
      <stop offset="1" stop-color="#420B22"/>
    </linearGradient>
    <linearGradient id="k" x1="52.141" y1="-7.105" x2="146.565" y2="157.278" gradientUnits="userSpaceOnUse">
      <stop offset=".006" stop-color="#6ECFCE"/>
      <stop offset=".994" stop-color="#153C66"/>
    </linearGradient>
    <linearGradient id="l" x1="27.956" y1="6.787" x2="122.38" y2="171.172" gradientUnits="userSpaceOnUse">
      <stop stop-color="#FFEAAD"/>
      <stop offset=".534" stop-color="#FBB481"/>
      <stop offset="1" stop-color="#F78157"/>
    </linearGradient>
    <linearGradient id="m" x1="34.132" y1="3.239" x2="128.557" y2="167.624" gradientUnits="userSpaceOnUse">
      <stop offset=".006" stop-color="#FF6647"/>
      <stop offset=".994" stop-color="#750A59"/>
    </linearGradient>
    <linearGradient id="n" x1="15.147" y1="14.145" x2="109.572" y2="178.53" gradientUnits="userSpaceOnUse">
      <stop offset=".006" stop-color="#6ECFCE"/>
      <stop offset=".994" stop-color="#153C66"/>
    </linearGradient>
    <linearGradient id="o" x1="27.806" y1="6.873" x2="122.231" y2="171.258" gradientUnits="userSpaceOnUse">
      <stop offset=".006" stop-color="#FF6647"/>
      <stop offset=".994" stop-color="#750A59"/>
    </linearGradient>
    <linearGradient id="p" x1="50.121" y1="-5.944" x2="144.545" y2="158.439" gradientUnits="userSpaceOnUse">
      <stop offset=".006" stop-color="#6ECFCE"/>
      <stop offset=".994" stop-color="#153C66"/>
    </linearGradient>
    <linearGradient id="q" x1="73.151" y1="-19.174" x2="167.576" y2="145.21" gradientUnits="userSpaceOnUse">
      <stop stop-color="#FFEAAD"/>
      <stop offset=".534" stop-color="#FBB481"/>
      <stop offset="1" stop-color="#F78157"/>
    </linearGradient>
    <linearGradient id="r" x1="94.167" y1="-31.244" x2="188.59" y2="133.137" gradientUnits="userSpaceOnUse">
      <stop offset=".006" stop-color="#FF6647"/>
      <stop offset=".994" stop-color="#750A59"/>
    </linearGradient>
    <linearGradient id="s" x1="74.972" y1="-20.22" x2="169.397" y2="144.165" gradientUnits="userSpaceOnUse">
      <stop stop-color="#FFEAAD"/>
      <stop offset=".534" stop-color="#FBB481"/>
      <stop offset="1" stop-color="#F78157"/>
    </linearGradient>
    <linearGradient id="t" x1="58.294" y1="-10.639" x2="152.719" y2="153.745" gradientUnits="userSpaceOnUse">
      <stop offset=".006" stop-color="#6ECFCE"/>
      <stop offset=".994" stop-color="#153C66"/>
    </linearGradient>
    <linearGradient id="u" x1="92.862" y1="-30.495" x2="187.286" y2="133.888" gradientUnits="userSpaceOnUse">
      <stop offset=".006" stop-color="#6ECFCE"/>
      <stop offset=".994" stop-color="#153C66"/>
    </linearGradient>
    <linearGradient id="v" x1="41.018" y1="-.716" x2="135.442" y2="163.668" gradientUnits="userSpaceOnUse">
      <stop stop-color="#FFEAAD"/>
      <stop offset=".534" stop-color="#FBB481"/>
      <stop offset="1" stop-color="#F78157"/>
    </linearGradient>
  </defs>
</svg>