<svg xmlns="http://www.w3.org/2000/svg" viewBox="0 0 512.002 512.002" style="enable-background:new 0 0 512.002 512.002" xml:space="preserve">
    <path style="fill:#5286fa" d="M256.001 349.09H162.91V23.273C162.911 10.42 152.489 0 139.638 0c-12.854 0-23.273 10.42-23.273 23.273V349.09h-93.09A23.274 23.274 0 0 0 6.82 388.82l116.362 116.363a23.272 23.272 0 0 0 32.911-.001l116.363-116.363a23.27 23.27 0 0 0-16.455-39.729zM505.182 123.181 388.818 6.817c-9.087-9.089-23.823-9.089-32.912 0L239.543 123.181a23.283 23.283 0 0 0-5.046 25.363 23.276 23.276 0 0 0 21.502 14.367h93.091V488.73c0 12.853 10.418 23.273 23.273 23.273 12.851 0 23.273-10.42 23.273-23.273V162.91h93.091a23.271 23.271 0 0 0 21.499-14.367 23.266 23.266 0 0 0-5.044-25.362z"/>
</svg>