<svg width="224" height="217" fill="none" xmlns="http://www.w3.org/2000/svg">
  <g filter="url(#a)">
    <path d="M112.047 30.99c14.127 0 25.001 50.654 25.001 50.654s51.522-5.315 55.887 8.135c4.366 13.422-40.458 39.427-40.458 39.427s20.962 47.373 9.545 55.671c-11.416 8.297-50.003-26.276-50.003-26.276s-38.56 34.573-50.003 26.276c-11.443-8.298 9.545-55.671 9.545-55.671s-44.796-26.005-40.458-39.427c4.366-13.423 55.888-8.135 55.888-8.135S97.919 30.99 112.047 30.99Z" fill="url(#b)"/>
  </g>
  <g filter="url(#c)">
    <path d="M112.047 30.99c14.127 0 25.001 50.654 25.001 50.654s51.522-5.315 55.887 8.135c4.366 13.422-40.458 39.427-40.458 39.427s20.962 47.373 9.546 55.671c-11.417 8.297-50.004-26.276-50.004-26.276s-38.56 34.573-50.003 26.276c-11.443-8.298 9.545-55.671 9.545-55.671s-44.796-26.005-40.458-39.427c4.366-13.423 55.888-8.135 55.888-8.135S97.919 30.99 112.047 30.99Z" fill="url(#d)"/>
  </g>
  <g filter="url(#e)">
    <path d="M112.047 30.99c14.127 0 25.001 50.654 25.001 50.654s51.522-5.315 55.887 8.135c4.366 13.422-40.458 39.427-40.458 39.427s20.962 47.373 9.546 55.671c-11.417 8.297-50.004-26.276-50.004-26.276s-38.56 34.573-50.003 26.276c-11.443-8.298 9.545-55.671 9.545-55.671s-44.796-26.005-40.458-39.427c4.366-13.423 55.888-8.135 55.888-8.135S97.919 30.99 112.047 30.99Z" fill="url(#f)"/>
  </g>
  <path d="M112.046 30.99c13.423 0 23.781 48.186 23.781 48.186s49.027-5.044 53.176 7.728c4.149 12.772-38.478 37.503-38.478 37.503s19.957 45.067 9.084 52.958c-10.874 7.891-47.563-25.001-47.563-25.001s-36.689 32.892-47.563 25.001c-10.873-7.891 9.084-52.958 9.084-52.958S30.94 99.677 35.09 86.904c4.149-12.772 53.176-7.728 53.176-7.728S98.623 30.99 112.046 30.99Z" fill="url(#g)"/>
  <path d="M150.525 120.99s19.958 43.441 9.111 51.061c-10.874 7.592-47.563-24.107-47.563-24.107s-36.688 31.699-47.562 24.107c-10.847-7.62 9.11-51.061 9.11-51.061S30.969 97.182 35.117 84.87l.028-.027c4.203-12.256 53.148-7.402 53.148-7.402s10.332-46.424 23.781-46.424c13.45 0 23.782 46.424 23.782 46.424s41.786-4.15 51.494 4.908c.814.732 1.383 1.572 1.709 2.522 4.094 12.31-38.533 36.119-38.533 36.119Z" fill="url(#h)"/>
  <path d="M150.525 119.851s19.958 43.441 9.111 51.061c-10.874 7.592-47.562-27.442-47.562-27.442s-36.69 35.034-47.563 27.442c-10.847-7.62 9.111-51.061 9.111-51.061s-42.654-23.808-38.505-36.12l.027-.026c4.203-12.257 53.148-7.403 53.148-7.403s10.332-46.424 23.782-46.424 23.781 46.424 23.781 46.424 41.787-4.15 51.494 4.908c.814.732 1.383 1.573 1.709 2.522 4.094 12.31-38.533 36.119-38.533 36.119Z" fill="url(#i)"/>
  <path d="M187.296 82.322c-.624.759-1.41 1.491-2.359 2.142-20.772 14.643-59.793 11.958-102.583 2.44-41.136-9.192-46.884-2.603-47.237-2.06 4.203-12.257 53.149-7.403 53.149-7.403s10.331-46.424 23.781-46.424 23.781 46.424 23.781 46.424 41.787-4.176 51.468 4.88Z" fill="#FEEA80"/>
  <path d="M99.004 46.555s6.508-13.857 10.711-13.559c4.203.299.298 10.739-1.085 11.986-1.41 1.247-8.352 2.657-9.626 1.573ZM38.235 83.135c-.38 2.142 15.647-1.98 15.701-4.013.081-2.061-14.752-1.166-15.7 4.013ZM161.887 159.767c-1.166-2.007-3.308 13.232-2.251 12.256 1.031-.949 6.4-5.206 2.251-12.256Z" fill="#fff"/>
  <path d="M78.666 129.64c2.305-.135 4.284 1.627 4.447 3.932.135 2.305-1.627 4.284-3.932 4.447-2.305.136-4.284-1.627-4.447-3.932a4.193 4.193 0 0 1 3.932-4.447ZM126.526 88.043c2.305-.136 4.284 1.627 4.447 3.932.136 2.305-1.627 4.284-3.932 4.447-2.305.136-4.311-1.627-4.447-3.932-.135-2.305 1.627-4.284 3.932-4.447ZM103.45 78.85c6.481-.379 12.04 4.556 12.419 11.01.38 6.48-4.555 12.04-11.009 12.419-6.48.38-12.04-4.555-12.42-11.009-.406-6.48 4.529-12.04 11.01-12.42ZM81.54 142.683c1.545-.081 2.874 1.085 2.955 2.631.082 1.545-1.084 2.874-2.63 2.955-1.545.082-2.874-1.084-2.956-2.63-.081-1.546 1.085-2.874 2.63-2.956ZM133.604 143.47c1.546-.082 2.874 1.084 2.956 2.63.081 1.546-1.085 2.874-2.63 2.956-1.546.081-2.875-1.085-2.956-2.631-.082-1.545 1.084-2.874 2.63-2.955Z" fill="#fff" fill-opacity=".4"/>
  <defs>
    <linearGradient id="b" x1="112.048" y1="186.132" x2="163.195" y2="30.851" gradientUnits="userSpaceOnUse">
      <stop stop-color="#6F41DA"/>
      <stop offset="1" stop-color="#71F06E"/>
    </linearGradient>
    <linearGradient id="d" x1="112.048" y1="186.132" x2="163.195" y2="30.851" gradientUnits="userSpaceOnUse">
      <stop stop-color="#6F41DA"/>
      <stop offset="1" stop-color="#71F06E"/>
    </linearGradient>
    <linearGradient id="f" x1="112.048" y1="186.132" x2="163.195" y2="30.851" gradientUnits="userSpaceOnUse">
      <stop stop-color="#6F41DA"/>
      <stop offset="1" stop-color="#71F06E"/>
    </linearGradient>
    <linearGradient id="h" x1="112.048" y1="173.216" x2="112.048" y2="30.998" gradientUnits="userSpaceOnUse">
      <stop stop-color="#FFF300"/>
      <stop offset="1" stop-color="#FF9700"/>
    </linearGradient>
    <linearGradient id="i" x1="112.048" y1="171.985" x2="112.048" y2="29.866" gradientUnits="userSpaceOnUse">
      <stop stop-color="#FD5"/>
      <stop offset="1" stop-color="#FFEC43"/>
    </linearGradient>
    <filter id="a" x=".807" y=".99" width="222.428" height="215.173" filterUnits="userSpaceOnUse" color-interpolation-filters="sRGB">
      <feFlood flood-opacity="0" result="BackgroundImageFix"/>
      <feBlend in="SourceGraphic" in2="BackgroundImageFix" result="shape"/>
      <feGaussianBlur stdDeviation="15" result="effect1_foregroundBlur_1_6837"/>
    </filter>
    <filter id="c" x="10.807" y="10.99" width="202.428" height="195.173" filterUnits="userSpaceOnUse" color-interpolation-filters="sRGB">
      <feFlood flood-opacity="0" result="BackgroundImageFix"/>
      <feBlend in="SourceGraphic" in2="BackgroundImageFix" result="shape"/>
      <feGaussianBlur stdDeviation="10" result="effect1_foregroundBlur_1_6837"/>
    </filter>
    <filter id="e" x="20.807" y="20.99" width="182.428" height="175.173" filterUnits="userSpaceOnUse" color-interpolation-filters="sRGB">
      <feFlood flood-opacity="0" result="BackgroundImageFix"/>
      <feBlend in="SourceGraphic" in2="BackgroundImageFix" result="shape"/>
      <feGaussianBlur stdDeviation="5" result="effect1_foregroundBlur_1_6837"/>
    </filter>
    <radialGradient id="g" cx="0" cy="0" r="1" gradientUnits="userSpaceOnUse" gradientTransform="translate(112.048 104.789) scale(75.5435)">
      <stop stop-color="#FFBD00"/>
      <stop offset="1" stop-color="#FF772C"/>
    </radialGradient>
  </defs>
</svg>