<svg width="980" height="242" fill="none" xmlns="http://www.w3.org/2000/svg">
  <g opacity=".3">
    <path d="M-2 2.469c26.056 0 96.728 0 135.318 51.884 53.277 71.609 9.572 96.729-12.534 96.729h-1.392c-22.106 0-65.837-25.094-12.535-96.73C145.473 2.47 216.145 2.47 242.176 2.47h3.52c26.056 0 96.728 0 135.319 51.884 53.276 71.61 9.571 96.729-12.535 96.729h-1.392c-22.106 0-65.837-25.094-12.535-96.729C393.169 2.469 463.842 2.469 489.872 2.469h3.216c26.056 0 96.729 0 135.319 51.884 53.276 71.61 9.571 96.729-12.535 96.729h-1.392c-22.106 0-65.836-25.094-12.534-96.729C640.561 2.469 711.234 2.469 737.264 2.469h3.52c26.056 0 96.729 0 135.319 51.884 53.276 71.61 9.571 96.729-12.534 96.729h-1.393c-22.106 0-65.836-25.094-12.534-96.729C888.257 2.47 958.93 2.47 984.96 2.47M235.492 2.849l6.989 43.882" stroke="#fff" stroke-width="2" stroke-miterlimit="10"/>
    <path d="m252.129 28.018 1.95 12.332-24.663 3.925-1.95-12.332a5.241 5.241 0 0 1 4.355-6.001l14.307-2.28a5.24 5.24 0 0 1 6.001 4.356Z" fill="#fff"/>
    <path d="m241.772 42.3-12.331 1.95-1.95-12.332a5.241 5.241 0 0 1 4.355-6.002l7.141-1.14 2.279 14.257.506 3.267Z" fill="#8AF3FF"/>
    <path d="M291.479 127.962c3.089 19.447-10.154 37.679-29.601 40.793l-1.114.152c-18.359 2.355-35.679-10.053-39.401-28.183-2.127-10.382.481-20.536 6.255-28.335 2.076-2.81 1.443-6.685-1.393-8.71-7.521-5.343-12.965-13.598-14.509-23.398-3.09-19.447 10.154-37.703 29.601-40.793.379-.05.734-.101 1.114-.152 18.358-2.33 35.678 10.053 39.375 28.183 2.127 10.382-.481 20.536-6.229 28.335-2.077 2.811-1.444 6.685 1.392 8.711a35.465 35.465 0 0 1 14.51 23.397Z" fill="#FF5287"/>
    <path d="m241.317 39.463 20.561 129.292c-.38.051-.734.102-1.114.152-18.358 2.355-35.678-10.052-39.401-28.183-2.127-10.382.481-20.535 6.255-28.335 2.076-2.81 1.443-6.684-1.393-8.71-7.52-5.343-12.965-13.598-14.509-23.397-3.089-19.473 10.154-37.73 29.601-40.819Z" fill="#FF2E60"/>
    <path d="M270.792 75.167c-.76-9.04-6.002-17.497-14.662-21.954M365.467 152.575l8.787 36.083" stroke="#fff" stroke-width="2" stroke-miterlimit="10"/>
    <path d="M407.83 206.763c3.697 15.193-5.621 30.513-20.814 34.21-15.193 3.697-30.513-5.622-34.21-20.815-3.697-15.193 5.596-30.512 20.815-34.209 15.193-3.697 30.512 5.621 34.209 20.814Z" fill="#FFB600"/>
    <path d="m373.596 185.949 13.395 55.024c-15.193 3.697-30.513-5.621-34.21-20.814-3.696-15.193 5.622-30.513 20.815-34.21Z" fill="#FC8035"/>
    <path d="m383.32 173.769 2.912 11.978-23.955 5.824-2.912-11.978c-.683-2.76 1.013-5.57 3.799-6.254l13.876-3.393c2.811-.658 5.621 1.038 6.28 3.823Z" fill="#fff"/>
    <path d="m374.28 188.633-11.977 2.912-2.912-11.977c-.684-2.76 1.012-5.571 3.798-6.255l6.938-1.696 3.368 13.851.785 3.165Z" fill="#8AF3FF"/>
    <path d="M384.509 194.635c7.369 1.773 13.699 7.166 16.307 14.864M613.999 151.157l-13.142 34.716" stroke="#fff" stroke-width="2" stroke-miterlimit="10"/>
    <path d="M618.279 219.804c-5.546 14.61-21.904 21.979-36.514 16.433-14.636-5.545-21.979-21.903-16.434-36.513 5.546-14.636 21.878-22.005 36.514-16.459 14.61 5.57 21.979 21.903 16.434 36.539Z" fill="#FF5287"/>
    <path d="m601.845 183.29-20.08 52.973c-14.636-5.545-21.979-21.903-16.434-36.514 5.545-14.636 21.878-22.004 36.514-16.459Z" fill="#FF2E60"/>
    <path d="m616.734 178.732-4.355 11.522-23.043-8.736 4.356-11.522c1.013-2.659 4.001-4.026 6.685-3.013l13.37 5.064c2.658 1.013 4 4.026 2.987 6.685Z" fill="#fff"/>
    <path d="m600.858 185.873-11.522-4.355 4.356-11.522c1.013-2.659 4.001-4.026 6.685-3.013l6.685 2.532-5.039 13.319-1.165 3.039Z" fill="#8AF3FF"/>
    <path d="M605.921 196.609a22.78 22.78 0 0 1 5.039 21.498M862.86 150.348l8.786 36.083" stroke="#fff" stroke-width="2" stroke-miterlimit="10"/>
    <path d="M905.223 204.536c3.696 15.193-5.622 30.512-20.815 34.209-15.193 3.697-30.512-5.621-34.209-20.814-3.697-15.193 5.596-30.513 20.814-34.21 15.193-3.697 30.513 5.622 34.21 20.815Z" fill="#00AB91"/>
    <path d="m870.988 183.722 13.395 55.024c-15.193 3.697-30.513-5.622-34.21-20.815-3.697-15.193 5.622-30.512 20.815-34.209Z" fill="#008974"/>
    <path d="m880.711 171.542 2.912 11.977-23.954 5.824-2.912-11.977c-.684-2.76 1.013-5.571 3.798-6.254l13.877-3.393c2.81-.659 5.621 1.038 6.279 3.823Z" fill="#fff"/>
    <path d="m871.671 186.432-11.978 2.912-2.912-11.977c-.683-2.76 1.013-5.571 3.799-6.255l6.938-1.696 3.368 13.825.785 3.191Z" fill="#8AF3FF"/>
    <path d="M881.902 192.408c7.368 1.772 13.699 7.166 16.307 14.863M112.858 151.157l-13.167 34.716" stroke="#fff" stroke-width="2" stroke-miterlimit="10"/>
    <path d="M117.138 219.803c-5.546 14.611-21.903 21.979-36.514 16.434-14.636-5.546-21.979-21.903-16.434-36.514 5.546-14.636 21.878-22.004 36.514-16.459 14.611 5.571 21.979 21.903 16.434 36.539Z" fill="#8AF3FF"/>
    <path opacity=".5" d="m100.679 183.29-20.08 52.973c-14.636-5.546-21.979-21.903-16.433-36.514 5.545-14.636 21.877-22.005 36.513-16.459Z" fill="#00AB91"/>
    <path d="m115.594 178.731-4.356 11.522-23.042-8.736 4.355-11.522c1.013-2.658 4-4.026 6.685-3.013l13.37 5.064c2.633 1.013 4.001 4.026 2.988 6.685Z" fill="#fff"/>
    <path d="m99.692 185.872-11.521-4.355 4.355-11.522c1.013-2.658 4-4.026 6.685-3.013l6.685 2.532-5.039 13.319-1.165 3.039Z" fill="#8AF3FF"/>
    <path d="M104.756 196.609a22.782 22.782 0 0 1 5.039 21.498M771.119 5.38l-13.927 42.187" stroke="#fff" stroke-width="2" stroke-miterlimit="10"/>
    <path d="m774.385 35.386-3.925 11.85-23.726-7.824 3.925-11.85c.911-2.735 3.874-4.254 6.634-3.343l13.749 4.533c2.735.912 4.229 3.874 3.343 6.634Z" fill="#fff"/>
    <path d="m758.61 43.313-11.85-3.925 3.925-11.85c.911-2.736 3.874-4.255 6.634-3.343l6.862 2.279-4.533 13.699-1.038 3.14Z" fill="#8AF3FF"/>
    <path d="M763.446 142.219c-6.179 18.687-26.31 28.816-45.022 22.662l-1.064-.379c-17.396-6.331-27.094-25.297-22.08-43.123 2.887-10.179 9.85-18.029 18.561-22.308a6.167 6.167 0 0 0 2.76-8.382c-4.229-8.204-5.267-18.029-2.153-27.448 6.179-18.688 26.335-28.842 45.022-22.663l1.064.38c17.37 6.355 27.094 25.321 22.055 43.122-2.887 10.205-9.85 18.029-18.561 22.309a6.145 6.145 0 0 0-2.76 8.381c4.254 8.179 5.318 18.004 2.178 27.449Z" fill="#FFB600"/>
    <path d="M759.495 40.578 718.424 164.88l-1.064-.379c-17.396-6.331-27.094-25.297-22.08-43.123 2.887-10.179 9.85-18.029 18.561-22.308a6.167 6.167 0 0 0 2.76-8.382c-4.229-8.204-5.267-18.029-2.153-27.448 6.204-18.688 26.36-28.842 45.047-22.663Z" fill="#FC8035"/>
    <path d="M769.295 85.853c3.469-8.382 2.684-18.282-2.937-26.233M490.91 1l.253 44.414" stroke="#fff" stroke-width="2" stroke-miterlimit="10"/>
    <path d="m503.545 28.397.076 12.484-24.967.152-.076-12.484a5.22 5.22 0 0 1 5.216-5.267l14.484-.076a5.182 5.182 0 0 1 5.267 5.191Z" fill="#fff"/>
    <path d="m491.138 40.932-12.484.076-.076-12.484a5.22 5.22 0 0 1 5.216-5.267l7.242-.05.076 14.433.026 3.292Z" fill="#8AF3FF"/>
    <path d="M527.297 133.127c.101 19.675-15.75 35.729-35.425 35.83h-1.139c-18.511-.456-33.754-15.345-34.666-33.83-.531-10.584 3.571-20.206 10.483-27.069a6.197 6.197 0 0 0-.05-8.837c-6.609-6.431-10.737-15.395-10.813-25.347-.101-19.675 15.751-35.729 35.451-35.855h1.139c18.485.48 33.754 15.345 34.666 33.83a35.478 35.478 0 0 1-10.458 27.068 6.154 6.154 0 0 0 .05 8.838c6.584 6.457 10.711 15.42 10.762 25.372Z" fill="#00AB91"/>
    <path d="m491.138 38.045.735 130.912h-1.14c-18.51-.455-33.754-15.344-34.665-33.829-.532-10.585 3.57-20.207 10.483-27.069a6.198 6.198 0 0 0-.051-8.837c-6.609-6.432-10.736-15.396-10.812-25.347-.127-19.65 15.75-35.704 35.45-35.83Z" fill="#008974"/>
    <path d="M514.864 77.825c.608-9.04-3.292-18.207-11.141-23.93" stroke="#fff" stroke-width="2" stroke-miterlimit="10"/>
  </g>
</svg>