<svg xmlns="http://www.w3.org/2000/svg" viewBox="0 0 170 195" xml:space="preserve">
  <radialGradient id="a" cx="-447.281" cy="-8.95" r="1" gradientTransform="matrix(-55.8195 -1.5387 2.0467 -74.2486 -24853.713 -1376.532)" gradientUnits="userSpaceOnUse">
    <stop offset="0" style="stop-color:#dac8eb"/>
    <stop offset=".314" style="stop-color:#ccafeb"/>
    <stop offset=".751" style="stop-color:#bc91eb"/>
    <stop offset="1" style="stop-color:#b686eb"/>
  </radialGradient>
  <path fill="url(#a)" d="M117.9 152.1s-14.9 9.6-24 3.5c-9.1-6-34.4-55-31.7-87.5C65 35.7 68.9 4.4 87.7 8.5c17 3.7 53.8 50.9 52.2 80.9-1.7 29.9-13.4 54.4-22 62.7z"/>
  <linearGradient id="b" gradientUnits="userSpaceOnUse" x1="108.519" y1="678.876" x2="31.11" y2="694.585" gradientTransform="translate(0 -594)">
    <stop offset="0" style="stop-color:#dac8eb"/>
    <stop offset=".314" style="stop-color:#ccafeb"/>
    <stop offset=".751" style="stop-color:#bc91eb"/>
    <stop offset="1" style="stop-color:#b686eb"/>
  </linearGradient>
  <path fill="url(#b)" d="M116.4 162.9s-14.5 6.7-25.3 1.3-43.9-34.5-58.9-69.7C12.5 48 31.2 11 46.9 19s58.3 46.8 64.6 80.6 11.5 52.7 4.9 63.3z"/>
  <radialGradient id="c" cx="-448.339" cy="-8.189" r="1" gradientTransform="matrix(-50.4001 -2.1335 3.4332 -81.1025 -22491.688 -1568.82)" gradientUnits="userSpaceOnUse">
    <stop offset="0" style="stop-color:#dac8eb"/>
    <stop offset=".445" style="stop-color:#cbadeb"/>
    <stop offset="1" style="stop-color:#b686eb"/>
  </radialGradient>
  <path fill="url(#c)" d="M99.3 180.8c-9.1-2.8-24.6-10-33-17.1s-22-44.1-20.5-82.1c2.5-64.9 38.6-65.5 47.3-50.1 23.6 41.8 40.8 33.3 50 76.3 8.1 38.1-3.3 85.3-43.8 73z"/>
  <path opacity=".2" fill="#C497EB" d="M97.3 174.8c-1.6-11.8-4.9-23.4-8.2-34.9-3.4-11.5-7.1-22.8-10.1-34.1-3.1-11.3-5.5-22.6-6.7-34s-1.1-22.9-.3-34.6c-5.3 10.7-7.8 22.4-8.3 34.3-.4 11.9 1.4 24 4.6 35.7 3.2 11.7 7.7 23.2 12.6 34.4 5.1 11.1 10.4 22.2 16.4 33.2z"/>
  <radialGradient id="d" cx="-443.036" cy="-6.598" r="1" gradientTransform="matrix(-68.432 17.2728 -30.3321 -120.1711 -30414.738 6932.53)" gradientUnits="userSpaceOnUse">
    <stop offset="0" style="stop-color:#dac8eb"/>
    <stop offset=".291" style="stop-color:#d2b9eb"/>
    <stop offset=".849" style="stop-color:#bc92eb"/>
    <stop offset="1" style="stop-color:#b686eb"/>
  </radialGradient>
  <path fill="url(#d)" d="M96.1 55.8c-.3-32.2 18.1-42 28.6-30.5 25.6 28.1 38.7 61.3 39.8 96.1.9 29.7-25.4 67-58 63.8-11.6-1.2-9.4-24.4-10.4-129.4z"/>
  <path opacity=".2" fill="#C497EB" d="M123.6 40.8c3.8 11.3 7.5 22.3 10.3 33.4 2.8 11.1 4.9 22.2 5.6 33.4.8 11.1.3 22.3-1.9 33.3s-6.2 21.8-12.1 32.5c9.8-8.8 16.4-19.7 20.4-31.1 4-11.4 5.2-23.3 4.4-35.1s-3.7-23.4-8.2-34.6c-4.5-11.1-10.5-21.9-18.5-31.8z"/>
  <radialGradient id="e" cx="-445.751" cy="-4.032" r="1" gradientTransform="matrix(-76.0403 -9.5077 22.2167 -177.6835 -33740.55 -4879.81)" gradientUnits="userSpaceOnUse">
    <stop offset="0" style="stop-color:#dac8eb"/>
    <stop offset=".373" style="stop-color:#ceb2eb"/>
    <stop offset="1" style="stop-color:#b686eb"/>
  </radialGradient>
  <path fill="url(#e)" d="M49 43.9c-.2-22.5-21-17.5-25.9-5-7.9 20.4-28.2 47.8-4.2 94 29.5 56.6 70 56.5 85.4 52.8C137.1 178 49.7 146.1 49 43.9z"/>
  <path opacity=".2" fill="#C497EB" d="M26.1 44.5c-.4 11.5-.4 22.8.1 34.2s1.7 23 4.9 34.4c3.1 11.4 8.2 22.7 15.7 32.8 7.4 10.2 17 19.3 28.1 26.9-7.8-9.8-15-19.6-20.7-29.8s-9.8-20.8-12.8-31.6-4.9-22-6.9-33.3c-2.3-11.1-4.4-22.5-8.4-33.6z"/>
</svg>