<svg xmlns="http://www.w3.org/2000/svg" viewBox="0 0 141 183" xml:space="preserve">
  <radialGradient id="a" cx="-464.457" cy="15.99" r="1" gradientTransform="matrix(45.9874 -5.967 10.2793 79.222 21259.29 -4047.472)" gradientUnits="userSpaceOnUse">
    <stop offset="0" style="stop-color:#ffdde7"/>
    <stop offset=".13" style="stop-color:#fdd7e2"/>
    <stop offset=".305" style="stop-color:#f6c6d4"/>
    <stop offset=".507" style="stop-color:#eba9bd"/>
    <stop offset=".728" style="stop-color:#db829c"/>
    <stop offset=".963" style="stop-color:#c75073"/>
    <stop offset="1" style="stop-color:#c4476c"/>
  </radialGradient>
  <path fill="url(#a)" d="M53.6 146.2s11.9 7.7 17.5 1.6 17.2-52.5 11-81.9c-6.2-29.5-13-57.8-25.8-52.8-11.6 4.5-31.5 50-26.5 77.3 5.1 27.2 16.6 48.7 23.8 55.8z"/>
  <radialGradient id="b" cx="-462.288" cy="15.077" r="1" gradientTransform="matrix(47.043 2.3179 -3.9372 79.9084 21919.266 -122.316)" gradientUnits="userSpaceOnUse">
    <stop offset="0" style="stop-color:#ffdde7"/>
    <stop offset=".333" style="stop-color:#e7a0b5"/>
    <stop offset=".638" style="stop-color:#d4708e"/>
    <stop offset=".869" style="stop-color:#c85275"/>
    <stop offset="1" style="stop-color:#c4476c"/>
  </radialGradient>
  <path fill="url(#b)" d="M77.5 142s11.2 4.7 18.1-.5c6.9-5.1 35.9-36.7 35-67.7-.9-30.9-13.4-63.4-23.5-55.8-10 7.7-34.9 42.5-34.8 71 .2 28.5-.9 44.6 5.2 53z"/>
  <radialGradient id="c" cx="-461.673" cy="16.983" r="1" gradientTransform="matrix(36.5659 -3.0333 5.7194 68.947 16846.225 -2572.597)" gradientUnits="userSpaceOnUse">
    <stop offset="0" style="stop-color:#ffdde7"/>
    <stop offset=".218" style="stop-color:#edb0c2"/>
    <stop offset=".467" style="stop-color:#db839d"/>
    <stop offset=".689" style="stop-color:#cf6282"/>
    <stop offset=".874" style="stop-color:#c74e72"/>
    <stop offset="1" style="stop-color:#c4476c"/>
  </radialGradient>
  <path fill="url(#c)" d="M62.1 156.1s11.7 3.6 17.8-3 30-45.1 24.5-78.8C99 40.5 81.9 6.7 73.1 16.5 64.4 26.2 45 67.7 49.3 98.8c4.3 31.2 5.6 48.8 12.8 57.3z"/>
  <radialGradient id="d" cx="-466.119" cy="14.989" r="1" gradientTransform="matrix(59.1728 -7.5784 11.5925 90.5153 27461.766 -4884.971)" gradientUnits="userSpaceOnUse">
    <stop offset="0" style="stop-color:#ffdde7"/>
    <stop offset=".188" style="stop-color:#f2bccc"/>
    <stop offset=".573" style="stop-color:#d97d98"/>
    <stop offset=".854" style="stop-color:#ca5678"/>
    <stop offset="1" style="stop-color:#c4476c"/>
  </radialGradient>
  <path fill="url(#d)" d="M77.8 170.2s-16.8 2.1-24.1-4.4c-7.2-6.6-28.3-52.9-34.7-86.7-6.7-35.4 9.1-69.5 19.6-59.7 10.5 9.7 43.8 52.7 42.5 84s3.6 58.4-3.3 66.8z"/>
  <path opacity=".2" fill="#FFA8C0" d="M40.1 30.3c6.2 8.3 11.5 17.1 16.3 26.1s9.1 18.4 12.7 27.9c3.6 9.6 6.6 19.4 8.6 29.4 1.9 10 3 20.3 1.9 30.3-2.1-9.8-4.7-19.5-7.8-29-3-9.5-6.4-18.9-10-28.2-3.5-9.4-7.3-18.7-11-28-3.6-9.5-7.4-18.9-10.7-28.5z"/>
  <radialGradient id="e" cx="-465.512" cy="14.104" r="1" gradientTransform="matrix(50.2368 -8.0824 16.8808 104.9237 23211.133 -5231.715)" gradientUnits="userSpaceOnUse">
    <stop offset="0" style="stop-color:#ffdde7"/>
    <stop offset=".212" style="stop-color:#f4c2d1"/>
    <stop offset=".665" style="stop-color:#d97d99"/>
    <stop offset="1" style="stop-color:#c4476c"/>
  </radialGradient>
  <path fill="url(#e)" d="M83.8 170.6c6.1-3.1 11.4-13.4 16.5-20.5s11.3-39.2 10.4-74.1c-1.6-60.5-15-61.3-24.8-49.8-12 14.1-30.4 40-31.3 79.8-.8 35.5 2 78.5 29.2 64.6z"/>
  <radialGradient id="f" cx="-465.951" cy="13.512" r="1" gradientTransform="matrix(53.274 -8.8644 19.3691 116.4066 24598.6 -5632.126)" gradientUnits="userSpaceOnUse">
    <stop offset="0" style="stop-color:#ffdde7"/>
    <stop offset=".147" style="stop-color:#f9cedb"/>
    <stop offset=".43" style="stop-color:#eaa7ba"/>
    <stop offset=".817" style="stop-color:#d16787"/>
    <stop offset="1" style="stop-color:#c4476c"/>
  </radialGradient>
  <path fill="url(#f)" d="M19 29.4c-5.1-3.3-10.9-.2-11.3 5.9-1.4 21.6-2.4 68.1 12 100.6C31 161.3 67 182.5 80.8 171.2c6.4-5.1 6.7-98-61.8-141.8z"/>
  <path opacity=".2" fill="#FFA8C0" d="M19.2 50.2c1.7 10.6 3.3 20.9 5.6 31.1 2.2 10.2 5.1 20.2 8.7 30 3.6 9.7 8.1 19.1 13.6 28s12.2 17.1 20 24.7c-9.7-5.1-18.1-12.7-25-21.4-6.8-8.8-12.1-18.6-15.9-28.9S20 92.8 18.8 82.1c-1.2-10.7-1.2-21.4.4-31.9zm10.1 5.1c5 9 9 18.4 12.9 27.8 3.8 9.4 7.4 18.8 11.3 27.9 3.9 9.2 8.2 18.1 13.3 26.6 5.1 8.6 11 16.7 17.4 24.8-8.6-5.8-16.1-13.3-22.4-21.7s-11.4-17.6-15.4-27.1c-4.1-9.5-7.2-19.2-9.9-29-2.8-9.6-5.2-19.3-7.2-29.3z"/>
  <radialGradient id="g" cx="-463.944" cy="11.732" r="1" gradientTransform="matrix(67.9575 18.2651 -31.7487 118.1248 32005.805 7138.423)" gradientUnits="userSpaceOnUse">
    <stop offset="0" style="stop-color:#ffdde7"/>
    <stop offset=".133" style="stop-color:#fdd7e2"/>
    <stop offset=".305" style="stop-color:#f6c7d5"/>
    <stop offset=".5" style="stop-color:#ecacbf"/>
    <stop offset=".71" style="stop-color:#dd87a0"/>
    <stop offset=".932" style="stop-color:#ca5779"/>
    <stop offset="1" style="stop-color:#c4476c"/>
  </radialGradient>
  <path fill="url(#g)" d="M120.7 33.4c4.8-2.9 13.6.2 14.3 6.1 2.3 20.8.5 66.2-12 96.9-9.7 23.9-36.4 45-50.3 33.6-6.2-5.1-16.1-97.2 48-136.6z"/>
  <path opacity=".2" fill="#FFA8C0" d="M131.3 54.7c-.8 10.6-1.9 21-3.4 31.5-1.5 10.4-3.5 20.9-6.9 31.1s-8.2 19.9-14.6 28.5c-6.4 8.5-14.3 15.9-23.1 21.6 6.6-8.2 12.9-16.3 18-25.1 5.2-8.7 9.2-18 12.4-27.7 3.2-9.6 5.7-19.7 8.3-29.8 2.7-10.1 5.3-20.3 9.3-30.1zm-27.5.9c.6 9.5.9 18.9.9 28.4s-.5 19-2.2 28.5c-1.7 9.4-4.8 18.7-9.4 27.1-4.6 8.4-10.6 15.8-17.7 22 4.8-8.1 9.3-16 12.8-24.5 3.5-8.4 5.9-17.1 7.5-26.1 1.7-9 2.6-18.2 3.6-27.5 1.1-9.4 2.2-18.8 4.5-27.9z"/>
</svg>