<svg width="157" height="180" fill="none" xmlns="http://www.w3.org/2000/svg">
  <path d="M156.966 115.303c-1.334 27.135-37.478 48.509-80.85 47.674-43.373-.836-77.412-23.485-76.078-50.621 1.333-27.18 37.477-48.51 80.78-47.674 43.373.792 77.411 23.441 76.148 50.621Z" fill="#00AB91"/>
  <path d="m80.818 64.637-4.702 98.339C32.743 162.14-1.296 139.491.038 112.355c1.333-27.18 37.477-48.554 80.78-47.718Z" fill="#008974"/>
  <path d="m115.767 48.717-1.052 21.374-68.288-1.275 1.053-21.374c.21-4.97 6.808-8.884 14.809-8.708l39.582.747c7.931.132 14.177 4.31 13.896 9.236Z" fill="#fff"/>
  <path d="m80.605 69.476-34.11-.66 1.053-21.374c.211-4.97 6.808-8.884 14.81-8.708l19.79.352-1.192 24.716-.352 5.674Z" fill="#8AF3FF"/>
  <path d="M103.557 84.209c18.387 6.377 31.301 18.295 32.634 32.413" stroke="#fff" stroke-width="2" stroke-miterlimit="10"/>
  <path d="M84.479 36.075c-1.677 1.361-4.483 3.081-4.483 3.081s-1.632-4.477-2.392-7.372c-.808-3.072-1.553-7.883-1.553-7.883s-.83-4.378-.728-7.348l.002-.053c.088-2.537.146-4.212.925-6.573.654-1.982 1.088-3.156 2.286-4.685 1.187-1.512 2.088-2.111 3.649-2.918 1.743-.9 2.854-1.244 4.733-1.155 1.667.079 2.631.404 4.143 1.282 1.855 1.077 2.846 2.051 4.104 4.076.982 1.582 1.48 2.621 1.877 4.57.47 2.309.291 3.77-.087 6.113-.408 2.523-1 3.856-2.029 6.086-1.416 3.066-2.66 4.442-4.676 6.921-2.072 2.547-3.339 3.884-5.771 5.858Z" stroke="#fff" stroke-width="2"/>
</svg>