<svg width="157" height="180" fill="none" xmlns="http://www.w3.org/2000/svg">
  <path d="M98.263 47.694v17.718h-40.2V47.694c0-4.122 3.76-7.442 8.429-7.442h23.31c4.7-.029 8.46 3.32 8.46 7.442Z" fill="#fff"/>
  <path d="M78.196 65.412h-20.1V47.694c0-4.122 3.76-7.443 8.43-7.443h11.638v20.495l.032 4.666Z" fill="#8AF3FF"/>
  <path d="M91.325 165.536c-3.599 2.805-8.04 4.236-12.514 4.436-5.285.258-10.666-1.316-14.816-4.722C-32.843 86.62 1.652 42.655 34.655 42.97c32.258.286 42.956 20.065 44.156 22.555.097.172.13.258.13.258S89.38 43.514 123.809 43.83c32.971.372 66.364 45.024-32.484 121.707Z" fill="#FF5287"/>
  <path d="M78.195 65.526v104.418c-5.284.258-10.666-1.316-14.816-4.722C-33.458 86.593 1.036 42.627 34.04 42.942c32.258.315 42.924 20.123 44.156 22.584Z" fill="#FF2E60"/>
  <path d="M100.598 67.157c18.446-17.203 47.786-6.269 33.133 27.936" stroke="#fff" stroke-width="2" stroke-miterlimit="10"/>
  <path d="M83.479 36.075c-1.677 1.36-4.483 3.08-4.483 3.08s-1.632-4.477-2.392-7.371C75.796 28.71 75.05 23.9 75.05 23.9s-.83-4.378-.728-7.348l.002-.052c.088-2.538.146-4.212.925-6.574.654-1.981 1.088-3.156 2.287-4.684 1.186-1.513 2.087-2.112 3.648-2.918 1.744-.901 2.854-1.245 4.733-1.156 1.667.079 2.632.404 4.143 1.282 1.855 1.077 2.847 2.052 4.104 4.077.982 1.582 1.48 2.62 1.877 4.569.47 2.309.292 3.77-.087 6.113-.408 2.523-1 3.857-2.029 6.086-1.416 3.067-2.66 4.442-4.676 6.922-2.072 2.547-3.338 3.883-5.771 5.858Z" stroke="#fff" stroke-width="2"/>
</svg>