<svg width="183" height="199" fill="none" xmlns="http://www.w3.org/2000/svg">
  <path d="M90.693 165.8s15.172 1.334 22.28-6.989c7.105-8.341 33.943-54.74 24.009-89.784C127.07 33.98 102.295 1.3 92.029 13.635 81.785 25.966 60.92 74.63 69.214 107.124c8.292 32.493 11.523 51.195 21.479 58.676Z" fill="url(#a)"/>
  <path d="M76.345 162.694s15.737 5.778 22.35-1.964c6.612-7.741 17.114-59.975 6.546-90.275C94.676 40.171 83.43 11.276 67.654 19.322c-14.309 7.302-35.515 60.41-26.573 88.534 8.923 28.145 25.48 48.828 35.264 54.837Z" fill="url(#b)"/>
  <path d="M104.295 180.887s-21.167 5.878-30.934.393c-9.768-5.486-40.64-50.786-51.863-85.664C9.75 59.05 26.731 19.14 40.914 27.352c14.183 8.212 60.417 47.236 61.514 81.113 1.126 33.91 9.875 61.825 1.867 72.422Z" fill="url(#c)"/>
  <path d="M108.147 180.994c10.158-5.341 18.859-18.23 27.144-27.544 8.307-9.318 17.959-46.297 15.379-83.976-4.446-65.416-27.024-61.925-43.256-46.236-19.879 19.21-49.98 53.247-50.313 96.867-.29 38.724 5.706 84.693 51.046 60.889Z" fill="url(#d)"/>
  <path d="M17.777 41.476C12.53 38.942 7.194 43.099 7.381 49.53c.647 22.625 4.115 71.042 21.127 102.45 13.215 24.41 50.109 40.385 62.51 26.391 5.632-6.374-2.783-102.818-73.24-136.896Z" fill="url(#e)"/>
  <path opacity=".2" d="M13.864 55.33c3.57 12.567 7.031 24.89 11.325 36.89 4.249 12.006 9.173 23.699 15.098 34.847 5.947 11.145 12.876 21.767 21.134 31.501 8.218 9.761 17.833 18.489 28.854 26.24-13.04-4.271-24.826-11.973-34.694-21.275-9.898-9.352-17.937-20.387-24.17-32.173-6.256-11.782-10.773-24.322-13.722-37.117-2.901-12.786-4.374-25.858-3.825-38.913Z" fill="#FFA957"/>
  <path opacity=".2" d="M35.954 64.299c3.172 10.968 6.265 21.725 9.821 32.264 3.534 10.543 7.44 20.866 11.92 30.8 4.478 9.933 9.491 19.523 15.254 28.427a155.967 155.967 0 0 0 19.436 24.562c-8.155-4.64-15.837-12.095-22.538-20.767-6.689-8.731-12.426-18.73-17.132-29.223-4.71-10.511-8.456-21.522-11.266-32.632-2.79-11.134-4.758-22.365-5.495-33.431Z" fill="#FFA957"/>
  <path d="M141.017 26.406c5.788-4.166 17.31-2.674 18.663 3.54 4.782 21.814 6.645 70.963-6.409 106.567-10.148 27.672-41.003 54.726-70.69 48.569-9.724-2.016-19.385-102.757 58.436-158.676Z" fill="url(#f)"/>
  <path opacity=".2" d="M149.906 36.663c.972 12.225 1.539 24.338 1.635 36.615.004 12.275-.701 24.795-3.492 37.462a117.584 117.584 0 0 1-15.13 37.346c-7.448 11.94-17.138 23.077-28.627 32.784 7.819-11.615 15.1-23.053 20.606-34.799 5.603-11.707 9.473-23.598 12.096-35.631 2.644-12.038 4.131-24.216 5.751-36.55 1.695-12.292 3.448-24.783 7.161-37.227Z" fill="#FFA957"/>
  <path opacity=".2" d="M127.438 56.413c.799 10.19 1.285 20.27 1.364 30.5.01 10.225-.584 20.638-2.904 31.186a98.202 98.202 0 0 1-12.607 31.102c-6.209 9.941-14.273 19.214-23.847 27.303 6.504-9.658 12.574-19.196 17.154-28.964 4.652-9.744 7.892-19.656 10.072-29.67 2.202-10.018 3.429-20.173 4.797-30.43 1.413-10.266 2.871-20.671 5.971-31.027Z" fill="#FFA957"/>
  <defs>
    <radialGradient id="a" cx="0" cy="0" r="1" gradientUnits="userSpaceOnUse" gradientTransform="rotate(-13.469 63.14 -407.31) scale(60.5465 94.3528)">
      <stop stop-color="#FFD88C"/>
      <stop offset=".359" stop-color="#FFBA6D"/>
      <stop offset=".768" stop-color="#FF9E4F"/>
      <stop offset="1" stop-color="#FF9344"/>
    </radialGradient>
    <radialGradient id="b" cx="0" cy="0" r="1" gradientUnits="userSpaceOnUse" gradientTransform="matrix(49.56353 -13.8894 19.71178 70.34034 53.036 -9.731)">
      <stop stop-color="#FFD88C"/>
      <stop offset=".359" stop-color="#FFBA6D"/>
      <stop offset=".768" stop-color="#FF9E4F"/>
      <stop offset="1" stop-color="#FF9344"/>
    </radialGradient>
    <radialGradient id="c" cx="0" cy="0" r="1" gradientUnits="userSpaceOnUse" gradientTransform="matrix(74.40144 -20.73967 26.13628 93.76125 52.34 10.265)">
      <stop stop-color="#FFD88C"/>
      <stop offset=".486" stop-color="#FFB86B"/>
      <stop offset="1" stop-color="#FF9344"/>
    </radialGradient>
    <radialGradient id="d" cx="0" cy="0" r="1" gradientUnits="userSpaceOnUse" gradientTransform="matrix(84.39704 -24.86293 32.02367 108.70413 81.996 22.66)">
      <stop stop-color="#FFD88C"/>
      <stop offset=".411" stop-color="#FFBE71"/>
      <stop offset="1" stop-color="#FF9344"/>
    </radialGradient>
    <radialGradient id="e" cx="0" cy="0" r="1" gradientUnits="userSpaceOnUse" gradientTransform="rotate(-19.586 256.431 -73.156) scale(53.9277 120.731)">
      <stop stop-color="#FFD88C"/>
      <stop offset=".271" stop-color="#FFCA7D"/>
      <stop offset=".789" stop-color="#FFA456"/>
      <stop offset="1" stop-color="#FF9344"/>
    </radialGradient>
    <radialGradient id="f" cx="0" cy="0" r="1" gradientUnits="userSpaceOnUse" gradientTransform="rotate(3.342 -770.997 2055.688) scale(88.4087 135.594)">
      <stop stop-color="#FFD88C"/>
      <stop offset=".209" stop-color="#FFD386"/>
      <stop offset=".48" stop-color="#FFC376"/>
      <stop offset=".785" stop-color="#FFA95B"/>
      <stop offset="1" stop-color="#FF9344"/>
    </radialGradient>
  </defs>
</svg>