<svg width="158" height="180" fill="none" xmlns="http://www.w3.org/2000/svg">
  <path d="M110.866 144.119s-14.93 9.573-23.979 3.536c-9.05-6.017-34.43-54.994-31.65-87.482C58.016 27.685 61.874-3.592 80.663.471c17.02 3.692 53.838 50.91 52.184 80.86-1.677 29.948-13.345 54.427-21.981 62.788Z" fill="url(#a)"/>
  <path d="M109.442 154.922s-14.47 6.662-25.288 1.289c-10.795-5.391-43.939-34.481-58.938-69.723C5.464 40.012 24.16 2.952 39.87 11c15.71 8.048 58.295 46.827 64.611 80.605 6.316 33.778 11.484 52.669 4.961 63.316Z" fill="url(#b)"/>
  <path d="M92.33 172.798c-9.072-2.754-24.599-9.963-33.028-17.094-8.43-7.15-21.958-44.112-20.511-82.11C41.27 8.697 77.378 8.11 86.06 23.524c23.566 41.787 40.769 33.328 49.956 76.268 8.177 38.134-3.169 85.294-43.686 73.006Z" fill="url(#c)"/>
  <path opacity=".2" d="M90.331 166.8c-1.63-11.799-4.869-23.423-8.2-34.911-3.399-11.487-7.074-22.818-10.128-34.148-3.078-11.312-5.513-22.623-6.661-34.032-1.24-11.409-1.08-22.857-.322-34.598-5.26 10.705-7.832 22.427-8.268 34.305-.437 11.917 1.378 23.97 4.593 35.673 3.193 11.721 7.672 23.15 12.61 34.383 5.007 11.233 10.359 22.29 16.376 33.328Z" fill="#C497EB"/>
  <path d="M89.138 47.807c-.299-32.176 18.099-42.022 28.595-30.535 25.633 28.112 38.702 61.284 39.782 96.117.919 29.695-25.403 67.028-58.041 63.765-11.554-1.152-9.372-24.4-10.336-129.347Z" fill="url(#d)"/>
  <path opacity=".2" d="M116.631 32.783c3.789 11.253 7.533 22.271 10.312 33.387 2.849 11.097 4.87 22.232 5.628 33.387.758 11.136.321 22.291-1.907 33.309-2.159 11.038-6.201 21.841-12.104 32.488 9.785-8.791 16.422-19.712 20.396-31.081 3.951-11.409 5.214-23.346 4.364-35.107-.827-11.78-3.721-23.404-8.223-34.559-4.502-11.155-10.542-21.92-18.466-31.824Z" fill="#C497EB"/>
  <path d="M41.96 35.89c-.16-22.525-21.016-17.543-25.885-4.962-7.879 20.434-28.206 47.844-4.158 93.968 29.538 56.635 69.962 56.498 85.443 52.845 32.776-7.698-54.71-39.619-55.4-141.85Z" fill="url(#e)"/>
  <path opacity=".2" d="M19.06 36.476c-.367 11.487-.39 22.818.07 34.246.528 11.41 1.745 22.955 4.869 34.403 3.1 11.409 8.245 22.662 15.71 32.84 7.442 10.178 16.951 19.34 28.068 26.92-7.787-9.826-15.045-19.555-20.695-29.792-5.72-10.198-9.83-20.767-12.816-31.629-2.986-10.862-4.893-21.997-6.937-33.25-2.113-11.233-4.272-22.622-8.268-33.738Z" fill="#C497EB"/>
  <defs>
    <radialGradient id="a" cx="0" cy="0" r="1" gradientUnits="userSpaceOnUse" gradientTransform="rotate(-178.421 43.778 -16.503) scale(55.8407 74.2768)">
      <stop stop-color="#DAC8EB"/>
      <stop offset=".314" stop-color="#CCAFEB"/>
      <stop offset=".751" stop-color="#BC91EB"/>
      <stop offset="1" stop-color="#B686EB"/>
    </radialGradient>
    <radialGradient id="c" cx="0" cy="0" r="1" gradientUnits="userSpaceOnUse" gradientTransform="matrix(-50.40006 -2.13354 3.43323 -81.10246 69.499 43.88)">
      <stop stop-color="#DAC8EB"/>
      <stop offset=".445" stop-color="#CBADEB"/>
      <stop offset="1" stop-color="#B686EB"/>
    </radialGradient>
    <radialGradient id="d" cx="0" cy="0" r="1" gradientUnits="userSpaceOnUse" gradientTransform="matrix(-68.43197 17.27275 -30.3321 -120.17108 96.234 64.945)">
      <stop stop-color="#DAC8EB"/>
      <stop offset=".291" stop-color="#D2B9EB"/>
      <stop offset=".849" stop-color="#BC92EB"/>
      <stop offset="1" stop-color="#B686EB"/>
    </radialGradient>
    <radialGradient id="e" cx="0" cy="0" r="1" gradientUnits="userSpaceOnUse" gradientTransform="matrix(-76.0403 -9.50771 22.21668 -177.68345 57.934 66.73)">
      <stop stop-color="#DAC8EB"/>
      <stop offset=".373" stop-color="#CEB2EB"/>
      <stop offset="1" stop-color="#B686EB"/>
    </radialGradient>
    <linearGradient id="b" x1="102.096" y1="79.812" x2="24.706" y2="95.517" gradientUnits="userSpaceOnUse">
      <stop stop-color="#DAC8EB"/>
      <stop offset=".314" stop-color="#CCAFEB"/>
      <stop offset=".751" stop-color="#BC91EB"/>
      <stop offset="1" stop-color="#B686EB"/>
    </linearGradient>
  </defs>
</svg>