<svg width="222" height="222" fill="none" xmlns="http://www.w3.org/2000/svg">
  <path d="M96.632 174.184s11.852 7.728 17.5 1.639c5.633-6.101 17.238-52.478 10.993-81.93-6.234-29.465-13.057-57.747-25.861-52.775-11.609 4.5-31.545 50.027-26.454 77.26 5.112 27.206 16.617 48.764 23.822 55.806Z" fill="url(#a)"/>
  <path d="M120.488 170.015s11.171 4.657 18.115-.476c6.918-5.131 35.869-36.709 34.98-67.65-.889-30.94-13.414-63.423-23.458-55.769-10.045 7.655-34.922 42.487-34.788 70.964.129 28.451-.947 44.486 5.151 52.931Z" fill="url(#b)"/>
  <path d="M105.121 184.055s11.686 3.572 17.763-2.983c6.062-6.566 29.952-45.059 24.534-78.786-5.406-33.74-22.525-67.575-31.295-57.83-8.77 9.744-28.162 51.242-23.865 82.378 4.348 31.13 5.63 48.808 12.863 57.221Z" fill="url(#c)"/>
  <path d="M120.814 198.242s-16.828 2.133-24.062-4.422c-7.234-6.555-28.265-52.926-34.677-86.711-6.732-35.405 9.085-69.458 19.565-59.713 10.49 9.73 43.846 52.707 42.487 84.016-1.37 31.323 3.611 58.339-3.313 66.83Z" fill="url(#d)"/>
  <path opacity=".2" d="M83.059 58.251c6.201 8.282 11.495 17.08 16.348 26.092 4.806 9.042 9.102 18.355 12.734 27.93 3.643 9.56 6.621 19.383 8.618 29.401 1.942 9.997 3.004 20.267 1.929 30.282a309.002 309.002 0 0 0-7.819-29.028c-3.02-9.501-6.416-18.872-9.953-28.24-3.548-9.355-7.268-18.666-11.01-28.038-3.678-9.366-7.496-18.73-10.847-28.399Z" fill="#FFA8C0"/>
  <path d="M126.774 198.636c6.082-3.12 11.42-13.388 16.47-20.469 5.05-7.082 11.345-39.186 10.439-74.057-1.563-60.544-14.958-61.273-24.792-49.76-12.042 14.103-30.369 40.001-31.27 79.787-.812 35.36 1.991 78.401 29.153 64.499Z" fill="url(#e)"/>
  <path d="M62.028 57.385c-5.087-3.26-10.907-.181-11.314 5.945-1.405 21.58-2.356 68.076 12.049 100.637 11.19 25.321 47.21 46.494 61.076 35.237 6.32-5.105 6.638-97.993-61.811-141.82Z" fill="url(#f)"/>
  <path opacity=".2" d="M62.15 78.24c1.684 10.573 3.312 20.947 5.605 31.149 2.243 10.207 5.06 20.238 8.676 29.954 3.63 9.728 8.081 19.139 13.613 27.988 5.51 8.878 12.191 17.108 20.03 24.706-9.708-5.056-18.131-12.706-24.973-21.415-6.825-8.762-12.09-18.646-15.914-28.9-3.828-10.279-6.229-20.94-7.416-31.616-1.122-10.67-1.154-21.407.38-31.866ZM72.267 83.278c5.029 8.993 9.009 18.416 12.856 27.802 3.796 9.392 7.387 18.78 11.315 27.942 3.928 9.161 8.219 18.093 13.335 26.643 5.058 8.595 10.992 16.715 17.427 24.844-8.598-5.836-16.112-13.316-22.426-21.662-6.317-8.371-11.384-17.614-15.411-27.095-4.057-9.504-7.21-19.219-9.947-28.966-2.715-9.775-5.146-19.53-7.15-29.508Z" fill="#FFA8C0"/>
  <path d="M163.719 61.41c4.78-2.929 13.625.222 14.271 6.12 2.288 20.777.526 66.228-11.969 96.935-9.712 23.869-36.388 44.985-50.26 33.618-6.295-5.167-16.178-97.293 47.958-136.672Z" fill="url(#g)"/>
  <path opacity=".2" d="M174.339 82.708c-.844 10.614-1.924 21.024-3.353 31.497-1.486 10.428-3.488 20.924-6.881 31.099-3.358 10.157-8.235 19.918-14.64 28.455-6.43 8.54-14.255 15.893-23.103 21.637 6.627-8.166 12.888-16.306 18.001-25.087 5.172-8.735 9.188-18.009 12.416-27.669 3.242-9.65 5.697-19.685 8.291-29.812 2.584-10.113 5.279-20.34 9.269-30.12ZM146.784 83.558c.552 9.523.881 18.917.914 28.394-.02 9.457-.512 19.015-2.236 28.463-1.713 9.434-4.786 18.684-9.398 27.054-4.602 8.357-10.579 15.83-17.674 21.998 4.828-8.05 9.331-16.04 12.759-24.462 3.471-8.388 5.88-17.108 7.536-26.078 1.655-8.971 2.596-18.182 3.636-27.494 1.041-9.312 2.157-18.72 4.463-27.875Z" fill="#FFA8C0"/>
  <defs>
    <radialGradient id="a" cx="0" cy="0" r="1" gradientUnits="userSpaceOnUse" gradientTransform="rotate(-7.393 198.706 -822.378) scale(46.3729 79.8861)">
      <stop stop-color="#FFDDE7"/>
      <stop offset=".13" stop-color="#FDD7E2"/>
      <stop offset=".305" stop-color="#F6C6D4"/>
      <stop offset=".507" stop-color="#EBA9BD"/>
      <stop offset=".728" stop-color="#DB829C"/>
      <stop offset=".963" stop-color="#C75073"/>
      <stop offset="1" stop-color="#C4476C"/>
    </radialGradient>
    <radialGradient id="b" cx="0" cy="0" r="1" gradientUnits="userSpaceOnUse" gradientTransform="matrix(47.04303 2.31788 -3.9372 79.90836 155.465 38.927)">
      <stop stop-color="#FFDDE7"/>
      <stop offset=".333" stop-color="#E7A0B5"/>
      <stop offset=".638" stop-color="#D4708E"/>
      <stop offset=".869" stop-color="#C85275"/>
      <stop offset="1" stop-color="#C4476C"/>
    </radialGradient>
    <radialGradient id="c" cx="0" cy="0" r="1" gradientUnits="userSpaceOnUse" gradientTransform="rotate(-4.742 374.736 -1253.29) scale(36.6915 69.1838)">
      <stop stop-color="#FFDDE7"/>
      <stop offset=".218" stop-color="#EDB0C2"/>
      <stop offset=".467" stop-color="#DB839D"/>
      <stop offset=".689" stop-color="#CF6282"/>
      <stop offset=".874" stop-color="#C74E72"/>
      <stop offset="1" stop-color="#C4476C"/>
    </radialGradient>
    <radialGradient id="d" cx="0" cy="0" r="1" gradientUnits="userSpaceOnUse" gradientTransform="matrix(59.17279 -7.57836 11.59245 90.51529 96.972 32.152)">
      <stop stop-color="#FFDDE7"/>
      <stop offset=".188" stop-color="#F2BCCC"/>
      <stop offset=".573" stop-color="#D97D98"/>
      <stop offset=".854" stop-color="#CA5678"/>
      <stop offset="1" stop-color="#C4476C"/>
    </radialGradient>
    <radialGradient id="e" cx="0" cy="0" r="1" gradientUnits="userSpaceOnUse" gradientTransform="matrix(50.23678 -8.08243 16.88084 104.92372 106.395 38.562)">
      <stop stop-color="#FFDDE7"/>
      <stop offset=".212" stop-color="#F4C2D1"/>
      <stop offset=".665" stop-color="#D97D99"/>
      <stop offset="1" stop-color="#C4476C"/>
    </radialGradient>
    <radialGradient id="f" cx="0" cy="0" r="1" gradientUnits="userSpaceOnUse" gradientTransform="rotate(-9.447 639.93 -435.959) scale(54.0064 118.007)">
      <stop stop-color="#FFDDE7"/>
      <stop offset=".147" stop-color="#F9CEDB"/>
      <stop offset=".43" stop-color="#EAA7BA"/>
      <stop offset=".817" stop-color="#D16787"/>
      <stop offset="1" stop-color="#C4476C"/>
    </radialGradient>
    <radialGradient id="g" cx="0" cy="0" r="1" gradientUnits="userSpaceOnUse" gradientTransform="rotate(15.044 -222.524 599.07) scale(70.3693 122.317)">
      <stop stop-color="#FFDDE7"/>
      <stop offset=".133" stop-color="#FDD7E2"/>
      <stop offset=".305" stop-color="#F6C7D5"/>
      <stop offset=".5" stop-color="#ECACBF"/>
      <stop offset=".71" stop-color="#DD87A0"/>
      <stop offset=".932" stop-color="#CA5779"/>
      <stop offset="1" stop-color="#C4476C"/>
    </radialGradient>
  </defs>
</svg>