<svg width="469" height="427" fill="none" xmlns="http://www.w3.org/2000/svg">
  <g opacity=".3">
    <path d="M468.591 339.466c-1.996 49.596-91.484 90.937-199.641 86.575-108.158-4.362-194.03-52.665-192.033-102.261 1.996-49.595 91.296-86.261 199.453-81.899 108.158 4.362 194.217 47.99 192.221 97.585Z" fill="#342D3F"/>
    <path d="M370.5 239.344c-31.241-27.88-87.163-46.463-150.952-46.463S99.836 211.457 68.595 239.344H42.223c0 28.74 2.842 38.514 3.312 51.349 1.972 53.981 76.078 97.812 174.013 97.812 97.934 0 173.481-43.831 175.665-97.812.524-12.867 1.659-20.416 1.659-51.475l-26.372.126Z" fill="#C6640C"/>
    <path d="M290.46 301.383c-2.066 36.854 0 78.83 0 78.83 37.214-9.21 67.242-25.491 85.465-45.805 20.947-28.968 17.66-59.072 17.66-87.429 0 .008-101.199 19.931-103.125 54.404Z" fill="#A3490A"/>
    <path d="m191.673 387.284-3.789-51.154-18.442-60.214-110.115-20.988 3.742 77.929c8.72 10.329 20.43 19.656 34.584 27.589l.532-68.461 47.914 23.925 2.92 17.346-.963 46.737c13.613 3.453 28.227 5.928 43.617 7.291Z" fill="#DD8D19"/>
    <path d="M396.871 239.218c0 54.02-79.39 102.903-177.324 102.903-97.934 0-177.316-48.757-177.316-102.777s79.39-97.813 177.324-97.813c97.934 0 177.316 43.668 177.316 97.687Z" fill="url(#a)"/>
    <path opacity=".7" d="m121.488 247.105-41.449-68.14c-12.336 8.662-22.074 18.498-28.58 29.156l97.567 125.143c11.992 2.929 23.445 5.349 36.76 6.892l-64.298-93.051Z" fill="#FCFFAC"/>
    <path d="m169.786 187.822 7.538-4.886-24.525-34.239a267.535 267.535 0 0 0-13.698 3.454l30.685 35.671Z" fill="#FCFFAC"/>
    <path opacity=".7" d="m299.258 202.255 73.871 87.279c4.4-4.487 7.39-8.027 11.32-13.462L266.123 144.954a307.609 307.609 0 0 0-24.987-2.694l58.122 59.995Z" fill="#FCFFAC"/>
    <path d="M222.866 315.918c73.019 0 132.213-32.65 132.213-72.925s-59.194-72.925-132.213-72.925c-73.019 0-132.212 32.65-132.212 72.925s59.193 72.925 132.212 72.925Z" fill="#FCFFAC"/>
    <path d="M219.556 312.676c73.421 0 132.94-32.832 132.94-73.332 0-40.5-59.519-73.332-132.94-73.332-73.421 0-132.94 32.832-132.94 73.332 0 40.5 59.519 73.332 132.94 73.332Z" fill="#FBAA12"/>
    <path opacity=".3" d="M328.362 197.204c9.081 9.922 14.2 21.136 14.2 33.009 0 40.495-59.523 73.331-132.94 73.331-44.987 0-84.753-12.326-108.808-31.184 21.895 23.917 66.85 40.323 118.741 40.323 73.418 0 132.941-32.828 132.941-73.331 0-15.694-8.932-30.229-24.134-42.148Z" fill="#EA831C"/>
    <path opacity=".25" d="M47.71 215.137c16.619 30.072 67.312 51.953 127.273 51.953 73.472 0 133.035-32.852 133.035-73.379 0-17.816-11.515-34.152-30.662-46.862-18.114-3.446-37.558-5.318-57.801-5.318-82.787 0-152.314 31.294-171.845 73.606Z" fill="#FFFFEB"/>
    <path d="M234.749 240.26c23.366.994 82.983 5.842 43.539 29.195-41.331 24.465-53.449 2.373-57.911-15.984-4.462 18.357-16.579 40.449-57.91 15.984-39.445-23.353 20.172-28.201 43.538-29.195-23.366-.995-82.983-5.842-43.538-29.195 41.331-24.465 51.789-.164 56.251 18.192 4.462-18.356 18.231-42.665 59.562-18.192 39.452 23.345-20.157 28.2-43.531 29.195Z" fill="#C6640C"/>
    <path d="M233.098 238.428c23.366.994 82.983 5.842 43.538 29.195-41.331 24.464-53.448 2.372-57.91-15.984-4.462 18.356-16.58 40.448-57.911 15.984-39.444-23.353 20.173-28.201 43.539-29.195-23.366-.995-82.983-5.842-43.539-29.195 41.331-24.465 53.449-2.373 57.911 15.983 4.462-18.356 16.579-40.448 57.91-15.983 39.445 23.353-20.172 28.2-43.538 29.195Z" fill="#FCE13C"/>
    <path d="M190.82 239.273c-23.1 1.919-53.957 7.166-39.374 21.513-12.611-15.953 45.08-21.012 39.374-21.513ZM220.386 227.041c4.462-18.356 16.579-40.448 57.91-15.984 4.196 2.483 7.257 4.754 9.378 6.837-2.028-2.561-5.574-5.435-11.03-8.661-39.71-23.51-52.446-4.041-57.346 13.806a80.68 80.68 0 0 1 1.088 4.002ZM248.292 239.414c-5.072.423 31.492 3.72 40.517 11.442-4.532-6.829-24.11-9.985-40.517-11.442ZM162.475 211.065c25.299-14.974 39.648-12.507 48-4.127-8.062-9.781-22.599-13.713-49.66 2.302-14.082 8.34-15.53 14.316-10.52 18.599-2.732-4.119-.008-9.562 12.18-16.774Z" fill="#FCFFAC"/>
    <path opacity=".25" d="M273.247 243.173c-12.767-3.14-29.926-4.307-40.149-4.745 23.366-.995 82.983-5.842 43.538-29.195-41.331-24.465-53.448-2.373-57.91 15.983-4.462-18.356-16.58-40.448-57.911-15.983-39.444 23.353 20.173 28.2 43.539 29.195-23.014.979-81.175 5.701-45.269 28.145 5.214.345 10.513.517 15.891.517 13.73 0 26.975-1.151 39.437-3.281 1.964-3.877 3.327-8.113 4.313-12.17.861 3.54 2.004 7.213 3.585 10.666 19.624-4.119 37.026-10.729 50.936-19.132Z" fill="#FFFFEB"/>
    <path d="M89.926 242.085c0-40.496 59.523-73.332 132.941-73.332 45.112 0 84.979 12.397 109.011 31.348-23.578-20.486-65.073-34.089-112.322-34.089-73.418 0-132.94 32.829-132.94 73.332 0 15.615 8.845 30.087 23.929 41.983-13.057-11.347-20.619-24.809-20.619-39.242Z" fill="#CF7310"/>
    <path d="M105.934 261.404c0 35.319 37.605 65.798 91.938 79.918 7.108.533 14.341.807 21.684.807 97.934 0 177.324-48.883 177.324-102.903 0-13.532-4.979-26.415-13.988-38.122-29.206-17.221-70.772-27.981-116.894-27.981-88.4-.008-160.064 39.524-160.064 88.281Z" fill="#342D3F"/>
    <path d="M328.277 158.627c-31.241-27.879-87.163-46.463-150.953-46.463-63.789 0-119.711 18.576-150.952 46.463H0c0 28.741 2.842 38.514 3.311 51.35 1.973 53.981 76.08 97.812 174.013 97.812 97.935 0 173.481-43.831 175.665-97.812.525-12.867 1.652-20.416 1.652-51.475l-26.364.125Z" fill="#C6640C"/>
    <path d="M248.229 220.666c-2.059 36.854 0 78.83 0 78.83 37.213-9.21 67.241-25.491 85.464-45.805 20.947-28.968 17.66-59.071 17.66-87.428 0 0-101.191 19.93-103.124 54.403Z" fill="#A3490A"/>
    <path d="m149.449 306.567-3.788-51.153-18.443-60.215-110.114-20.988 3.742 77.929c8.72 10.329 20.43 19.657 34.583 27.59l.532-68.461 47.915 23.924 2.919 17.346-.962 46.737c13.612 3.454 28.219 5.929 43.616 7.291Z" fill="#DD8D19"/>
    <path d="M354.649 158.502c0 54.02-79.39 102.903-177.325 102.903C79.39 261.405 0 212.647 0 158.627s79.39-97.812 177.324-97.812c97.935 0 177.325 43.667 177.325 97.687Z" fill="url(#b)"/>
    <path opacity=".7" d="m79.257 166.388-41.449-68.14c-12.337 8.662-22.074 18.498-28.58 29.156l97.575 125.151c11.992 2.929 23.444 5.349 36.76 6.892l-64.306-93.059Z" fill="#FCFFAC"/>
    <path d="m127.562 107.105 7.538-4.886-24.524-34.239c-4.674 1.05-9.237 2.2-13.699 3.454l30.685 35.671Z" fill="#FCFFAC"/>
    <path opacity=".7" d="m257.035 121.538 73.871 87.28c4.4-4.488 7.39-8.027 11.32-13.462L223.892 64.237a308.199 308.199 0 0 0-24.979-2.694l58.122 59.995Z" fill="#FCFFAC"/>
    <path d="M180.635 235.201c73.019 0 132.213-32.649 132.213-72.924 0-40.276-59.194-72.925-132.213-72.925-73.019 0-132.212 32.649-132.212 72.925 0 40.275 59.193 72.924 132.212 72.924Z" fill="#FCFFAC"/>
    <path d="M177.324 231.959c73.421 0 132.941-32.832 132.941-73.332 0-40.5-59.52-73.332-132.941-73.332-73.421 0-132.94 32.832-132.94 73.332 0 40.5 59.519 73.332 132.94 73.332Z" fill="#FBAA12"/>
    <path opacity=".3" d="M286.132 116.479c9.08 9.923 14.199 21.137 14.199 33.009 0 40.496-59.523 73.332-132.94 73.332-44.987 0-84.752-12.326-108.807-31.184 21.894 23.917 66.85 40.323 118.74 40.323 73.418 0 132.941-32.828 132.941-73.332 0-15.686-8.924-30.221-24.133-42.148Z" fill="#EA831C"/>
    <path opacity=".25" d="M5.48 134.421c16.618 30.072 67.311 51.953 127.273 51.953 73.472 0 133.034-32.853 133.034-73.379 0-17.816-11.515-34.152-30.662-46.863-18.113-3.445-37.558-5.317-57.801-5.317-82.78 0-152.314 31.294-171.845 73.606Z" fill="#FFFFEB"/>
    <path d="M192.527 159.536c23.366.995 82.983 5.842 43.538 29.195-41.331 24.465-53.448 2.373-57.91-15.984-4.462 18.357-16.58 40.449-57.911 15.984-39.444-23.353 20.173-28.2 43.539-29.195-23.366-.995-82.983-5.842-43.539-29.195 41.331-24.465 51.789-.164 56.251 18.192 4.462-18.356 18.231-42.665 59.562-18.192 39.453 23.353-20.164 28.2-43.53 29.195Z" fill="#C6640C"/>
    <path d="M190.867 157.711c23.366.995 82.983 5.842 43.538 29.195-41.331 24.465-53.448 2.373-57.91-15.983-4.462 18.356-16.579 40.448-57.91 15.983-39.445-23.353 20.172-28.2 43.538-29.195-23.366-.994-82.983-5.842-43.538-29.195 41.331-24.464 53.448-2.372 57.91 15.984 4.462-18.356 16.579-40.448 57.91-15.984 39.445 23.353-20.164 28.201-43.538 29.195Z" fill="#FCE13C"/>
    <path d="M148.589 158.557c-23.1 1.918-53.957 7.165-39.374 21.512-12.603-15.952 45.08-21.011 39.374-21.512ZM178.155 146.324c4.462-18.356 16.579-40.448 57.91-15.983 4.196 2.482 7.257 4.753 9.378 6.837-2.027-2.561-5.573-5.435-11.029-8.662-39.711-23.509-52.447-4.041-57.347 13.807a72.746 72.746 0 0 1 1.088 4.001ZM206.068 158.698c-5.072.422 31.492 3.719 40.517 11.441-4.532-6.837-24.118-9.985-40.517-11.441ZM120.244 130.341c25.3-14.973 39.648-12.506 48-4.127-8.062-9.781-22.599-13.713-49.66 2.302-14.082 8.341-15.53 14.316-10.52 18.6-2.724-4.112 0-9.562 12.18-16.775Z" fill="#FCFFAC"/>
    <path opacity=".25" d="M231.016 162.457c-12.767-3.14-29.926-4.307-40.149-4.746 23.366-.994 82.983-5.842 43.538-29.195-41.331-24.464-53.448-2.372-57.91 15.984-4.462-18.356-16.579-40.448-57.91-15.984-39.445 23.353 20.172 28.201 43.538 29.195-23.014.979-81.175 5.701-45.268 28.146 5.213.344 10.512.517 15.89.517 13.73 0 26.975-1.151 39.437-3.282 1.965-3.876 3.327-8.113 4.313-12.169.861 3.539 2.004 7.212 3.585 10.666 19.632-4.119 37.034-10.729 50.936-19.132Z" fill="#FFFFEB"/>
    <path d="M47.695 161.368c0-40.495 59.523-73.332 132.941-73.332 45.111 0 84.979 12.397 109.01 31.349-23.577-20.487-65.073-34.09-112.322-34.09-73.417 0-132.94 32.829-132.94 73.332 0 15.616 8.845 30.088 23.93 41.984-13.057-11.348-20.619-24.81-20.619-39.243Z" fill="#CF7310"/>
    <path d="M350.289 180.414c-9.034-35.233-63.007-63.7-129.152-65.885-73.378-2.42-133.95 28.436-135.28 68.915-1.253 37.958 50.027 70.897 116.924 76.848 72.901-6.413 131.476-39.806 147.508-79.878Z" fill="#342D3F"/>
    <path d="M398.767 102.908c-30.302-28.898-85.582-49.306-149.34-51.405-63.75-2.098-120.26 14.63-152.393 41.467l-26.356-.87c-.947 28.726 1.573 38.585 1.62 51.428.196 54.02 72.815 100.264 170.694 103.49 97.88 3.227 174.828-38.099 178.788-91.97.948-12.843 2.325-20.353 3.351-51.388l-26.364-.752Z" fill="#C6640C"/>
    <path d="M316.722 162.276c-3.272 36.768-2.591 78.79-2.591 78.79 37.496-7.98 68.048-23.266 86.929-42.962 21.894-28.263 19.593-58.46 20.524-86.801 0 0-101.801 16.578-104.862 50.973Z" fill="#A3490A"/>
    <path d="m215.172 244.88-2.106-51.247-16.454-60.787-109.363-24.598 1.174 78.008c8.376 10.611 19.773 20.314 33.66 28.717l2.787-68.406 47.1 25.49 2.348 17.433-2.505 46.682c13.488 3.884 28.016 6.837 43.359 8.708Z" fill="#DD8D19"/>
    <path d="M425.13 103.652c-1.777 53.988-82.733 100.232-180.612 97.005-97.879-3.226-175.618-54.576-173.84-108.564C72.453 38.104 153.244-3.05 251.116.177c97.879 3.227 175.79 49.486 174.013 103.475Z" fill="url(#c)"/>
    <path opacity=".7" d="m149.629 102.461-39.186-69.463c-12.61 8.246-22.67 17.761-29.519 28.2l93.394 128.292c11.891 3.32 23.257 6.116 36.517 8.097l-61.206-95.126Z" fill="#FCFFAC"/>
    <path d="m199.853 44.807 7.695-4.636-23.382-35.029a266.358 266.358 0 0 0-13.809 3l29.496 36.665Z" fill="#FCFFAC"/>
    <path opacity=".7" d="m328.785 63.493 70.96 89.668c4.548-4.339 7.647-7.785 11.757-13.078L297.544 5.127a305.77 305.77 0 0 0-24.877-3.509l56.118 61.875Z" fill="#FCFFAC"/>
    <path d="M383.241 106.013c1.324-40.255-56.766-74.836-129.748-77.24-72.983-2.403-133.22 28.282-134.545 68.537-1.324 40.255 56.766 74.836 129.748 77.24 72.983 2.403 133.22-28.282 134.545-68.537Z" fill="#FCFFAC"/>
    <path d="M380.78 102.282c1.331-40.48-57.079-75.254-130.463-77.671-73.384-2.417-133.953 28.44-135.285 68.92-1.332 40.479 57.078 75.254 130.462 77.67 73.384 2.417 133.954-28.439 135.286-68.919Z" fill="#FBAA12"/>
    <path opacity=".3" d="M358.037 59.397c8.752 10.212 13.496 21.591 13.104 33.463-1.33 40.48-61.902 71.327-135.281 68.915-44.963-1.48-84.298-15.106-107.719-34.755 21.096 24.63 65.48 42.5 117.348 44.208 73.378 2.419 133.95-28.436 135.281-68.915.516-15.678-7.93-30.495-22.733-42.916Z" fill="#EA831C"/>
    <path opacity=".25" d="M76.94 68.082c15.616 30.605 65.565 54.146 125.495 56.119 73.434 2.42 134.045-28.45 135.375-68.962.587-17.808-10.379-34.512-29.104-47.849C290.71 3.35 271.344.843 251.117.178 168.376-2.548 97.855 26.436 76.939 68.082Z" fill="#FFFFEB"/>
    <path d="M118.255 96.4c1.331-40.48 61.903-71.327 135.281-68.915 45.088 1.488 84.525 15.185 107.922 34.92-22.888-21.255-63.914-36.212-111.139-37.77-73.379-2.42-133.951 28.435-135.281 68.914-.517 15.608 7.851 30.362 22.536 42.751-12.681-11.77-19.797-25.467-19.319-39.9Z" fill="#CF7310"/>
  </g>
  <defs>
    <radialGradient id="a" cx="0" cy="0" r="1" gradientUnits="userSpaceOnUse" gradientTransform="matrix(144.036 0 0 144.099 219.554 241.828)">
      <stop stop-color="#FBC01E"/>
      <stop offset=".461" stop-color="#FDC822"/>
      <stop offset="1" stop-color="#FCE13C"/>
    </radialGradient>
    <radialGradient id="b" cx="0" cy="0" r="1" gradientUnits="userSpaceOnUse" gradientTransform="matrix(144.036 0 0 144.099 177.328 161.111)">
      <stop stop-color="#FBC01E"/>
      <stop offset=".461" stop-color="#FDC822"/>
      <stop offset="1" stop-color="#FCE13C"/>
    </radialGradient>
    <radialGradient id="c" cx="0" cy="0" r="1" gradientUnits="userSpaceOnUse" gradientTransform="rotate(1.886 -2926.289 7577.683) scale(144.036 144.099)">
      <stop stop-color="#FBC01E"/>
      <stop offset=".461" stop-color="#FDC822"/>
      <stop offset="1" stop-color="#FCE13C"/>
    </radialGradient>
  </defs>
</svg>