<svg width="387" height="542" fill="none" xmlns="http://www.w3.org/2000/svg">
  <g opacity=".3">
    <path d="M228.007 209.757c-20.619-18.4-57.528-30.665-99.628-30.665-42.101 0-79.01 12.26-99.628 30.665H11.345c0 18.969 1.875 25.42 2.185 33.891 1.302 35.627 50.212 64.556 114.849 64.556 64.636 0 114.496-28.929 115.938-64.556.346-8.492 1.09-13.475 1.09-33.973l-17.4.082Z" fill="#C6640C"/>
    <path d="M175.175 250.703c-1.364 24.324 0 52.027 0 52.027 24.561-6.078 44.379-16.823 56.406-30.231 13.825-19.118 11.656-38.992 11.656-57.702 0 .005-66.791 13.154-68.062 35.906Z" fill="#A3490A"/>
    <path d="m109.981 307.397-2.501-33.761-12.172-39.741-72.675-13.852 2.47 51.433c5.755 6.817 13.484 12.973 22.825 18.209l.351-45.184 31.623 15.79 1.927 11.448-.635 30.847c8.979 2.279 18.625 3.917 28.787 4.811Z" fill="#DD8D19"/>
    <path d="M245.412 209.675c0 35.653-52.397 67.915-117.033 67.915-64.637 0-117.034-32.179-117.034-67.833 0-35.653 52.397-64.555 117.034-64.555 64.636 0 117.033 28.82 117.033 64.473Z" fill="url(#a)"/>
    <path opacity=".7" d="m63.655 214.885-27.356-44.972c-8.142 5.716-14.57 12.208-18.863 19.242L81.83 271.75c7.915 1.933 15.473 3.53 24.261 4.548l-42.436-61.413Z" fill="#FCFFAC"/>
    <path d="m95.531 175.758 4.975-3.225-16.186-22.597a175.643 175.643 0 0 0-9.04 2.279l20.251 23.543Z" fill="#FCFFAC"/>
    <path opacity=".7" d="m180.987 185.279 48.755 57.604c2.904-2.962 4.877-5.298 7.471-8.885l-78.1-86.543a203.19 203.19 0 0 0-16.491-1.778l38.365 39.602Z" fill="#FCFFAC"/>
    <path d="M130.564 260.301c48.192 0 87.259-21.548 87.259-48.13 0-26.581-39.067-48.13-87.259-48.13-48.193 0-87.26 21.549-87.26 48.13 0 26.582 39.067 48.13 87.26 48.13Z" fill="#FCFFAC"/>
    <path d="M128.379 258.156c48.458 0 87.74-21.669 87.74-48.398 0-26.73-39.282-48.399-87.74-48.399s-87.74 21.669-87.74 48.399c0 26.729 39.282 48.398 87.74 48.398Z" fill="#FBAA12"/>
    <path opacity=".3" d="M200.191 181.945c5.993 6.549 9.372 13.95 9.372 21.786 0 26.727-39.285 48.399-87.74 48.399-29.691 0-55.937-8.136-71.813-20.582 14.45 15.785 44.12 26.613 78.369 26.613 48.455 0 87.74-21.666 87.74-48.398 0-10.358-5.89-19.951-15.928-27.818Z" fill="#EA831C"/>
    <path opacity=".25" d="M14.961 193.781c10.969 19.848 44.426 34.289 84 34.289 48.492 0 87.803-21.682 87.803-48.43 0-11.759-7.6-22.54-20.237-30.929-11.955-2.274-24.788-3.509-38.148-3.509-54.635 0-100.527 20.653-113.418 48.579Z" fill="#FFFFEB"/>
    <path d="M138.412 210.362c15.422.657 54.769 3.856 28.735 19.269-27.278 16.146-35.276 1.566-38.22-10.549-2.945 12.115-10.943 26.695-38.221 10.549-26.034-15.413 13.314-18.612 28.735-19.269-15.421-.656-54.769-3.856-28.735-19.268 27.278-16.147 34.18-.109 37.125 12.006 2.945-12.115 12.033-28.158 39.311-12.006 26.039 15.407-13.308 18.612-28.73 19.268Z" fill="#C6640C"/>
    <path d="M137.317 209.158c15.421.657 54.768 3.856 28.735 19.269-27.279 16.146-35.276 1.566-38.221-10.549-2.945 12.115-10.942 26.695-38.22 10.549-26.034-15.413 13.313-18.612 28.735-19.269-15.422-.656-54.769-3.856-28.736-19.268 27.279-16.147 35.276-1.567 38.221 10.549 2.945-12.116 10.942-26.696 38.221-10.549 26.033 15.407-13.309 18.607-28.735 19.268Z" fill="#FCE13C"/>
    <path d="M109.413 209.711c-15.246 1.266-35.611 4.729-25.986 14.198-8.323-10.528 29.753-13.862 25.986-14.198ZM128.927 201.638c2.945-12.115 10.942-26.696 38.221-10.549 2.769 1.638 4.789 3.137 6.189 4.512-1.338-1.69-3.679-3.587-7.28-5.717-26.209-15.516-34.614-2.667-37.848 9.113.268.884.506 1.773.718 2.641ZM147.345 209.804c-3.348.28 20.784 2.456 26.741 7.552-2.991-4.507-15.912-6.59-26.741-7.552ZM90.706 191.094c16.698-9.882 26.167-8.254 31.68-2.724-5.321-6.455-14.915-9.05-32.775 1.52-9.295 5.504-10.25 9.448-6.944 12.275-1.803-2.719 0-6.311 8.039-11.071Z" fill="#FCFFAC"/>
    <path opacity=".25" d="M163.815 212.285c-8.426-2.072-19.751-2.842-26.498-3.132 15.421-.656 54.768-3.856 28.735-19.268-27.278-16.147-35.276-1.566-38.221 10.549-2.945-12.115-10.942-26.696-38.22-10.549-26.034 15.412 13.313 18.612 28.735 19.268-15.189.646-53.575 3.763-29.877 18.576 3.44.227 6.938.341 10.487.341 9.062 0 17.804-.76 26.028-2.165 1.297-2.559 2.196-5.355 2.847-8.032.568 2.336 1.323 4.76 2.366 7.039 12.958-2.718 24.442-7.081 33.618-12.627Z" fill="#FFFFEB"/>
    <path d="M42.824 211.567c0-26.727 39.285-48.399 87.74-48.399 29.774 0 56.086 8.182 71.947 20.69-15.561-13.521-42.948-22.499-74.132-22.499-48.455 0-87.74 21.667-87.74 48.399 0 10.306 5.838 19.857 15.793 27.708-8.617-7.489-13.608-16.374-13.608-25.899Z" fill="#CF7310"/>
    <path d="M242.535 224.142c-5.962-23.254-41.584-42.042-85.24-43.484-48.429-1.597-111.94 12.679-112.817 39.39-.827 25.052 56.551 52.88 100.697 56.808 48.12-4.233 86.774-26.267 97.36-52.714Z" fill="#342D3F"/>
    <path d="M238.944 165.524c-20.619-18.4-57.527-30.665-99.628-30.665-42.1 0-79.009 12.26-99.628 30.665H22.283c0 18.969 1.875 25.42 2.185 33.891 1.302 35.627 50.212 64.556 114.848 64.556s114.497-28.929 115.938-64.556c.347-8.492 1.096-13.475 1.096-33.973l-17.406.082Z" fill="#C6640C"/>
    <path d="M186.118 206.47c-1.359 24.324 0 52.028 0 52.028 24.561-6.079 44.379-16.824 56.407-30.232 13.83-19.118 11.655-38.986 11.655-57.702 0 0-66.791 13.149-68.062 35.906Z" fill="#A3490A"/>
    <path d="m120.919 263.165-2.501-33.762-12.172-39.741-72.675-13.852 2.47 51.433c5.755 6.817 13.484 12.973 22.824 18.209l.352-45.184 31.623 15.79 1.927 11.448-.635 30.847c8.984 2.279 18.624 3.912 28.787 4.812Z" fill="#DD8D19"/>
    <path d="M256.35 165.442c0 35.653-52.398 67.915-117.034 67.915S22.283 201.178 22.283 165.525c0-35.653 52.397-64.556 117.033-64.556s117.034 28.82 117.034 64.473Z" fill="url(#b)"/>
    <path opacity=".7" d="m74.591 170.647-27.355-44.972c-8.142 5.716-14.57 12.208-18.863 19.242l64.394 82.595c7.915 1.933 15.473 3.53 24.261 4.548l-42.437-61.413Z" fill="#FCFFAC"/>
    <path d="m106.473 131.52 4.975-3.225-16.186-22.597a176.711 176.711 0 0 0-9.041 2.279l20.252 23.543Z" fill="#FCFFAC"/>
    <path opacity=".7" d="m191.925 141.046 48.754 57.604c2.904-2.962 4.878-5.298 7.471-8.885l-78.1-86.543c-5.352-.801-10.86-1.4-16.491-1.778l38.366 39.602Z" fill="#FCFFAC"/>
    <path d="M141.507 216.063c48.192 0 87.26-21.548 87.26-48.13 0-26.581-39.068-48.13-87.26-48.13-48.192 0-87.26 21.549-87.26 48.13 0 26.582 39.068 48.13 87.26 48.13Z" fill="#FCFFAC"/>
    <path d="M139.321 213.923c48.458 0 87.74-21.668 87.74-48.398 0-26.73-39.282-48.399-87.74-48.399-48.457 0-87.74 21.669-87.74 48.399s39.283 48.398 87.74 48.398Z" fill="#FBAA12"/>
    <path opacity=".3" d="M211.134 137.707c5.993 6.549 9.371 13.95 9.371 21.786 0 26.727-39.285 48.399-87.74 48.399-29.691 0-55.936-8.136-71.812-20.582 14.45 15.785 44.12 26.613 78.368 26.613 48.456 0 87.741-21.666 87.741-48.398 0-10.353-5.895-19.946-15.928-27.818Z" fill="#EA831C"/>
    <path opacity=".25" d="M25.899 149.543c10.968 19.848 44.425 34.289 84 34.289 48.491 0 87.802-21.683 87.802-48.43 0-11.759-7.6-22.54-20.237-30.929-11.955-2.274-24.788-3.51-38.148-3.51-54.634.006-100.527 20.659-113.417 48.58Z" fill="#FFFFEB"/>
    <path d="M149.349 166.124c15.422.657 54.769 3.856 28.735 19.269-27.278 16.147-35.275 1.566-38.22-10.549-2.945 12.115-10.943 26.696-38.221 10.549-26.033-15.413 13.314-18.612 28.735-19.269-15.421-.656-54.768-3.855-28.735-19.268 27.278-16.147 34.181-.109 37.125 12.007 2.945-12.116 12.033-28.159 39.311-12.007 26.039 15.413-13.303 18.612-28.73 19.268Z" fill="#C6640C"/>
    <path d="M148.259 164.92c15.422.656 54.769 3.856 28.735 19.268-27.278 16.147-35.276 1.567-38.22-10.549-2.945 12.116-10.943 26.696-38.221 10.549-26.033-15.412 13.314-18.612 28.735-19.268-15.421-.656-54.768-3.856-28.735-19.269 27.278-16.146 35.276-1.566 38.221 10.55 2.944-12.116 10.942-26.696 38.22-10.55 26.034 15.413-13.313 18.613-28.735 19.269Z" fill="#FCE13C"/>
    <path d="M120.356 165.473c-15.246 1.266-35.612 4.729-25.987 14.198-8.323-10.523 29.748-13.862 25.987-14.198ZM139.869 157.405c2.945-12.115 10.943-26.696 38.221-10.549 2.769 1.638 4.789 3.137 6.189 4.512-1.338-1.69-3.678-3.587-7.279-5.717-26.209-15.516-34.615-2.667-37.849 9.113.264.883.501 1.767.718 2.641ZM158.287 165.571c-3.347.279 20.785 2.455 26.741 7.551-2.991-4.512-15.912-6.595-26.741-7.551ZM101.649 146.856c16.697-9.883 26.167-8.255 31.68-2.724-5.322-6.456-14.916-9.051-32.776 1.519-9.294 5.505-10.25 9.448-6.943 12.276-1.803-2.714-.005-6.311 8.039-11.071Z" fill="#FCFFAC"/>
    <path opacity=".25" d="M174.757 168.052c-8.426-2.072-19.751-2.843-26.498-3.132 15.422-.656 54.769-3.856 28.735-19.269-27.278-16.146-35.276-1.566-38.22 10.55-2.945-12.116-10.943-26.696-38.221-10.55-26.033 15.413 13.314 18.613 28.735 19.269-15.189.646-53.575 3.763-29.877 18.576 3.441.227 6.939.341 10.488.341 9.062 0 17.803-.76 26.028-2.166 1.297-2.558 2.196-5.354 2.847-8.032.568 2.337 1.322 4.761 2.366 7.04 12.952-2.719 24.437-7.081 33.617-12.627Z" fill="#FFFFEB"/>
    <path d="M53.766 167.328c0-26.727 39.285-48.399 87.741-48.399 29.773 0 56.086 8.182 71.946 20.69-15.561-13.521-42.948-22.499-74.132-22.499-48.455 0-87.74 21.667-87.74 48.399 0 10.306 5.838 19.858 15.793 27.709-8.617-7.484-13.608-16.369-13.608-25.9Z" fill="#CF7310"/>
    <path d="M22.287 165.524c0 23.311 66.863 57.987 102.723 67.306 4.691.351 9.465.532 14.311.532 64.636 0 117.034-32.262 117.034-67.915 0-8.931-3.286-17.434-9.233-25.161-19.275-11.366-46.709-18.467-77.149-18.467-58.344-.005-147.686 11.521-147.686 43.705Z" fill="#342D3F"/>
    <path d="M216.662 108.732c-20.619-18.4-57.528-30.665-99.628-30.665-42.101 0-79.01 12.26-99.629 30.665H0c0 18.969 1.875 25.419 2.185 33.89 1.302 35.628 50.212 64.556 114.849 64.556 64.636 0 114.496-28.928 115.938-64.556.346-8.492 1.09-13.474 1.09-33.973l-17.4.083Z" fill="#C6640C"/>
    <path d="M163.83 149.677c-1.364 24.324 0 52.028 0 52.028 24.561-6.079 44.379-16.824 56.406-30.232 13.826-19.118 11.656-38.986 11.656-57.702 0 0-66.786 13.154-68.062 35.906Z" fill="#A3490A"/>
    <path d="m98.636 206.372-2.5-33.762-12.172-39.741-72.676-13.852 2.47 51.433c5.755 6.817 13.484 12.973 22.825 18.209l.351-45.184 31.624 15.79 1.926 11.448-.635 30.847c8.98 2.279 18.625 3.912 28.787 4.812Z" fill="#DD8D19"/>
    <path d="M234.067 108.649c0 35.653-52.397 67.916-117.033 67.916C52.397 176.565 0 144.385 0 108.732s52.397-64.556 117.034-64.556c64.636 0 117.033 28.82 117.033 64.473Z" fill="url(#c)"/>
    <path opacity=".7" d="M52.31 113.854 24.952 68.882C16.811 74.598 10.384 81.09 6.091 88.124l64.393 82.595c7.915 1.933 15.474 3.53 24.262 4.548l-42.437-61.413Z" fill="#FCFFAC"/>
    <path d="m84.19 74.728 4.976-3.226L72.98 48.905a176.264 176.264 0 0 0-9.042 2.28l20.253 23.543Z" fill="#FCFFAC"/>
    <path opacity=".7" d="m169.642 84.253 48.755 57.604c2.903-2.961 4.877-5.298 7.471-8.885l-78.1-86.543c-5.353-.8-10.86-1.4-16.491-1.778l38.365 39.602Z" fill="#FCFFAC"/>
    <path d="M119.218 159.27c48.192 0 87.26-21.548 87.26-48.13 0-26.581-39.068-48.13-87.26-48.13-48.192 0-87.26 21.549-87.26 48.13 0 26.582 39.068 48.13 87.26 48.13Z" fill="#FCFFAC"/>
    <path d="M117.034 157.131c48.457 0 87.74-21.669 87.74-48.399s-39.283-48.399-87.74-48.399c-48.458 0-87.74 21.669-87.74 48.399s39.282 48.399 87.74 48.399Z" fill="#FBAA12"/>
    <path opacity=".3" d="M188.846 80.92c5.993 6.548 9.372 13.95 9.372 21.785 0 26.727-39.285 48.399-87.74 48.399-29.691 0-55.937-8.135-71.813-20.581 14.45 15.785 44.12 26.613 78.369 26.613 48.455 0 87.74-21.667 87.74-48.399 0-10.358-5.89-19.95-15.928-27.817Z" fill="#EA831C"/>
    <path opacity=".25" d="M3.616 92.756c10.969 19.847 44.426 34.288 84 34.288 48.492 0 87.802-21.682 87.802-48.43 0-11.758-7.599-22.54-20.236-30.929-11.955-2.274-24.788-3.51-38.149-3.51-54.634 0-100.526 20.655-113.417 48.58Z" fill="#FFFFEB"/>
    <path d="M127.067 109.336c15.421.657 54.768 3.856 28.735 19.269-27.278 16.147-35.276 1.566-38.221-10.549-2.944 12.115-10.942 26.696-38.22 10.549-26.034-15.413 13.313-18.612 28.735-19.269-15.422-.656-54.769-3.855-28.735-19.268 27.278-16.147 34.18-.109 37.125 12.007 2.945-12.116 12.033-28.159 39.311-12.007 26.038 15.408-13.309 18.607-28.73 19.268Z" fill="#C6640C"/>
    <path d="M125.971 108.128c15.422.656 54.769 3.855 28.736 19.268-27.279 16.147-35.276 1.566-38.221-10.549-2.945 12.115-10.942 26.696-38.22 10.549-26.034-15.413 13.313-18.612 28.734-19.268-15.421-.657-54.768-3.856-28.735-19.269 27.279-16.147 35.276-1.566 38.221 10.55 2.945-12.116 10.942-26.697 38.221-10.55 26.033 15.413-13.309 18.612-28.736 19.269Z" fill="#FCE13C"/>
    <path d="M98.068 108.685c-15.246 1.267-35.612 4.73-25.987 14.198-8.323-10.528 29.753-13.867 25.987-14.198ZM117.581 100.612c2.945-12.115 10.943-26.696 38.221-10.55 2.769 1.64 4.789 3.138 6.189 4.513-1.332-1.69-3.678-3.587-7.279-5.716-26.209-15.517-34.615-2.667-37.849 9.112.269.884.507 1.767.718 2.641ZM136.004 108.778c-3.348.279 20.784 2.455 26.741 7.552-2.991-4.507-15.917-6.59-26.741-7.552ZM79.36 90.063c16.698-9.882 26.168-8.254 31.681-2.724-5.321-6.456-14.915-9.05-32.775 1.52-9.295 5.504-10.25 9.448-6.944 12.275-1.798-2.713 0-6.306 8.039-11.071Z" fill="#FCFFAC"/>
    <path opacity=".25" d="M152.47 111.26c-8.427-2.073-19.751-2.843-26.499-3.132 15.422-.657 54.769-3.856 28.736-19.269-27.279-16.147-35.276-1.566-38.221 10.55-2.945-12.116-10.942-26.697-38.22-10.55-26.034 15.413 13.313 18.612 28.734 19.269-15.189.646-53.575 3.762-29.877 18.576 3.441.227 6.939.341 10.488.341 9.062 0 17.803-.76 26.028-2.166 1.297-2.558 2.196-5.355 2.847-8.032.568 2.336 1.322 4.76 2.366 7.04 12.957-2.719 24.442-7.081 33.618-12.627Z" fill="#FFFFEB"/>
    <path d="M31.479 110.541c0-26.727 39.285-48.399 87.74-48.399 29.774 0 56.086 8.182 71.947 20.69-15.561-13.521-42.948-22.499-74.132-22.499-48.456 0-87.74 21.667-87.74 48.399 0 10.306 5.837 19.858 15.793 27.709-8.618-7.49-13.608-16.374-13.608-25.9Z" fill="#CF7310"/>
    <path d="M231.189 123.111c-5.962-23.253-41.584-42.041-85.24-43.483-48.43-1.597-88.407 18.767-89.285 45.483-.826 25.053 33.018 46.792 77.17 50.72 48.114-4.233 86.774-26.267 97.355-52.72Z" fill="#342D3F"/>
    <path d="M257.595 64.556c-20.619-18.4-57.528-30.665-99.628-30.665-42.101 0-79.01 12.26-99.628 30.665H40.933c0 18.969 1.876 25.419 2.185 33.89 1.302 35.627 50.212 64.556 114.849 64.556 64.636 0 114.497-28.929 115.938-64.556.346-8.492 1.09-13.474 1.09-33.973l-17.4.083Z" fill="#C6640C"/>
    <path d="M204.763 105.502c-1.359 24.323 0 52.027 0 52.027 24.561-6.078 44.379-16.824 56.406-30.231 13.825-19.119 11.655-38.992 11.655-57.703 0 .006-66.785 13.154-68.061 35.907Z" fill="#A3490A"/>
    <path d="m139.569 162.201-2.501-33.761-12.171-39.742-72.676-13.852 2.47 51.433c5.755 6.818 13.484 12.973 22.825 18.209l.351-45.184 31.623 15.79 1.927 11.449-.635 30.846c8.984 2.274 18.625 3.913 28.787 4.812Z" fill="#DD8D19"/>
    <path d="M275 64.473c0 35.653-52.397 67.916-117.033 67.916-64.637 0-117.034-32.18-117.034-67.833S93.33 0 157.967 0C222.603 0 275 28.825 275 64.473Z" fill="url(#d)"/>
    <path opacity=".7" d="M93.242 69.683 65.887 24.71c-8.143 5.716-14.57 12.208-18.863 19.243l64.394 82.594c7.915 1.933 15.473 3.53 24.261 4.548L93.242 69.683Z" fill="#FCFFAC"/>
    <path d="m125.124 30.556 4.975-3.225-16.186-22.597a176.412 176.412 0 0 0-9.041 2.28l20.252 23.543Z" fill="#FCFFAC"/>
    <path opacity=".7" d="m210.575 40.082 48.755 57.604c2.904-2.961 4.877-5.297 7.471-8.884l-78.1-86.543C183.348 1.457 177.841.858 172.21.48l38.365 39.601Z" fill="#FCFFAC"/>
    <path d="M160.157 115.1c48.193 0 87.26-21.549 87.26-48.13 0-26.582-39.067-48.13-87.26-48.13-48.192 0-87.26 21.548-87.26 48.13 0 26.581 39.068 48.13 87.26 48.13Z" fill="#FCFFAC"/>
    <path d="M157.967 112.955c48.457 0 87.74-21.67 87.74-48.399 0-26.73-39.283-48.399-87.74-48.399-48.458 0-87.74 21.669-87.74 48.399s39.282 48.399 87.74 48.399Z" fill="#FBAA12"/>
    <path opacity=".3" d="M229.784 36.743c5.993 6.55 9.372 13.95 9.372 21.786 0 26.727-39.285 48.399-87.74 48.399-29.692 0-55.937-8.135-71.813-20.581 14.45 15.785 44.121 26.613 78.369 26.613 48.455 0 87.74-21.667 87.74-48.399 0-10.353-5.895-19.946-15.928-27.818Z" fill="#EA831C"/>
    <path opacity=".25" d="M44.55 48.58c10.968 19.847 44.425 34.288 84 34.288 48.491 0 87.802-21.682 87.802-48.43 0-11.758-7.6-22.54-20.237-30.929C184.16 1.235 171.327 0 157.967 0 103.332.005 57.44 20.654 44.55 48.58Z" fill="#FFFFEB"/>
    <path d="M72.412 66.365c0-26.727 39.285-48.399 87.74-48.399 29.774 0 56.086 8.182 71.947 20.69-15.561-13.521-42.948-22.499-74.132-22.499-48.455 0-87.74 21.667-87.74 48.399 0 10.306 5.838 19.858 15.793 27.709-8.617-7.49-13.608-16.37-13.608-25.9Z" fill="#CF7310"/>
    <path d="M363.123 408.235c-27.92-24.916-77.897-41.524-134.906-41.524-57.008 0-106.986 16.601-134.906 41.524H69.742c0 25.685 2.54 34.42 2.96 45.891 1.762 48.242 67.991 87.415 155.515 87.415 87.524 0 155.04-39.173 156.992-87.415.469-11.499 1.483-18.246 1.483-46.003l-23.569.112Z" fill="#C6640C"/>
    <path d="M291.585 463.679c-1.847 32.936 0 70.45 0 70.45 33.258-8.231 60.093-22.781 76.38-40.936 18.72-25.889 15.782-52.792 15.782-78.135 0 0-90.434 17.805-92.162 48.621Z" fill="#A3490A"/>
    <path d="m203.305 540.449-3.386-45.717-16.482-53.813-98.41-18.757 3.345 69.645c7.793 9.231 18.259 17.567 30.907 24.657l.476-61.184 42.821 21.381 2.609 15.503-.86 41.769c12.159 3.086 25.22 5.298 38.98 6.516Z" fill="#DD8D19"/>
    <path d="M386.692 408.122c0 48.278-70.951 91.965-158.475 91.965S69.742 456.512 69.742 408.234c0-48.277 70.951-87.415 158.475-87.415s158.475 39.026 158.475 87.303Z" fill="url(#e)"/>
    <path opacity=".7" d="m140.574 415.17-37.042-60.897c-11.026 7.741-19.728 16.532-25.542 26.057l87.195 111.841c10.718 2.617 20.953 4.78 32.852 6.159l-57.463-83.16Z" fill="#FCFFAC"/>
    <path d="m183.738 362.189 6.737-4.367-21.918-30.598a237.887 237.887 0 0 0-12.243 3.086l27.424 31.879Z" fill="#FCFFAC"/>
    <path opacity=".7" d="m299.455 375.088 66.019 78.002c3.932-4.01 6.604-7.174 10.116-12.031L269.835 323.871a275.342 275.342 0 0 0-22.323-2.408l51.943 53.625Z" fill="#FCFFAC"/>
    <path d="M231.176 476.669c65.257 0 118.159-29.179 118.159-65.173s-52.902-65.173-118.159-65.173-118.158 29.179-118.158 65.173 52.901 65.173 118.158 65.173Z" fill="#FCFFAC"/>
    <path d="M228.217 473.771c65.617 0 118.809-29.341 118.809-65.536s-53.192-65.537-118.809-65.537c-65.616 0-118.809 29.342-118.809 65.537 0 36.195 53.193 65.536 118.809 65.536Z" fill="#FBAA12"/>
    <path opacity=".3" d="M325.458 370.567c8.115 8.867 12.691 18.89 12.691 29.5 0 36.191-53.196 65.537-118.809 65.537-40.205 0-75.744-11.017-97.242-27.87 19.568 21.375 59.744 36.037 106.119 36.037 65.613 0 118.809-29.339 118.809-65.537 0-14.018-7.975-27.008-21.568-37.667Z" fill="#EA831C"/>
    <path opacity=".25" d="M74.639 386.594c14.852 26.876 60.157 46.43 113.744 46.43 65.662 0 118.893-29.36 118.893-65.579 0-15.922-10.291-30.521-27.402-41.88-16.188-3.08-33.566-4.753-51.657-4.753-73.98.007-136.124 27.975-153.578 65.782Z" fill="#FFFFEB"/>
    <path d="M241.803 409.046c20.882.889 74.162 5.221 38.91 26.092-36.937 21.864-47.767 2.12-51.755-14.285-3.987 16.405-14.817 36.149-51.754 14.285-35.252-20.871 18.028-25.203 38.91-26.092-20.882-.889-74.162-5.221-38.91-26.091 36.937-21.865 46.284-.147 50.271 16.258 3.988-16.405 16.294-38.13 53.231-16.258 35.259 20.87-18.021 25.202-38.903 26.091Z" fill="#C6640C"/>
    <path d="M240.32 407.416c20.882.888 74.162 5.221 38.91 26.091-36.938 21.864-47.767 2.121-51.755-14.284-3.987 16.405-14.817 36.148-51.754 14.284-35.252-20.87 18.028-25.203 38.91-26.091-20.882-.889-74.162-5.221-38.91-26.092 36.937-21.864 47.767-2.121 51.754 14.285 3.988-16.406 14.817-36.149 51.755-14.285 35.252 20.871-18.021 25.203-38.91 26.092Z" fill="#FCE13C"/>
    <path d="M202.536 408.164c-20.645 1.715-48.222 6.404-35.189 19.226-11.27-14.249 40.289-18.771 35.189-19.226ZM228.959 397.239c3.987-16.405 14.817-36.149 51.754-14.284 3.75 2.218 6.486 4.248 8.381 6.109-1.805-2.288-4.981-4.857-9.857-7.74-35.489-21.011-46.871-3.612-51.251 12.339.364 1.196.686 2.393.973 3.576ZM253.899 408.297c-4.533.378 28.144 3.325 36.21 10.226-4.051-6.11-21.547-8.931-36.21-10.226ZM177.204 382.955c22.61-13.382 35.434-11.177 42.898-3.689-7.206-8.741-20.197-12.255-44.381 2.058-12.585 7.454-13.88 12.794-9.402 16.622-2.442-3.674-.007-8.545 10.885-14.991Z" fill="#FCFFAC"/>
    <path opacity=".25" d="M276.201 411.657c-11.41-2.807-26.745-3.849-35.881-4.241 20.882-.889 74.162-5.221 38.91-26.092-36.938-21.864-47.767-2.121-51.755 14.285-3.987-16.406-14.817-36.149-51.754-14.285-35.252 20.871 18.028 25.203 38.91 26.092-20.567.874-72.546 5.095-40.456 25.153 4.659.308 9.395.462 14.201.462 12.271 0 24.108-1.029 35.245-2.932 1.756-3.465 2.973-7.251 3.854-10.876.77 3.163 1.791 6.446 3.204 9.532 17.546-3.681 33.097-9.588 45.522-17.098Z" fill="#FFFFEB"/>
    <path d="M112.367 410.677c0-36.191 53.196-65.537 118.81-65.537 40.316 0 75.946 11.079 97.423 28.016-21.072-18.308-58.156-30.465-100.383-30.465-65.613 0-118.809 29.339-118.809 65.536 0 13.956 7.905 26.89 21.386 37.521-11.669-10.141-18.427-22.165-18.427-35.071Z" fill="#CF7310"/>
    <path d="M126.681 427.95c0 31.565 33.607 58.804 82.165 71.423 6.352.476 12.816.721 19.378.721 87.524 0 158.475-43.687 158.475-91.965 0-12.094-4.449-23.607-12.501-34.07-26.101-15.39-63.249-25.007-104.468-25.007-79.01-.007-143.049 35.316-143.049 78.898Z" fill="#342D3F"/>
    <path d="M325.381 336.091c-27.92-24.916-77.897-41.524-134.906-41.524-57.008 0-106.986 16.601-134.906 41.524H32c0 25.685 2.54 34.42 2.96 45.891 1.762 48.243 67.991 87.415 155.515 87.415 87.524 0 155.04-39.172 156.992-87.415.469-11.499 1.476-18.246 1.476-46.003l-23.562.112Z" fill="#C6640C"/>
    <path d="M253.85 391.535c-1.84 32.937 0 70.45 0 70.45 33.258-8.23 60.094-22.781 76.38-40.936 18.72-25.888 15.782-52.799 15.782-78.134 0 .007-90.441 17.812-92.162 48.62Z" fill="#A3490A"/>
    <path d="m165.563 468.312-3.386-45.716-16.482-53.814-98.41-18.757 3.345 69.645c7.793 9.232 18.259 17.567 30.907 24.657l.476-61.184 42.821 21.382 2.609 15.502-.86 41.769c12.166 3.079 25.22 5.298 38.98 6.516Z" fill="#DD8D19"/>
    <path d="M348.95 335.979c0 48.277-70.951 91.964-158.475 91.964S32 384.368 32 336.091c0-48.278 70.951-87.415 158.475-87.415s158.475 39.032 158.475 87.303Z" fill="url(#f)"/>
    <path opacity=".7" d="M102.832 343.033 65.79 282.137c-11.026 7.741-19.728 16.531-25.542 26.056l87.195 111.841c10.718 2.618 20.953 4.78 32.853 6.159l-57.464-83.16Z" fill="#FCFFAC"/>
    <path d="m146.003 290.052 6.737-4.367-21.918-30.599a238.62 238.62 0 0 0-12.242 3.087l27.423 31.879Z" fill="#FCFFAC"/>
    <path opacity=".7" d="m261.713 302.951 66.019 78.002c3.932-4.01 6.604-7.174 10.116-12.031L232.093 251.734a274.783 274.783 0 0 0-22.33-2.407l51.95 53.624Z" fill="#FCFFAC"/>
    <path d="M193.441 404.532c65.258 0 118.159-29.179 118.159-65.173s-52.901-65.173-118.159-65.173c-65.257 0-118.158 29.179-118.158 65.173s52.901 65.173 118.158 65.173Z" fill="#FCFFAC"/>
    <path d="M190.482 401.628c65.617 0 118.809-29.342 118.809-65.537 0-36.195-53.192-65.537-118.809-65.537-65.616 0-118.809 29.342-118.809 65.537 0 36.195 53.193 65.537 118.809 65.537Z" fill="#FBAA12"/>
    <path opacity=".3" d="M287.723 298.43c8.116 8.868 12.691 18.89 12.691 29.5 0 36.191-53.196 65.537-118.809 65.537-40.205 0-75.743-11.016-97.241-27.869 19.567 21.374 59.743 36.036 106.118 36.036 65.614 0 118.809-29.338 118.809-65.536 0-14.026-7.982-27.016-21.568-37.668Z" fill="#EA831C"/>
    <path opacity=".25" d="M36.897 314.458c14.852 26.875 60.157 46.43 113.744 46.43 65.662 0 118.893-29.36 118.893-65.579 0-15.922-10.291-30.522-27.402-41.881-16.188-3.079-33.566-4.752-51.657-4.752-73.98.007-136.124 27.967-153.578 65.782Z" fill="#FFFFEB"/>
    <path d="M204.06 336.91c20.883.888 74.163 5.221 38.911 26.091-36.938 21.864-47.767 2.121-51.755-14.284-3.987 16.405-14.817 36.148-51.754 14.284-35.252-20.87 18.028-25.203 38.91-26.091-20.882-.889-74.162-5.222-38.91-26.092 36.937-21.864 46.284-.147 50.271 16.258 3.988-16.405 16.293-38.129 53.231-16.258 35.259 20.87-18.014 25.203-38.904 26.092Z" fill="#C6640C"/>
    <path d="M202.585 335.279c20.882.889 74.162 5.221 38.91 26.092-36.938 21.864-47.767 2.12-51.755-14.285-3.987 16.405-14.817 36.149-51.754 14.285-35.252-20.871 18.028-25.203 38.91-26.092-20.882-.889-74.162-5.221-38.91-26.091 36.937-21.865 47.767-2.121 51.754 14.284 3.988-16.405 14.817-36.149 51.755-14.284 35.252 20.863-18.028 25.202-38.91 26.091Z" fill="#FCE13C"/>
    <path d="M164.801 336.028c-20.645 1.715-48.222 6.404-35.189 19.226-11.27-14.25 40.282-18.771 35.189-19.226ZM191.223 325.096c3.988-16.405 14.817-36.149 51.755-14.285 3.75 2.219 6.485 4.248 8.381 6.11-1.812-2.288-4.981-4.857-9.857-7.74-35.49-21.011-46.872-3.612-51.251 12.338.357 1.204.679 2.401.972 3.577ZM216.164 336.154c-4.534.377 28.144 3.324 36.21 10.225-4.051-6.103-21.547-8.924-36.21-10.225ZM139.469 310.819c22.61-13.382 35.433-11.177 42.898-3.689-7.206-8.741-20.197-12.255-44.381 2.058-12.586 7.454-13.88 12.794-9.403 16.622-2.441-3.681-.007-8.545 10.886-14.991Z" fill="#FCFFAC"/>
    <path opacity=".25" d="M238.466 339.52c-11.41-2.806-26.745-3.849-35.881-4.241 20.882-.889 74.162-5.221 38.91-26.091-36.938-21.865-47.767-2.121-51.755 14.284-3.987-16.405-14.817-36.149-51.754-14.284-35.252 20.87 18.028 25.202 38.91 26.091-20.567.875-72.546 5.095-40.456 25.154 4.659.308 9.395.462 14.201.462 12.271 0 24.107-1.029 35.245-2.933 1.756-3.464 2.973-7.25 3.854-10.876.77 3.164 1.791 6.446 3.204 9.533 17.539-3.682 33.09-9.596 45.522-17.099Z" fill="#FFFFEB"/>
    <path d="M74.632 338.54c0-36.19 53.196-65.536 118.809-65.536 40.317 0 75.946 11.079 97.423 28.016-21.071-18.309-58.155-30.466-100.382-30.466-65.613 0-118.809 29.339-118.809 65.537 0 13.955 7.905 26.889 21.386 37.52-11.669-10.141-18.427-22.172-18.427-35.071Z" fill="#CF7310"/>
    <path d="M345.054 355.568c-8.074-31.487-56.309-56.928-115.424-58.881-65.578-2.162-119.711 25.413-120.9 61.59-1.12 33.923 44.709 63.36 104.495 68.679 65.152-5.739 117.501-35.575 131.829-71.388Z" fill="#342D3F"/>
    <path d="M343.487 262.456c-27.081-25.825-76.485-44.064-133.466-45.94-56.973-1.876-107.476 13.074-136.193 37.059l-23.555-.777c-.847 25.672 1.406 34.483 1.448 45.961.175 48.278 65.075 89.606 152.55 92.489 87.475 2.884 156.243-34.049 159.783-82.194.847-11.478 2.078-18.19 2.994-45.926l-23.561-.672Z" fill="#C6640C"/>
    <path d="M270.164 315.514c-2.924 32.86-2.316 70.415-2.316 70.415 33.51-7.132 60.815-20.793 77.688-38.395 19.567-25.259 17.511-52.246 18.343-77.575-.007 0-90.98 14.816-93.715 45.555Z" fill="#A3490A"/>
    <path d="m179.401 389.338-1.882-45.8-14.705-54.325-97.738-21.983 1.05 69.715c7.485 9.483 17.67 18.155 30.081 25.664l2.49-61.134 42.094 22.781 2.099 15.579-2.239 41.72c12.061 3.472 25.038 6.11 38.75 7.783Z" fill="#DD8D19"/>
    <path d="M367.048 263.121c-1.588 48.25-73.938 89.578-161.413 86.694-87.475-2.883-156.95-48.774-155.362-97.024 1.588-48.25 73.791-85.028 161.259-82.145 87.475 2.884 157.104 44.226 155.516 92.475Z" fill="url(#g)"/>
    <path opacity=".7" d="m120.832 262.057-35.02-62.079c-11.27 7.369-20.26 15.873-26.381 25.202l83.466 114.655c10.627 2.967 20.784 5.466 32.635 7.237l-54.7-85.015Z" fill="#FCFFAC"/>
    <path d="m165.717 210.532 6.877-4.143-20.896-31.306a238.072 238.072 0 0 0-12.341 2.681l26.36 32.768Z" fill="#FCFFAC"/>
    <path opacity=".7" d="m280.937 227.231 63.417 80.137c4.064-3.878 6.835-6.957 10.508-11.689L253.024 175.076a273.217 273.217 0 0 0-22.232-3.135l50.145 55.29Z" fill="#FCFFAC"/>
    <path d="M329.635 265.224c1.184-35.976-50.731-66.882-115.956-69.029-65.224-2.148-119.059 25.275-120.242 61.251-1.184 35.976 50.731 66.881 115.956 69.029 65.224 2.148 119.059-25.275 120.242-61.251Z" fill="#FCFFAC"/>
    <path d="M327.437 261.883c1.19-36.177-51.011-67.255-116.595-69.415-65.583-2.16-119.714 25.417-120.905 61.594-1.19 36.176 51.011 67.254 116.595 69.414 65.584 2.16 119.715-25.417 120.905-61.593Z" fill="#FBAA12"/>
    <path opacity=".3" d="M307.081 223.571c7.821 9.126 12.06 19.296 11.711 29.906-1.19 36.177-55.323 63.745-120.901 61.589-40.184-1.322-75.338-13.5-96.269-31.06 18.854 22.011 58.52 37.982 104.873 39.508 65.579 2.163 119.712-25.413 120.901-61.59.462-14.011-7.079-27.253-20.315-38.353Z" fill="#EA831C"/>
    <path opacity=".25" d="M55.87 231.332c13.956 27.352 58.596 48.39 112.156 50.154 65.627 2.162 119.795-25.427 120.984-61.632.525-15.915-9.276-30.843-26.01-42.762-16.083-3.612-33.391-5.851-51.468-6.446-73.945-2.436-136.97 23.467-155.663 60.686Z" fill="#FFFFEB"/>
    <path d="M92.786 256.64c1.19-36.177 55.323-63.745 120.901-61.589 40.296 1.33 75.54 13.571 96.451 31.208-20.456-18.995-57.121-32.363-99.326-33.756-65.578-2.162-119.712 25.413-120.901 61.59-.462 13.948 7.017 27.134 20.141 38.206-11.333-10.519-17.686-22.76-17.266-35.659Z" fill="#CF7310"/>
  </g>
  <defs>
    <radialGradient id="a" cx="0" cy="0" r="1" gradientUnits="userSpaceOnUse" gradientTransform="matrix(95.0635 0 0 95.1048 128.38 211.398)">
      <stop stop-color="#FBC01E"/>
      <stop offset=".461" stop-color="#FDC822"/>
      <stop offset="1" stop-color="#FCE13C"/>
    </radialGradient>
    <radialGradient id="b" cx="0" cy="0" r="1" gradientUnits="userSpaceOnUse" gradientTransform="matrix(95.0635 0 0 95.1048 139.32 167.162)">
      <stop stop-color="#FBC01E"/>
      <stop offset=".461" stop-color="#FDC822"/>
      <stop offset="1" stop-color="#FCE13C"/>
    </radialGradient>
    <radialGradient id="c" cx="0" cy="0" r="1" gradientUnits="userSpaceOnUse" gradientTransform="matrix(95.0635 0 0 95.1048 117.035 110.371)">
      <stop stop-color="#FBC01E"/>
      <stop offset=".461" stop-color="#FDC822"/>
      <stop offset="1" stop-color="#FCE13C"/>
    </radialGradient>
    <radialGradient id="d" cx="0" cy="0" r="1" gradientUnits="userSpaceOnUse" gradientTransform="matrix(95.0635 0 0 95.1048 157.969 66.198)">
      <stop stop-color="#FBC01E"/>
      <stop offset=".461" stop-color="#FDC822"/>
      <stop offset="1" stop-color="#FCE13C"/>
    </radialGradient>
    <radialGradient id="e" cx="0" cy="0" r="1" gradientUnits="userSpaceOnUse" gradientTransform="matrix(128.726 0 0 128.781 228.218 410.452)">
      <stop stop-color="#FBC01E"/>
      <stop offset=".461" stop-color="#FDC822"/>
      <stop offset="1" stop-color="#FCE13C"/>
    </radialGradient>
    <radialGradient id="f" cx="0" cy="0" r="1" gradientUnits="userSpaceOnUse" gradientTransform="matrix(128.726 0 0 128.781 190.48 338.314)">
      <stop stop-color="#FBC01E"/>
      <stop offset=".461" stop-color="#FDC822"/>
      <stop offset="1" stop-color="#FCE13C"/>
    </radialGradient>
    <radialGradient id="g" cx="0" cy="0" r="1" gradientUnits="userSpaceOnUse" gradientTransform="rotate(1.886 -7800.228 6465.795) scale(128.726 128.781)">
      <stop stop-color="#FBC01E"/>
      <stop offset=".461" stop-color="#FDC822"/>
      <stop offset="1" stop-color="#FCE13C"/>
    </radialGradient>
  </defs>
</svg>