<svg width="990" height="323" fill="none" xmlns="http://www.w3.org/2000/svg">
  <g filter="url(#a)">
    <g filter="url(#b)">
      <rect x="52" y="46.641" width="886" height="222" rx="50" fill="url(#c)"/>
      <rect x="59.5" y="54.141" width="871" height="207" rx="42.5" stroke="url(#d)" stroke-width="15"/>
    </g>
    <g opacity=".12">
      <mask id="e" style="mask-type:alpha" maskUnits="userSpaceOnUse" x="50" y="46" width="890" height="223">
        <rect x="50" y="46" width="890" height="223" rx="50" fill="#D9D9D9"/>
      </mask>
      <g mask="url(#e)">
        <path opacity=".25" d="M294.476 119.979c4.181 1.856 6.787 5.01 7.515 8.423.575 2.648 0 5.438-1.879 7.93l-16.416 21.648c-4.299 5.671-13.861 7.605-21.257 4.308l-70.167-31.303c-7.396-3.297-9.918-10.629-5.619-16.301l16.416-21.648a9.04 9.04 0 0 1 .796-.934h-.034c4.586-4.97 13.505-6.541 20.495-3.413l70.15 31.29ZM732.945 213.188h.744a60.29 60.29 0 0 1 2.167.065c4.332.169 8.529.61 12.524 1.272.033 0 .067.013.101.013 18.667 3.14 33.053 11.382 37.453 21.388l5.653-2.219 1.929-.753 16.603-6.528 1.438-.571c5.399-2.116 11.762 1.038 11.458 5.684l-1.862 28.41c-.304 4.659-7.057 7.306-12.168 4.776l-1.371-.675-15.655-7.761-8.123-4.024c-2.725 3.712-6.922 6.996-12.237 9.669.017-.013.034-.039.034-.052a54.901 54.901 0 0 1-6.854 2.907c-4.282 1.519-9.004 2.7-14.064 3.479a94.418 94.418 0 0 1-9.427.96c-2.995.156-6.075.182-9.223.065a83.882 83.882 0 0 1-4.857-.312 93.229 93.229 0 0 1-9.427-1.284c-5.061-.948-9.799-2.272-14.064-3.92-11.204-4.296-19.243-10.707-22.035-17.975l-8.649 3.388-2.115.83-16.603 6.528-1.438.571c-5.399 2.116-11.762-1.038-11.458-5.684l1.862-28.41c.305-4.659 7.057-7.306 12.168-4.775l1.371.674 15.655 7.761 10.527 5.218c3.588-6.035 10.983-11.084 20.732-14.419a70.722 70.722 0 0 1 4.755-1.415c.17-.039.339-.091.508-.13a84.3 84.3 0 0 1 2.776-.662c.338-.077.694-.155 1.049-.22a67.154 67.154 0 0 1 2.403-.467c.491-.091.965-.169 1.456-.247l1.117-.195c1.134-.168 2.284-.298 3.435-.428.203-.026.39-.039.593-.065l1.269-.117c.355-.026.711-.064 1.066-.09l1.016-.078c.558-.039 1.117-.065 1.692-.104.119 0 .237-.013.355-.026h.102c.491-.026.999-.039 1.489-.052.203 0 .406-.013.61-.026.44-.013.897-.013 1.354-.026.253 0 .507-.013.778-.013.474.052.931.052 1.388.065ZM946.646 157.278l-.761 2.089c-.119.312-.271.61-.423.909-.034.078-.085.143-.136.221a7.311 7.311 0 0 1-.558.791c0 .013-.017.026-.017.026-.22.26-.474.506-.728.753-.051.052-.118.104-.169.156-.271.22-.542.441-.829.636l-.017.013c-.322.207-.643.389-.999.571l-.152.077c-.711.338-1.473.61-2.268.792-.034.013-.085.013-.118.026a11.991 11.991 0 0 1-5.078.026l-59.353-12.68c-1.861-.402-3.435-1.207-4.603-2.258a7.297 7.297 0 0 1-1.438-1.752c-.847-1.466-1.084-3.167-.474-4.828l.761-2.076-17.618 3.478c-4.248.843-8.106-2.168-6.922-5.412l7.21-19.844c1.185-3.244 6.499-4.296 9.579-1.895l12.727 9.955.542-1.493c.135-.389.338-.753.541-1.103.119-.195.237-.376.389-.558 0 0 0-.013.017-.013.136-.182.288-.35.44-.519 0 0 0-.013.017-.013a8.08 8.08 0 0 1 .897-.844c.779-.61 1.693-1.103 2.691-1.479.034-.013.085-.026.119-.052.169-.065.355-.117.524-.169.085-.026.186-.052.271-.078.051-.013.102-.039.169-.052.102-.026.203-.039.322-.065l.355-.077.203-.039.254-.039c.136-.026.271-.039.406-.052l.423-.039c.153-.013.305-.026.457-.026.085 0 .17-.013.254-.013h.136c.169 0 .338 0 .507.013.119 0 .237 0 .373.013.186.013.389.026.575.052.102.013.203.013.305.026.288.039.592.091.88.155l29.668 6.334 29.668 6.333c1.557.338 2.894.948 3.977 1.752 1.083.805 1.895 1.804 2.369 2.894a5.521 5.521 0 0 1 .136 4.192l-.931 2.557 19.023-3.751c4.247-.843 8.106 2.168 6.922 5.412l-7.21 19.844c-1.185 3.245-6.499 4.296-9.579 1.895l-13.726-10.772ZM871.893 226.737c-2.86-1.22-3.909-4.023-2.319-6.217l6.093-8.397c.085-.129.186-.246.288-.363h-.017c.051-.052.118-.104.169-.156.119-.117.237-.233.373-.337.152-.117.287-.234.456-.338l.339-.22c.237-.13.474-.247.728-.351.067-.026.135-.065.203-.091a7.648 7.648 0 0 1 2.725-.493h.101a6.305 6.305 0 0 1 1.219.117c.287.052.575.117.846.208.101.026.203.065.321.104.119.039.254.077.373.129l27.231 11.616c1.624.688 2.657 1.882 2.961 3.193.237 1.012.051 2.089-.643 3.049l-6.092 8.397c-1.591 2.194-5.247 2.998-8.107 1.778l-27.248-11.628ZM877.342 307.54c-1.388-2.245-.136-4.958 2.792-6.022l50.096-18.247c-1.71-3.92-2.217-7.982-1.642-11.901a22.78 22.78 0 0 1 1.388-5.114v-.013a24.77 24.77 0 0 1 1.997-3.932c.118-.169.237-.338.355-.519.169-.26.356-.519.542-.779.203-.285.406-.571.626-.857.22-.285.457-.558.677-.83.22-.26.423-.519.66-.766.288-.324.592-.623.897-.934.271-.273.525-.532.795-.792.44-.402.88-.805 1.337-1.207.051-.039.102-.091.153-.13.44-.376.914-.726 1.388-1.09a36.519 36.519 0 0 1 1.557-1.09c.135-.091.287-.182.423-.273.423-.272.863-.532 1.303-.791.152-.091.287-.182.44-.26.084-.052.186-.104.271-.156.49-.272.981-.532 1.489-.778.051-.026.118-.052.186-.091a30.04 30.04 0 0 1 1.676-.779l.457-.194a33.564 33.564 0 0 1 1.946-.766c.017 0 .034-.013.034-.013.406-.143.795-.286 1.201-.415.034-.013.085-.026.119-.039.287-.091.575-.182.88-.273.287-.091.575-.169.863-.26.22-.064.44-.116.66-.181.338-.091.694-.182 1.032-.26.203-.052.406-.104.61-.143.355-.077.727-.155 1.1-.233l.558-.117c.034 0 .051-.013.085-.013.152-.026.304-.052.474-.078.423-.078.863-.143 1.286-.207.22-.026.44-.052.66-.091.389-.052.778-.104 1.168-.143.22-.026.44-.039.677-.065.406-.039.812-.065 1.218-.091.169-.013.322-.013.491-.026.508-.026 1.015-.052 1.523-.052h.136c.473-.013.964-.013 1.438-.013h.288c.44.013.897.013 1.337.039.084 0 .152.013.237.013 1.692.091 3.385.26 5.043.532l.237.039c.575.091 1.134.195 1.692.312.187.039.39.078.576.13.44.09.88.194 1.303.311.254.065.491.117.728.182.321.091.66.181.981.285.271.078.542.143.813.234.355.117.694.233 1.049.363.22.078.457.156.677.234.288.104.558.208.846.324.322.13.643.247.965.377.237.104.474.207.728.311l1.117.506c.186.091.355.169.541.26a37.93 37.93 0 0 1 3.351 1.856c.017.013.051.026.068.052.508.324.998.649 1.489.986.119.091.237.169.356.26.406.285.795.584 1.184.895l.356.273c.457.376.914.752 1.354 1.155a.192.192 0 0 1 .05.052c.457.428.914.856 1.354 1.31.085.078.153.169.237.247.339.363.677.727.999 1.103.101.117.203.247.304.377.305.363.593.739.88 1.129.085.103.153.207.237.311.356.493.694.999 1.016 1.519.355.584.677 1.168.981 1.765.068.129.136.272.203.402.237.467.441.947.644 1.415.067.142.118.285.186.428.22.584.439 1.168.609 1.765v.013c.19.597.32 1.207.46 1.804.03.156.06.324.08.48.09.441.15.883.2 1.324.02.181.06.363.07.558.05.493.07.986.09 1.479 0 .104.01.208.01.312 0 .584-.01 1.155-.05 1.739-.01.182-.03.363-.05.545-.03.415-.08.831-.15 1.246-.02.104-.02.221-.03.324-.02.104-.05.208-.07.312-.05.272-.12.545-.17.818-.05.259-.12.519-.19.778-.05.221-.12.441-.18.662-.09.299-.17.597-.27.896-.04.103-.09.207-.12.311a23.893 23.893 0 0 1-1.136 2.661c-.186.363-.389.726-.593 1.09a.39.39 0 0 1-.067.117 26.18 26.18 0 0 1-3.504 4.776 31.616 31.616 0 0 1-4.129 3.763 36.81 36.81 0 0 1-6.042 3.712 40.03 40.03 0 0 1-4.045 1.713c-.508.182-1.015.364-1.54.532a44.471 44.471 0 0 1-7.937 1.778 47.866 47.866 0 0 1-7.328.39 46.247 46.247 0 0 1-10.866-1.558c-3.943-1.051-7.632-2.621-10.916-4.646-2.268-1.415-4.349-3.05-6.16-4.88l-50.519 18.403c-2.961 1.026-6.498.065-7.886-2.18ZM894.248 72.802c.051.078.085.168.135.26-9.68-2.947-18.498-7.67-25.555-13.978.017-.052.017-.117.034-.169-2.573-2.297-4.925-4.789-6.973-7.489-4.248-5.567-6.922-11.511-8.157-17.52 0 .013-.017.013-.017.013-.085-.441-.169-.87-.237-1.31-.017-.079-.034-.144-.034-.222a60.076 60.076 0 0 1-.237-1.726c-1.642-13.614 4.011-27.306 15.79-37.74l.017-.013c.643-.558 1.286-1.116 1.963-1.662.051-.038.102-.077.136-.116.643-.506 1.286-1.013 1.963-1.506.101-.078.22-.155.322-.233a87.784 87.784 0 0 1 1.895-1.337c.186-.117.372-.234.559-.364.592-.389 1.184-.778 1.793-1.155l.864-.506c.541-.324 1.083-.636 1.624-.947.423-.234.863-.454 1.303-.688.44-.234.881-.467 1.337-.7.796-.39 1.608-.78 2.421-1.156.118-.052.22-.104.338-.156 10.798-4.828 22.628-7.047 34.271-6.891 22.222.298 43.715 9.227 55.748 25.022a48.777 48.777 0 0 1 1.574 2.193c.136.208.271.416.39.61a42.83 42.83 0 0 1 1.015 1.597c.152.26.305.532.457.804.271.48.542.96.795 1.44.153.286.305.585.44.883.237.468.457.922.66 1.389.136.298.271.61.407.908.203.455.389.922.558 1.39.119.31.237.622.339.934.169.467.321.934.474 1.388.101.312.203.61.287.922.136.48.271.96.389 1.427.068.299.153.597.22.896.119.506.221 1.025.305 1.531.051.26.102.532.152.792.102.623.187 1.233.254 1.856.017.155.051.324.068.48.085.779.135 1.557.169 2.336 0 .195 0 .39.017.584v.052c.017.441.017.883.017 1.324v.597c-.101 5.295-1.286 10.538-3.486 15.535a.588.588 0 0 0-.136.052c-.017.039-.034.09-.067.13-.153.324-.288.635-.44.96-.254.506-.508 1.012-.779 1.505-.254.468-.508.935-.778 1.389-.254.428-.491.856-.762 1.285-.203.337-.44.662-.66 1-.237.35-.457.713-.711 1.063-.237.338-.491.688-.745 1.026-.236.337-.49.662-.744.999l-.813 1.012c-.253.325-.524.636-.795.948-.288.337-.592.675-.88.999-.271.311-.559.61-.846.908-.322.325-.626.662-.948.987a24.58 24.58 0 0 1-.897.87c-.338.324-.677.648-1.032.96-.305.285-.627.558-.948.83-.355.312-.728.636-1.1.935-.322.272-.66.532-.982.791-.389.312-.761.61-1.167.909-.339.246-.677.493-1.016.727a61.083 61.083 0 0 1-2.759 1.882c-.253.155-.49.324-.744.493l-.508.311c.102.013.22.026.322.04a69.62 69.62 0 0 1-8.226 4.347c-6.685 2.998-13.776 4.97-20.968 6.009-.102-.052-.204-.117-.305-.169-12.321 1.765-24.946.727-36.37-2.777ZM508.108 107.467l7.21-19.843c1.185-3.245 6.499-4.296 9.579-1.895l12.727 9.954.542-1.492c.135-.39.338-.753.541-1.103.119-.195.237-.377.389-.559 0 0 0-.013.017-.013.136-.181.288-.35.44-.519 0 0 0-.013.017-.013.931-.999 2.167-1.79 3.588-2.323.034-.013.085-.026.119-.052.169-.065.355-.116.524-.168.085-.026.187-.052.271-.078.153-.04.322-.078.474-.117l.355-.078c.153-.026.288-.052.44-.078.136-.026.271-.039.424-.052l.423-.039c.152-.013.304-.026.457-.026.135 0 .27-.013.406-.013.169 0 .338 0 .508.013.118 0 .236 0 .372.013.186.013.389.026.575.052.102.013.203.013.305.026.288.04.592.091.88.156l59.353 12.68c4.959 1.064 7.886 5.035 6.499 8.838l-.931 2.557 19.023-3.751c4.247-.844 8.106 2.167 6.921 5.412l-7.209 19.844c-1.185 3.244-6.499 4.295-9.579 1.894l-13.743-10.746-.761 2.09c-.119.311-.271.61-.423.908-.034.078-.085.143-.136.221a7.323 7.323 0 0 1-.558.792c-.017.013-.017.026-.017.026-.22.259-.474.506-.728.752-.051.052-.118.104-.169.156a11.99 11.99 0 0 1-.829.636l-.017.013a8.709 8.709 0 0 1-.999.571l-.152.078c-.711.337-1.473.61-2.268.792-.034.013-.085.013-.118.026a12.02 12.02 0 0 1-5.078.026l-29.668-6.334-29.668-6.333c-4.332-.922-7.125-4.088-6.82-7.411a5.4 5.4 0 0 1 .322-1.427l.761-2.077-17.618 3.478c-4.299.792-8.157-2.206-6.973-5.464ZM227.017 43.992l7.209-19.844c1.185-3.245 6.499-4.296 9.579-1.895l12.727 9.954.542-1.492c.135-.39.338-.753.541-1.103.119-.195.237-.377.39-.558 0 0 0-.013.017-.013.135-.182.287-.35.44-.52 0 0 0-.012.017-.012.27-.299.575-.585.897-.844.423-.337.88-.636 1.37-.895.424-.221.864-.416 1.321-.585.033-.013.084-.025.118-.051.051-.013.085-.04.118-.052l.407-.117c.084-.026.186-.052.27-.078.153-.039.322-.078.474-.117l.356-.078.203-.039.254-.039a4.01 4.01 0 0 1 .423-.052l.423-.038c.152-.013.304-.026.457-.026.084 0 .169-.013.254-.013h.135c.169 0 .339 0 .508.013.118 0 .237 0 .372.013.186.012.389.026.576.052.101.013.203.013.304.025.288.04.592.091.88.156l12.93 2.765 46.423 9.915c1.557.337 2.894.947 3.977 1.752 1.083.805 1.896 1.804 2.37 2.894.575 1.31.66 2.764.152 4.192l-.931 2.557 19.023-3.75c4.248-.845 8.106 2.166 6.922 5.411l-7.21 19.844c-1.185 3.244-6.499 4.296-9.579 1.895l-13.742-10.746-.762 2.09c-.118.31-.271.61-.423.908-.034.077-.085.142-.135.22a7.48 7.48 0 0 1-.559.792c-.017.013-.017.026-.017.026-.22.26-.474.506-.728.753-.05.052-.118.103-.169.155-.271.22-.541.442-.829.636l-.017.013a11.17 11.17 0 0 1-1.151.65c-.711.337-1.472.61-2.268.79-.034.014-.084.014-.118.027a12.006 12.006 0 0 1-5.077.026l-59.353-12.68c-1.557-.325-2.894-.947-3.977-1.752-1.084-.805-1.896-1.804-2.37-2.894a5.437 5.437 0 0 1-.254-.662 5.433 5.433 0 0 1-.101-2.803c.051-.234.118-.48.203-.714l.761-2.077-17.618 3.478c-4.281.78-8.123-2.219-6.955-5.463ZM637.373 176.109c-4.18-1.778-5.686-5.853-3.368-9.059l8.868-12.225c.136-.182.271-.351.423-.532h-.016c2.487-2.817 7.446-3.764 11.406-2.077l39.637 16.898c2.352.999 3.858 2.738 4.315 4.633.356 1.466.085 3.037-.947 4.438l-8.869 12.226c-2.318 3.206-7.632 4.361-11.813 2.583l-39.636-16.885ZM426.908 67.754a75.346 75.346 0 0 1 5.805-2.608h.017c5.45-2.142 11.035-3.53 16.433-4.166 5.873-.701 11.492-.493 16.434.584.017 0 .034 0 .034.013.964.207 1.895.454 2.809.727.135.038.254.077.389.116.728.234 1.422.48 2.099.753.22.09.457.182.677.273.169.078.372.142.541.22.187.091.373.195.559.286.271.13.541.272.812.415.423.22.846.454 1.253.7.338.209.677.416.998.637.203.143.423.285.609.428.474.35.914.714 1.337 1.09.136.117.271.247.407.364.44.415.863.83 1.252 1.285.017.013.034.038.051.052l.135.155c.034.04.068.091.102.13.321.39.626.779.897 1.181.017.013.017.026.034.039 2.69 3.958 3.198 8.618 1.81 13.38 0-.026-.017-.052-.017-.077-.998 3.478-2.995 7.02-5.889 10.408-3.876 4.543-9.393 8.812-16.23 12.278-.796.402-1.591.778-2.387 1.142-8.022 3.685-16.518 5.671-24.336 5.996-10.967.454-20.597-2.337-25.759-8.319a16.506 16.506 0 0 1-1.912-2.739v-.013c-3.013-5.516-2.116-12.147 1.963-18.559 1.709-2.7 3.994-5.36 6.786-7.864 3.334-3.037 7.481-5.88 12.287-8.307ZM774.563 171.087c-.254.078-.525.143-.796.221-.186.052-.372.09-.575.129-.305.065-.609.13-.914.182-.135.026-.271.039-.406.065-1.693.26-3.453.298-5.264.156a27.382 27.382 0 0 1-2.47-.299c.016 0 .05-.013.067-.013-3.063-.519-6.194-1.557-9.19-3.063-4.011-2.011-7.768-4.866-10.831-8.422a27.197 27.197 0 0 1-.998-1.233c-3.25-4.166-5.01-8.579-5.298-12.628-.406-5.698 2.065-10.694 7.345-13.368a14.994 14.994 0 0 1 2.42-.986c4.858-1.558 10.713-1.103 16.366 1.012a36.02 36.02 0 0 1 6.939 3.517 34.5 34.5 0 0 1 7.345 6.411 32.062 32.062 0 0 1 2.302 3.011c1.895 2.83 3.114 5.724 3.672 8.527.914 4.504.119 8.721-2.369 11.927-.085.117-.186.208-.271.325-.034.051-.085.103-.135.155-.322.364-.643.714-1.016 1.052-.084.09-.186.168-.271.246-.355.299-.71.597-1.1.87-.101.078-.203.142-.304.22-.491.325-.999.636-1.54.909l-.136.065c-.406.194-.812.376-1.235.545a6.869 6.869 0 0 1-.593.207c-.236.091-.49.182-.744.26ZM479.795 176.681a69.128 69.128 0 0 1 1.963-1.661.967.967 0 0 0 .136-.117 65.785 65.785 0 0 1 1.963-1.505c.101-.078.22-.156.321-.234a91.522 91.522 0 0 1 1.896-1.337c.186-.117.372-.246.558-.363.593-.389 1.185-.779 1.794-1.155l.863-.506c.542-.325 1.084-.636 1.625-.948.423-.233.863-.454 1.303-.688.44-.233.88-.467 1.337-.7.796-.39 1.608-.779 2.42-1.156.119-.051.22-.103.339-.155 8.834-3.959 18.363-6.152 27.908-6.736.067 0 .135 0 .186-.013a89.038 89.038 0 0 1 6.177-.143c22.222.299 43.715 9.228 55.748 25.022a49.59 49.59 0 0 1 1.574 2.194c.136.207.254.402.389.61.356.532.694 1.064 1.016 1.596.152.26.304.532.457.805.271.48.541.96.795 1.44.152.286.288.584.44.87.237.467.457.921.66 1.388.136.299.271.61.406.909.204.454.39.921.559 1.389.118.311.237.623.338.934.17.467.322.934.474 1.402.102.311.203.61.288.921.135.48.271.96.389 1.441.068.298.153.597.22.882.119.506.22 1.026.305 1.532.051.259.101.532.152.791.102.623.186 1.233.254 1.856.017.156.051.325.068.48.084.779.135 1.558.169 2.336 0 .195 0 .39.017.584v.052c.017.442.017.883.017 1.324v.597c-.102 5.295-1.286 10.539-3.487 15.535a.594.594 0 0 0-.135.052.547.547 0 0 1-.068.143c-.135.311-.27.636-.423.947a26.484 26.484 0 0 1-.778 1.506 39.86 39.86 0 0 1-.779 1.388c-.254.429-.491.857-.761 1.285-.203.338-.44.662-.66 1-.237.35-.457.713-.711 1.064-.237.337-.491.675-.745 1.025-.237.337-.491.662-.744.999l-.813 1.013c-.254.324-.524.636-.795.947-.288.338-.593.675-.88.999-.271.312-.559.61-.847.909-.321.324-.626.662-.947.986-.288.299-.593.584-.897.87-.339.324-.677.649-1.033.96-.304.286-.626.558-.947.831-.356.311-.728.636-1.1.934-.322.273-.66.532-.982.792-.389.311-.762.61-1.168.908-.338.247-.677.494-1.015.727a59.466 59.466 0 0 1-2.725 1.856c-.254.169-.508.337-.779.506l-.507.312.321.039a69.614 69.614 0 0 1-8.225 4.347c-6.685 2.998-13.776 4.971-20.969 6.009-.101-.052-.203-.117-.304-.169-12.338 1.74-24.963.701-36.387-2.803.051.078.084.169.135.26-9.68-2.946-18.498-7.67-25.555-13.978.017-.052.017-.117.034-.169-2.573-2.297-4.925-4.789-6.973-7.488-4.248-5.568-6.922-11.512-8.158-17.521 0 .013-.016.013-.016.026-.085-.441-.17-.869-.237-1.31-.017-.078-.034-.143-.034-.221a60.076 60.076 0 0 1-.237-1.726c-1.642-13.614 4.011-27.306 15.79-37.741 0 .013.017.013.017.013ZM29.732 127.052l.542-1.492c.22-.597.541-1.155.93-1.674 0 0 0-.013.018-.013.135-.182.287-.351.44-.519 0 0 0-.013.017-.013a8 8 0 0 1 .897-.844c.778-.61 1.692-1.103 2.69-1.479.034-.013.085-.026.119-.052.17-.065.355-.117.525-.169.084-.026.186-.052.27-.078.051-.013.102-.039.17-.052.101-.026.203-.039.321-.065l.356-.078c.152-.026.304-.051.44-.077.135-.026.27-.039.406-.052l.423-.039c.152-.013.305-.026.457-.026.135 0 .27-.013.406-.013.17 0 .339 0 .508.013.118 0 .237 0 .372.013.186.013.39.026.575.052.102.013.204.013.305.026.288.039.593.09.88.155l29.668 6.334 29.668 6.333c4.959 1.064 7.887 5.036 6.499 8.838l-.931 2.557 19.023-3.751c4.248-.843 8.106 2.168 6.922 5.412l-7.21 19.844c-1.184 3.244-6.499 4.296-9.579 1.895l-13.742-10.746-.762 2.089c-.118.312-.271.61-.423.909-.034.078-.084.143-.135.22-.17.273-.356.545-.559.792-.017.013-.017.026-.017.039-.22.26-.474.506-.728.753-.05.052-.118.104-.169.155-.27.221-.541.442-.829.636l-.017.013c-.322.208-.643.39-.998.571l-.153.078c-.71.338-1.472.61-2.268.792-.033.013-.084.013-.118.026a12.046 12.046 0 0 1-5.077.026l-59.353-12.68c-1.862-.402-3.436-1.207-4.603-2.258a7.297 7.297 0 0 1-1.439-1.752c-.846-1.467-1.083-3.167-.474-4.828l.762-2.077-17.618 3.479c-4.248.843-8.107-2.168-6.922-5.412l7.21-19.844c1.184-3.245 6.498-4.296 9.579-1.895l12.726 9.928ZM33.489 210.333c.068-.026.135-.065.203-.091a7.626 7.626 0 0 1 2.725-.493h.101c.339 0 .677.025.999.077.068.013.135.026.22.039.288.052.575.117.846.208.102.026.203.065.322.104.118.039.253.078.372.13l27.23 11.615c1.626.688 2.658 1.882 2.963 3.193.237 1.012.05 2.089-.644 3.05l-6.092 8.397c-1.591 2.193-5.247 2.998-8.107 1.778l-27.23-11.616c-2.86-1.22-3.91-4.023-2.32-6.217l6.093-8.396c.085-.13.186-.247.288-.364h-.017c.05-.052.119-.104.17-.156.118-.116.236-.233.372-.337.152-.117.287-.234.457-.337l.338-.221c.22-.143.457-.26.711-.363ZM120.85 246.478h.288c.44.013.897.013 1.337.039.085 0 .152.013.237.013 1.709.091 3.385.259 5.043.532l.237.039c.576.091 1.134.195 1.693.311.186.039.389.078.575.13.44.091.88.195 1.303.312.254.065.491.116.728.181.339.091.66.182.982.286.27.078.541.143.812.233.355.117.694.234 1.049.364.237.078.457.156.694.233.288.104.559.208.829.325.322.13.644.247.965.389l.711.312 1.117.506c.186.091.355.169.542.259a38.48 38.48 0 0 1 3.351 1.856c.016.013.05.026.067.052.508.325.999.649 1.49.987.118.09.236.168.355.259.406.286.795.584 1.185.896l.355.272c.457.377.914.753 1.354 1.155.017.013.034.026.051.052.457.428.914.857 1.337 1.311.084.078.152.169.237.26.338.363.677.726.998 1.103.102.117.203.246.305.376.304.363.592.74.88 1.129.085.104.169.208.237.325.355.493.694.999 1.015 1.518.356.584.677 1.168.982 1.765.068.13.135.273.203.402.237.468.44.948.643 1.415.068.143.119.286.186.428.22.584.44 1.168.61 1.765v.013c.186.597.321 1.207.44 1.804.033.156.067.325.084.481.085.441.153.882.203 1.323.017.182.051.377.068.558.051.494.068.987.085 1.48 0 .104.016.208.016.311 0 .584-.016 1.155-.05 1.727l-.051.545c-.034.415-.085.83-.152 1.233-.017.103-.017.22-.034.324-.017.104-.051.208-.068.311-.051.273-.118.546-.169.818-.051.26-.119.519-.186.779-.051.22-.136.441-.186.662-.085.298-.17.597-.271.895-.034.104-.085.208-.119.312a23.313 23.313 0 0 1-1.134 2.66c-.186.364-.389.727-.592 1.09-.017.039-.051.091-.068.13a26.093 26.093 0 0 1-3.503 4.776 31.551 31.551 0 0 1-4.129 3.764 36.879 36.879 0 0 1-6.042 3.712 40.226 40.226 0 0 1-4.045 1.713c-.508.181-1.016.363-1.54.532a44.676 44.676 0 0 1-7.938 1.778 47.992 47.992 0 0 1-7.328.389 46.29 46.29 0 0 1-10.865-1.557c-3.943-1.051-7.633-2.622-10.916-4.646-2.268-1.415-4.35-3.05-6.16-4.88l-50.519 18.403c-2.928 1.064-6.465.104-7.853-2.141-1.388-2.246-.135-4.958 2.793-6.022l50.095-18.248c-1.71-3.919-2.217-7.981-1.642-11.901a22.767 22.767 0 0 1 1.388-5.113v-.013a24.83 24.83 0 0 1 1.997-3.933c.102-.168.237-.337.356-.519.169-.259.355-.532.541-.791.203-.286.406-.571.626-.857.22-.286.457-.558.677-.831.22-.259.424-.519.66-.765.288-.325.593-.623.897-.935.271-.272.525-.532.796-.791.44-.403.88-.805 1.337-1.207.05-.039.101-.091.152-.13.44-.377.914-.727 1.388-1.09l.068-.052c.474-.351.981-.701 1.489-1.039.135-.09.288-.181.423-.272.423-.273.863-.532 1.303-.792.153-.091.288-.181.44-.259.085-.052.186-.104.271-.156.49-.273.982-.532 1.489-.779.068-.026.119-.052.187-.091.541-.272 1.1-.532 1.675-.778l.457-.195a35.065 35.065 0 0 1 1.946-.766c.017 0 .034-.013.034-.013.406-.142.796-.285 1.202-.415.034-.013.084-.026.118-.039.288-.091.576-.182.88-.272.288-.091.576-.169.863-.26.22-.065.44-.117.66-.182.339-.091.694-.181 1.033-.259.203-.052.406-.104.609-.143.372-.078.728-.156 1.1-.234l.559-.116c.033 0 .05-.013.084-.013.153-.026.305-.052.474-.078.423-.078.846-.143 1.286-.208.22-.026.44-.052.66-.091.39-.052.779-.104 1.168-.143.22-.025.44-.038.677-.064.406-.039.812-.065 1.219-.091.169-.013.321-.013.49-.026a29.833 29.833 0 0 1 1.524-.052h.135c.491-.065.982-.065 1.455-.065ZM131.024.514a49.588 49.588 0 0 1 1.574 2.193c.135.208.271.416.389.61.356.533.694 1.065 1.016 1.597.152.26.304.532.457.804.27.48.541.96.795 1.441.152.285.305.584.44.883.237.467.457.92.66 1.388.135.299.271.61.406.909.203.454.39.921.559 1.388.118.312.237.623.338.935.17.467.322.934.474 1.388.102.312.203.61.288.922.135.48.271.96.389 1.44.068.299.152.598.22.883.119.506.22 1.025.305 1.531.051.26.101.532.152.792.102.623.186 1.246.254 1.856.017.156.051.311.068.467.084.779.135 1.558.169 2.336 0 .195 0 .39.017.584v.052c.017.442.017.883.017 1.324v.61c-.102 5.295-1.286 10.538-3.487 15.535a.599.599 0 0 0-.135.052c-.017.052-.051.09-.068.143-.135.311-.27.636-.423.947a67.924 67.924 0 0 1-.778 1.518c-.254.468-.508.922-.762 1.376-.254.428-.491.87-.762 1.298-.203.337-.439.662-.643 1-.237.363-.474.713-.71 1.063-.237.338-.491.675-.745 1.013-.254.337-.491.662-.745 1l-.812 1.011c-.254.325-.525.636-.796.948-.287.337-.592.675-.88 1-.27.31-.558.61-.846.908-.321.324-.626.662-.948.986-.287.298-.592.584-.897.87a64.25 64.25 0 0 1-1.015.96c-.305.285-.626.558-.948.83-.355.312-.727.623-1.1.935-.321.273-.66.532-.998.792-.39.311-.762.61-1.168.908-.339.247-.677.493-1.016.727a59.512 59.512 0 0 1-2.724 1.856 31.057 31.057 0 0 1-1.287.817c.102.013.22.026.322.04a69.606 69.606 0 0 1-8.225 4.347c-6.685 2.998-13.776 4.97-20.97 6.009-.1-.052-.202-.117-.304-.169-12.337 1.74-24.963.701-36.387-2.803.051.078.085.169.136.26-9.68-2.947-18.498-7.67-25.556-13.978.017-.052.017-.117.034-.169-2.572-2.297-4.925-4.789-6.972-7.488-4.248-5.568-6.922-11.512-8.158-17.52 0 .012-.017.012-.017.012-.084-.428-.169-.87-.237-1.31-.017-.078-.034-.143-.034-.221a60.282 60.282 0 0 1-.236-1.726c-1.642-13.614 4.01-27.32 15.79-37.741l.017-.013a71.733 71.733 0 0 1 1.963-1.661c.05-.04.084-.078.135-.104a66.301 66.301 0 0 1 1.963-1.519c.102-.077.22-.155.322-.233.626-.454 1.252-.909 1.912-1.337.187-.117.373-.233.542-.363.592-.39 1.185-.779 1.81-1.155.289-.17.576-.338.847-.506a60.613 60.613 0 0 1 1.642-.948c.423-.234.863-.454 1.286-.688.44-.233.88-.48 1.337-.7.779-.39 1.59-.766 2.403-1.143.119-.052.237-.117.355-.168 10.798-4.828 22.628-7.048 34.272-6.892 22.187.338 43.681 9.267 55.714 25.061ZM519.075 19.346a6.478 6.478 0 0 1 1.219.116c.287.052.575.117.846.208.101.026.203.065.321.104.119.039.254.078.373.13l27.231 11.615c1.624.688 2.657 1.882 2.961 3.193.237 1.012.051 2.09-.643 3.05l-6.092 8.397c-1.591 2.193-5.247 2.998-8.107 1.778L509.953 36.32c-2.86-1.22-3.909-4.023-2.319-6.216l6.093-8.41c.085-.13.186-.247.288-.364h-.017c.051-.052.118-.103.169-.155.119-.117.237-.234.372-.338.153-.117.288-.233.457-.337.119-.078.22-.156.339-.22.237-.13.474-.247.711-.351.067-.026.135-.065.203-.091a7.637 7.637 0 0 1 2.725-.493h.101ZM787.019 111.244c-.22 1.687-.914 3.374-2.167 4.919l-1.303 1.609c-.863 1.012-2.606 1.324-3.96.688-1.354-.636-1.76-1.986-.965-3.024l-1.929-.922c-.897.883-2.522 1.129-3.791.519-1.269-.597-1.709-1.83-1.083-2.842l-1.963-.934c-.897.882-2.522 1.129-3.791.519-1.27-.597-1.71-1.83-1.084-2.842l-1.929-.922c-.846 1.012-2.606 1.324-3.96.688-1.354-.636-1.777-1.986-.965-3.024l1.303-1.609c1.253-1.545 2.911-2.765 4.79-3.673l-.017-.013c.118-.052.22-.104.338-.156.102-.052.203-.091.305-.143.372-.155.745-.298 1.117-.44.017 0 .017-.014.034-.014a17.668 17.668 0 0 1 1.506-.441c.068-.013.152-.039.22-.052l-.457-.22a9.187 9.187 0 0 1-2.149-1.402.795.795 0 0 0-.034.181c-2.64-2.284-3.199-5.71-1.083-8.461.034-.052.067-.104.118-.156l.102-.13 5.771-7.164 4.214-5.23 5.89-7.307 16.805-20.83c1.185-1.48 2.979-2.505 4.976-3.037 2.589-.675 5.534-.493 8.022.688l.508.247-.051-.247c-.017-.078-.034-.169-.051-.246a9.75 9.75 0 0 1-.118-.987v-.026a6.04 6.04 0 0 1 .017-.96c0-.091.017-.182.017-.273.016-.104.016-.194.016-.298l.017.013c.203-1.7.897-3.388 2.15-4.932l1.303-1.61c.863-1.012 2.606-1.323 3.96-.687 1.354.636 1.76 1.986.965 3.024l1.929.921c.897-.882 2.522-1.129 3.791-.519 1.269.597 1.709 1.83 1.083 2.842l1.963.935c.897-.883 2.522-1.13 3.791-.52 1.27.598 1.71 1.83 1.084 2.843l1.929.921c.846-1.012 2.606-1.323 3.96-.688 1.354.636 1.777 1.986.965 3.024l-1.303 1.61c-1.253 1.544-2.911 2.764-4.79 3.672l.017.014c-.118.051-.22.103-.338.155-.102.052-.203.091-.305.143-.372.156-.745.298-1.117.428-.017 0-.017.013-.034.013-.389.13-.795.26-1.201.364a9.713 9.713 0 0 1-.322.078l-.305.077.508.247c4.417 2.09 5.788 6.58 3.063 9.967l-1.912 2.375-5.907 7.307-4.214 5.217-5.906 7.307-4.214 5.217-5.907 7.307-4.654 5.775c-2.132 2.648-6.194 3.881-9.985 3.271a11.335 11.335 0 0 1-3.013-.922l-.474-.22c.017.065.017.117.034.181l.051.247c.051.325.102.662.119.986v.026a6.17 6.17 0 0 1-.017.961c0 .091-.017.181-.017.272.05.13.05.221.034.325ZM350.969 166.869a22.725 22.725 0 0 1 1.387-5.114v-.013a25.64 25.64 0 0 1 1.997-3.945c.119-.169.237-.338.356-.519.169-.26.355-.519.541-.779.203-.285.406-.571.626-.857.221-.285.457-.558.677-.843.22-.26.424-.519.661-.766.287-.311.592-.623.896-.934a32.548 32.548 0 0 1 2.133-1.999c.051-.039.101-.091.152-.13.44-.376.914-.726 1.388-1.09l.068-.052c.474-.35.981-.701 1.489-1.038.135-.091.288-.182.423-.273.423-.272.846-.532 1.303-.791.153-.091.305-.182.457-.26.085-.052.186-.104.271-.156.491-.272.982-.532 1.489-.778.051-.026.119-.052.187-.091.541-.273 1.1-.532 1.675-.779l.457-.194a33.564 33.564 0 0 1 1.946-.766c.017 0 .034-.013.051-.013a28.21 28.21 0 0 1 1.202-.415c.033-.013.084-.026.118-.039.288-.091.575-.182.88-.273.288-.091.576-.169.863-.259.22-.065.44-.13.66-.182.339-.091.677-.182 1.033-.26.203-.052.406-.104.609-.143.372-.077.728-.155 1.1-.233l.558-.117c.034 0 .051-.013.085-.013.152-.026.305-.052.474-.078.423-.078.846-.143 1.286-.207.22-.026.44-.052.66-.091.39-.052.779-.104 1.168-.143.22-.026.457-.039.677-.065.406-.039.812-.065 1.202-.091.169-.013.338-.013.49-.026a29.844 29.844 0 0 1 1.507-.052h.135c.474-.013.965-.013 1.439-.013h.287c.44.013.897.013 1.337.039.085 0 .153.013.22.013 1.71.091 3.385.26 5.044.532l.237.039c.575.091 1.134.195 1.692.312.186.039.389.078.575.117.44.09.88.194 1.304.311.237.065.49.117.727.182.322.091.66.182.982.285.271.078.542.143.812.234.356.117.694.234 1.05.363.22.078.457.156.677.234.287.104.558.208.829.324.321.13.643.247.965.39l.71.311 1.117.506c.186.091.356.169.542.26a34.95 34.95 0 0 1 3.351 1.869c.017.013.051.026.068.039.507.324.998.649 1.489.986.118.091.237.169.355.26.406.285.796.584 1.185.895l.355.273a24.4 24.4 0 0 1 1.337 1.155c.017.013.034.026.051.052.457.428.914.856 1.354 1.31.085.078.152.169.237.247.338.363.677.727.999 1.103.101.117.203.247.304.377.305.363.593.739.88 1.129.085.103.169.207.237.324.356.493.694.999 1.016 1.519.355.584.677 1.168.981 1.765.068.129.136.272.203.402.237.467.44.947.643 1.415.068.142.119.285.17.428.237.584.44 1.168.609 1.765v.013c.186.597.321 1.207.457 1.804.034.156.068.324.085.48.084.441.152.883.203 1.324.017.182.05.363.067.558.051.493.068.986.085 1.479 0 .104.017.208.017.312 0 .584-.017 1.155-.051 1.739l-.051.545c-.034.415-.084.831-.152 1.246-.017.104-.017.221-.034.324-.017.104-.051.208-.068.312-.05.272-.118.545-.169.818-.051.259-.118.519-.186.778-.051.221-.135.441-.186.662-.085.299-.169.597-.271.896-.034.103-.085.207-.118.324a26.922 26.922 0 0 1-1.117 2.661c-.187.363-.39.726-.593 1.09-.017.039-.05.078-.067.13a26.18 26.18 0 0 1-3.504 4.776 31.616 31.616 0 0 1-4.129 3.763 36.81 36.81 0 0 1-6.042 3.712 40.03 40.03 0 0 1-4.045 1.713c-.508.182-1.015.364-1.54.532a44.471 44.471 0 0 1-7.937 1.778 47.879 47.879 0 0 1-7.329.39 46.247 46.247 0 0 1-10.865-1.558c-3.943-1.051-7.633-2.621-10.916-4.646-2.268-1.415-4.349-3.05-6.16-4.88l-50.519 18.403c-2.928 1.065-6.465.104-7.853-2.141-1.387-2.245-.135-4.958 2.793-6.022l50.095-18.247c-1.675-3.959-2.183-8.021-1.607-11.953 0 .013 0 .013 0 0ZM347.278 248.775l16.603-6.528 1.438-.571c5.399-2.116 11.763 1.038 11.458 5.684l-1.862 28.409c-.304 4.66-7.057 7.307-12.168 4.776l-1.371-.675-15.655-7.761-8.123-4.023c-2.725 3.712-6.922 6.996-12.236 9.669.017-.013.033-.039.033-.052a55.051 55.051 0 0 1-6.854 2.907c-4.282 1.519-9.003 2.7-14.064 3.478a94.13 94.13 0 0 1-9.426.961c-2.996.156-6.076.181-9.224.065a83.94 83.94 0 0 1-4.857-.312 93.227 93.227 0 0 1-9.427-1.285c-5.06-.947-9.799-2.271-14.064-3.919-11.204-4.296-19.243-10.707-22.035-17.975l-8.835 3.465-1.929.753-16.602 6.528-1.439.571c-5.399 2.116-11.762-1.038-11.458-5.684l1.862-28.41c.305-4.659 7.057-7.306 12.169-4.776l1.37.675 15.655 7.761 10.527 5.217c3.588-6.034 10.984-11.083 20.732-14.418a70.002 70.002 0 0 1 4.756-1.415c.169-.039.338-.091.507-.13a84.3 84.3 0 0 1 2.776-.662 23.62 23.62 0 0 1 1.049-.22 69.91 69.91 0 0 1 3.876-.714l1.117-.195c1.134-.169 2.285-.298 3.435-.428.204-.026.39-.039.593-.065l1.269-.117c.355-.026.711-.065 1.066-.091l1.016-.078c.558-.038 1.117-.064 1.692-.103.119 0 .237-.013.356-.026h.101c.491-.026.999-.039 1.489-.052.204 0 .407-.013.61-.026.44-.013.897-.013 1.354-.026.253 0 .507-.013.778-.013.457 0 .897 0 1.354.013h.745c.727.013 1.438.026 2.166.065 4.333.168 8.53.61 12.524 1.272.034 0 .068.013.101.013 18.668 3.14 33.053 11.382 37.453 21.388l5.619-2.207 1.98-.713ZM661.238 70.505l1.337-.22 15.164-2.492 10.205-1.687c-2.521-5.166-2.047-11.473 1.134-17.832a35.108 35.108 0 0 1 1.743-3.05c.034-.052.068-.104.102-.143.406-.623.829-1.246 1.269-1.869.068-.104.153-.195.22-.298.423-.572.863-1.142 1.337-1.714.102-.13.22-.26.339-.402.237-.285.457-.57.711-.843.863-.96 1.794-1.921 2.775-2.869.085-.09.186-.168.271-.26a61.509 61.509 0 0 1 1.811-1.648c.017-.025.051-.038.084-.064.508-.442 1.05-.87 1.591-1.311.271-.208.525-.428.796-.65a55.456 55.456 0 0 1 2.572-1.88 65.877 65.877 0 0 1 8.344-4.907c.017-.013.051-.026.067-.039 13.387-6.567 28.179-8.215 38.435-4.308l1.693-4.01.49-1.156 4.756-11.33.423-.986c1.54-3.686 7.717-4.698 11.102-1.83l20.698 17.547c3.385 2.88 1.439 7.475-3.486 8.293l-1.337.22-15.164 2.492-7.853 1.298c1.253 3.413 1.304 7.242.22 11.2 0-.013-.017-.026-.017-.052a27.047 27.047 0 0 1-1.794 4.802c-1.353 2.817-3.232 5.646-5.601 8.397a48.964 48.964 0 0 1-4.807 4.815 57.27 57.27 0 0 1-5.365 4.192 66.191 66.191 0 0 1-9.63 5.516 65.658 65.658 0 0 1-11.288 4.049c-9.884 2.53-19.53 2.388-26.757-.636l-2.488 5.905-.609 1.428-4.756 11.33-.423.986c-1.54 3.686-7.717 4.698-11.102 1.83l-20.698-17.547c-3.385-2.855-1.456-7.45 3.486-8.267Z" fill="#B4D0D8"/>
        <path d="m209.385 97.902-16.416 21.648c-4.299 5.671-1.777 13.004 5.619 16.301l70.167 31.303c7.396 3.296 16.958 1.363 21.257-4.309l16.416-21.647c4.299-5.672 1.777-13.005-5.619-16.301l-70.167-31.304c-7.379-3.31-16.958-1.362-21.257 4.31Z" fill="#5D00FF"/>
        <path opacity=".15" d="m306.427 141.132-16.416 21.648c-3.232 4.27-9.461 6.411-15.485 5.814.27-.286.524-.584.761-.896l16.416-21.647c4.299-5.672 1.778-13.004-5.618-16.301l-70.168-31.303c-1.827-.818-3.791-1.311-5.771-1.506 4.587-4.97 13.506-6.54 20.495-3.413l70.168 31.303c7.395 3.31 9.917 10.643 5.618 16.301Z" fill="#000"/>
        <path d="m266.284 129.595-9.985 13.173c-1.438 1.895-.592 4.335 1.879 5.438 2.471 1.103 5.652.454 7.091-1.44l9.985-13.173c1.439-1.895.592-4.335-1.878-5.438-2.471-1.103-5.67-.454-7.092 1.44ZM249.852 122.262l-9.985 13.173c-1.439 1.895-.593 4.335 1.878 5.438 2.471 1.103 5.653.454 7.091-1.441l9.985-13.172c1.439-1.895.593-4.335-1.878-5.438-2.471-1.091-5.653-.442-7.091 1.44ZM233.434 114.942l-9.985 13.173c-1.439 1.895-.593 4.335 1.878 5.438 2.471 1.103 5.653.454 7.091-1.441l9.986-13.173c1.438-1.895.592-4.334-1.879-5.438-2.471-1.103-5.653-.454-7.091 1.441Z" fill="#008DFF"/>
        <path opacity=".8" d="M203.072 131.282c-1.033 1.375-.406 3.14 1.371 3.932l26.3 11.628c1.794.792 4.095.312 5.128-1.051 1.032-1.375.406-3.14-1.371-3.932l-26.3-11.629c-1.777-.791-4.096-.311-5.128 1.052ZM238.053 146.752c-1.032 1.376-.406 3.141 1.371 3.933l8.208 3.634c1.794.791 4.096.311 5.128-1.052 1.033-1.375.407-3.14-1.371-3.932l-8.208-3.634c-1.794-.792-4.095-.324-5.128 1.051Z" fill="#BBE4FF"/>
        <path d="m827.517 264.815 1.861-28.409c.305-4.646-6.076-7.8-11.457-5.685l-1.439.571-16.603 6.528-14.96 5.88c-.881.35-1.642.791-2.251 1.31l-.356.312a6.456 6.456 0 0 0-.863 1.038c-.305.48-.541.986-.677 1.519-.017.013 0 .013 0 .013a4.765 4.765 0 0 0 .203 2.985c.373.934 1.05 1.803 2.014 2.53.119.091.254.182.389.273.271.169.542.337.847.48l14.131 6.995 15.655 7.761 1.371.675c5.06 2.518 11.813-.13 12.135-4.776Z" fill="#369CFF"/>
        <path opacity=".15" d="m799.845 237.822-14.961 5.879c-5.399 2.128-5.788 7.93-.694 10.46l14.115 6.996 1.54-23.335Z" fill="#000"/>
        <path d="m827.517 264.815 1.862-28.409c.304-4.646-6.076-7.8-11.458-5.685l-1.439.571-2.487 37.624 1.371.675c5.077 2.518 11.829-.13 12.151-4.776Z" fill="#6DB9DF"/>
        <path d="m649.647 227.904-1.862 28.409c-.304 4.647 6.076 7.8 11.458 5.685l1.438-.571 16.603-6.528 14.961-5.879c.88-.351 1.641-.792 2.251-1.311l.355-.312c.339-.337.626-.675.863-1.038.305-.48.542-.986.677-1.518.017-.013 0-.013 0-.013a4.765 4.765 0 0 0-.203-2.985c-.372-.935-1.049-1.804-2.014-2.531-.118-.091-.254-.182-.389-.273-.271-.168-.542-.337-.846-.48l-14.132-6.995-15.655-7.761-1.371-.675c-5.06-2.518-11.83.13-12.134 4.776Z" fill="#369CFF"/>
        <path opacity=".15" d="m677.32 254.899 14.96-5.866c5.399-2.128 5.789-7.93.694-10.46l-14.114-6.996-1.54 23.322Z" fill="#000"/>
        <path d="m649.645 227.904-1.862 28.409c-.304 4.646 6.076 7.8 11.458 5.684l1.439-.571 2.487-37.624-1.37-.675c-5.078-2.517-11.847.13-12.152 4.777Z" fill="#6DB9DF"/>
        <path d="M733.588 218.145a94.84 94.84 0 0 0-9.426.895c-5.061.74-9.783 1.882-14.064 3.348-13.455 4.595-22.476 12.473-23.085 21.7-.66 9.928 8.598 19.026 23.085 24.581 4.281 1.648 9.003 2.972 14.064 3.919 3.029.571 6.194 1 9.426 1.285a97.4 97.4 0 0 0 4.858.312c3.13.116 6.211.09 9.223-.065a94.15 94.15 0 0 0 9.427-.961c5.06-.791 9.799-1.972 14.064-3.478 13.065-4.633 21.815-12.381 22.424-21.466.643-9.772-8.326-18.753-22.424-24.321-4.248-1.687-8.987-3.05-14.064-4.049-3.03-.597-6.177-1.038-9.427-1.35a107.64 107.64 0 0 0-5.534-.363 89.19 89.19 0 0 0-8.547.013Z" fill="#369CFF"/>
        <path d="M757.097 219.819v53.327c5.061-.791 9.799-1.972 14.064-3.478v-45.8c-4.248-1.687-8.987-3.063-14.064-4.049ZM733.59 218.144v55.716a96.26 96.26 0 0 0 4.857.311c3.131.117 6.211.091 9.224-.064v-55.625a107.704 107.704 0 0 0-5.534-.364 94.312 94.312 0 0 0-8.547.026ZM724.163 219.027c-5.061.74-9.783 1.882-14.064 3.348v46.294c4.281 1.648 9.003 2.972 14.064 3.919v-53.561Z" fill="#6DB9DF"/>
        <path opacity=".15" d="M742.204 218.105c29.431 1.129 52.465 14.601 51.45 30.084-.491 7.41-6.415 13.938-15.672 18.611 2.691-3.141 4.282-6.606 4.536-10.305 1.015-15.483-22.019-28.955-51.45-30.084-15.333-.597-29.38 2.284-39.45 7.372 8.53-10.006 28.179-16.534 50.586-15.678Z" fill="#000"/>
        <path opacity=".25" d="M704.971 253.083c0-4.896 7.244-8.864 16.18-8.864 8.935 0 16.179 3.968 16.179 8.864 0 4.895-7.244 8.864-16.179 8.864-8.936 0-16.18-3.969-16.18-8.864ZM743.473 254.9c-3.402 0-6.144 1.505-6.144 3.374 0 1.856 2.759 3.374 6.144 3.374 3.402 0 6.143-1.505 6.143-3.374 0-1.856-2.758-3.374-6.143-3.374Z" fill="#fff"/>
        <path d="m884.012 143.962-26.013 5.139c-4.248.844-8.106-2.167-6.922-5.411l7.21-19.844c1.185-3.245 6.499-4.296 9.579-1.895l18.803 14.704c3.063 2.414 1.591 6.464-2.657 7.307Z" fill="#008DFF"/>
        <path opacity=".15" d="m872.214 146.286 11.797-2.323c4.248-.843 5.737-4.893 2.657-7.307l-8.53-6.657-5.924 16.287Z" fill="#000"/>
        <path d="m881.133 130.426-6.279 17.287c-1.388 3.803 1.54 7.774 6.499 8.839l59.352 12.679c4.959 1.064 10.138-1.181 11.526-4.983l6.279-17.287c1.387-3.803-1.54-7.774-6.499-8.839l-59.353-12.679c-4.959-1.064-10.155 1.181-11.525 4.983Z" fill="#5D00FF"/>
        <path d="m911.022 162.885-29.668-6.333c-4.959-1.065-7.887-5.036-6.499-8.839l6.279-17.287c1.388-3.802 6.566-6.047 11.525-4.983l29.668 6.333-11.305 31.109Z" fill="#008DFF"/>
        <path opacity=".15" d="m958.509 146.948-6.279 17.287c-1.015 2.816-4.129 4.776-7.683 5.165.22-.35.406-.727.541-1.103l6.279-17.287c1.388-3.802-1.54-7.774-6.499-8.838l-59.353-12.68a12.017 12.017 0 0 0-3.842-.181c1.896-3.115 6.533-4.828 10.984-3.881l59.353 12.68c4.942 1.051 7.87 5.035 6.499 8.838Z" fill="#000"/>
        <path opacity=".25" d="M881.742 151.373c-.627 1.739.71 3.569 2.978 4.049l49.012 10.461c2.268.48 4.655-.545 5.281-2.284.626-1.739-.711-3.569-2.979-4.05l-49.012-10.46c-2.268-.493-4.637.545-5.28 2.284Z" fill="#fff"/>
        <path d="m881.997 216.963-6.093 8.397c-1.591 2.193-.558 4.997 2.319 6.216l27.231 11.616c2.86 1.22 6.515.428 8.106-1.778l6.093-8.397c1.591-2.193.558-4.997-2.319-6.216l-27.23-11.616c-2.861-1.22-6.516-.415-8.107 1.778Z" fill="#AE7CFF"/>
        <path opacity=".15" d="m919.653 233.004-6.092 8.41c-1.202 1.661-3.571 2.518-5.89 2.323.102-.117.203-.221.288-.35l6.092-8.397c1.591-2.194.559-4.997-2.318-6.217l-27.231-11.615a7.408 7.408 0 0 0-2.234-.546c1.709-1.933 5.128-2.582 7.836-1.427l27.231 11.615c2.877 1.207 3.926 4.011 2.318 6.204Z" fill="#000"/>
        <path d="m904.134 228.799-3.707 5.114c-.524.739-.186 1.661.779 2.076.947.402 2.166.143 2.708-.597l3.706-5.113c.525-.74.186-1.662-.779-2.077-.947-.402-2.166-.13-2.707.597ZM897.77 226.087l-3.706 5.114c-.525.727-.186 1.661.778 2.076.965.403 2.167.143 2.708-.597l3.707-5.113c.524-.727.186-1.661-.779-2.077-.965-.402-2.183-.142-2.708.597ZM891.389 223.361l-3.706 5.114c-.525.726-.187 1.661.778 2.076.948.403 2.166.143 2.708-.597l3.706-5.113c.525-.727.186-1.661-.778-2.077-.965-.402-2.183-.129-2.708.597Z" fill="#67B6FF"/>
        <path opacity=".8" d="M879.898 229.813c-.389.532-.135 1.207.558 1.505l10.206 4.309c.694.299 1.574.104 1.963-.428s.135-1.207-.559-1.506l-10.205-4.308c-.694-.299-1.574-.104-1.963.428ZM893.472 235.548c-.39.532-.136 1.207.558 1.505l3.182 1.35c.694.298 1.574.104 1.963-.428.389-.533.136-1.207-.558-1.506l-3.182-1.35c-.694-.298-1.574-.104-1.963.429Z" fill="#BBE2FF"/>
        <path d="M955.497 254.043c-2.048.753-3.977 1.623-5.737 2.609a35.206 35.206 0 0 0-5.399 3.673c-2.454 2.05-4.485 4.348-6.042 6.827-1.794 2.842-2.945 5.918-3.402 9.071-.575 3.933-.068 7.982 1.642 11.901a23.913 23.913 0 0 0 1.658 3.154 28.777 28.777 0 0 0 3.825 4.854 32.869 32.869 0 0 0 6.161 4.893c3.283 2.024 6.972 3.595 10.916 4.646a46.29 46.29 0 0 0 10.865 1.557c2.42.052 4.874-.065 7.328-.389a45.631 45.631 0 0 0 7.937-1.778c.508-.169 1.033-.338 1.541-.532a45.366 45.366 0 0 0 4.044-1.713 36.81 36.81 0 0 0 6.042-3.712 31.924 31.924 0 0 0 4.134-3.764 26.748 26.748 0 0 0 4.16-5.996c1.03-2.063 1.76-4.231 2.13-6.45.88-5.152-.1-10.551-3.23-15.6-2.74-4.412-6.788-8.033-11.628-10.694-2.335-1.298-4.857-2.362-7.497-3.192a45.455 45.455 0 0 0-8.445-1.765 46.518 46.518 0 0 0-6.33-.299 45.924 45.924 0 0 0-7.514.753 44.544 44.544 0 0 0-7.159 1.946Z" fill="#C3C11E"/>
        <path d="M938.319 267.139c-1.794 2.842-2.945 5.918-3.402 9.071 2.556 6.918 5.737 13.095 9.088 18.52a115.42 115.42 0 0 0 4.198 6.295c3.283 2.024 6.972 3.595 10.916 4.646-7.515-8.877-16.163-21.894-20.8-38.532Z" fill="#fff"/>
        <path opacity=".15" d="M1004.07 267.282c4.74 7.631 4.54 16.093.42 23.257.73-4.997-.28-10.188-3.3-15.068-8.627-13.939-30.375-19.87-48.551-13.251-8.225 2.998-14.301 8.047-17.703 13.978 1.354-9.306 8.75-17.871 20.58-22.18 18.176-6.606 39.907-.675 48.554 13.264Z" fill="#000"/>
        <path d="M859.493 25.994c3.479-27.747 35.631-48.078 71.814-45.41 36.183 2.668 62.695 27.323 59.216 55.07-3.478 27.747-35.63 48.078-71.813 45.41-36.183-2.667-62.695-27.323-59.217-55.07Z" fill="#FFB1DB"/>
        <path opacity=".1" d="M981.866 5.367c16.569 21.765 9.495 49.123-15.215 64.554 16.281-15.82 19.243-38.273 5.196-56.728-18.329-24.074-58.625-32.186-90.019-18.13A71.138 71.138 0 0 0 873.4-.46c4.958-4.815 11.136-9.02 18.447-12.303 31.394-14.056 71.69-5.931 90.019 18.13Z" fill="#000"/>
        <path d="M924.123 31.518c-5.788 19.895 18.109 36.001 42.361 38.753a69.62 69.62 0 0 1-8.225 4.347c-6.685 2.998-13.776 4.97-20.969 6.01-20.36-11.006-29.804-33.056-13.167-49.11Z" fill="#FB67AE"/>
        <path d="M924.121 31.519c-24.743 4.997-32.63 30.11-23.406 46.397-9.681-2.946-18.498-7.67-25.556-13.977 3.25-18.17 23.372-36.807 48.962-32.42ZM924.122 31.519c19.835 13.354 53.074 7.618 65.92-8.501 1.726 8.19.744 16.521-2.674 24.243-23.186 8.566-54.191 2.53-63.246-15.742Z" fill="#FB67AE"/>
        <path opacity=".25" d="M882.32 50.636c0-14.085 14.889-25.503 33.256-25.503 18.366 0 33.256 11.418 33.256 25.503 0 14.084-14.89 25.502-33.256 25.502-18.367 0-33.256-11.418-33.256-25.502Z" fill="#fff"/>
        <path d="m613.951 119.523 26.013-5.139c4.248-.844 8.106 2.167 6.922 5.411l-7.21 19.844c-1.185 3.245-6.499 4.296-9.579 1.895l-18.803-14.704c-3.063-2.401-1.591-6.464 2.657-7.307Z" fill="#5D00FF"/>
        <path opacity=".15" d="m625.746 117.2-11.796 2.323c-4.248.843-5.72 4.893-2.657 7.307l8.53 6.657 5.923-16.287Z" fill="#000"/>
        <path d="m547.372 112.604-26.012 5.139c-4.248.844-8.107-2.167-6.922-5.411l7.209-19.844c1.185-3.245 6.499-4.296 9.579-1.895l18.803 14.704c3.08 2.414 1.608 6.476-2.657 7.307Z" fill="#008DFF"/>
        <path opacity=".15" d="m535.591 114.929 11.797-2.324c4.247-.843 5.737-4.892 2.657-7.306l-8.53-6.658-5.924 16.288Z" fill="#000"/>
        <path d="m544.495 99.07-6.279 17.288c-1.388 3.802 1.54 7.774 6.499 8.838l59.353 12.679c4.959 1.065 10.137-1.181 11.525-4.983l6.279-17.287c1.388-3.803-1.54-7.774-6.499-8.838l-59.353-12.68c-4.958-1.064-10.137 1.18-11.525 4.983Z" fill="#5D00FF"/>
        <path d="m574.4 131.528-29.668-6.333c-4.958-1.064-7.886-5.035-6.499-8.838l6.279-17.287c1.388-3.803 6.567-6.048 11.526-4.984l29.668 6.334-11.306 31.108Z" fill="#008DFF"/>
        <path opacity=".15" d="m621.871 115.591-6.278 17.287c-1.016 2.816-4.13 4.776-7.684 5.165.22-.35.406-.726.542-1.103l6.278-17.287c1.388-3.802-1.54-7.774-6.498-8.838l-59.353-12.68a12.007 12.007 0 0 0-3.842-.181c1.896-3.115 6.533-4.828 10.984-3.88l59.353 12.679c4.958 1.064 7.886 5.035 6.498 8.838Z" fill="#000"/>
        <path opacity=".25" d="M545.121 120.017c-.626 1.739.711 3.569 2.979 4.049l49.012 10.461c2.268.48 4.654-.546 5.28-2.285.626-1.739-.711-3.569-2.979-4.049l-49.012-10.46c-2.268-.48-4.654.545-5.28 2.284Z" fill="#fff"/>
        <path d="m332.877 56.035 26.012-5.14c4.248-.844 8.107 2.167 6.922 5.412l-7.209 19.844c-1.185 3.244-6.499 4.296-9.579 1.895L330.22 63.34c-3.08-2.4-1.608-6.463 2.657-7.306Z" fill="#FFDC8C"/>
        <path opacity=".15" d="m344.657 53.71-11.796 2.324c-4.248.843-5.721 4.893-2.657 7.307l8.529 6.658 5.924-16.288Z" fill="#000"/>
        <path d="m266.298 49.118-26.012 5.14c-4.248.843-8.107-2.168-6.922-5.412l7.21-19.844c1.184-3.245 6.499-4.296 9.579-1.895l18.802 14.704c3.064 2.414 1.591 6.477-2.657 7.307Z" fill="#FFA28C"/>
        <path opacity=".15" d="m254.5 51.442 11.796-2.323c4.248-.843 5.737-4.893 2.657-7.307l-8.529-6.657-5.924 16.287Z" fill="#000"/>
        <path d="m263.42 35.581-6.279 17.287c-1.388 3.803 1.54 7.774 6.499 8.838l59.353 12.68c4.958 1.064 10.137-1.181 11.525-4.984l6.279-17.287c1.388-3.802-1.54-7.774-6.499-8.838l-59.353-12.68c-4.959-1.064-10.154 1.181-11.525 4.984Z" fill="#FFDC8C"/>
        <path d="m293.31 68.04-29.668-6.334c-4.959-1.064-7.887-5.035-6.499-8.838l6.279-17.287c1.388-3.803 6.567-6.048 11.525-4.984l29.668 6.334L293.31 68.04Z" fill="#FFA28C"/>
        <path opacity=".15" d="M340.798 52.103 334.52 69.39c-1.016 2.816-4.13 4.776-7.684 5.165.22-.35.406-.727.542-1.103l6.278-17.287c1.388-3.803-1.54-7.774-6.498-8.838l-59.353-12.68a12.007 12.007 0 0 0-3.842-.182c1.896-3.115 6.533-4.828 10.984-3.88l59.353 12.68c4.941 1.064 7.869 5.035 6.498 8.838Z" fill="#000"/>
        <path opacity=".25" d="M264.031 56.526c-.627 1.74.71 3.57 2.978 4.05l49.012 10.46c2.268.48 4.655-.545 5.281-2.284.626-1.74-.711-3.569-2.979-4.05l-49.012-10.46c-2.268-.48-4.637.545-5.28 2.285Z" fill="#fff"/>
        <path d="m649.208 159.679-8.869 12.226c-2.318 3.205-.812 7.28 3.368 9.058l39.636 16.898c4.181 1.778 9.495.623 11.813-2.583l8.869-12.225c2.318-3.206.812-7.281-3.368-9.059l-39.636-16.898c-4.181-1.791-9.495-.622-11.813 2.583Z" fill="#AE7CFF"/>
        <path opacity=".15" d="m704.007 183.027-8.868 12.225c-1.743 2.414-5.196 3.66-8.563 3.375.152-.169.287-.325.406-.506l8.868-12.226c2.319-3.206.812-7.281-3.368-9.059l-39.636-16.897a10.402 10.402 0 0 0-3.25-.792c2.488-2.816 7.447-3.764 11.407-2.077l39.637 16.898c4.18 1.778 5.703 5.853 3.367 9.059Z" fill="#000"/>
        <path d="m681.431 176.902-5.399 7.437c-.778 1.064-.271 2.427 1.117 3.023 1.388.597 3.165.208 3.944-.856l5.398-7.437c.779-1.064.271-2.427-1.117-3.024-1.404-.597-3.181-.207-3.943.857ZM672.141 172.956l-5.399 7.436c-.779 1.064-.271 2.427 1.117 3.024s3.165.208 3.943-.856l5.399-7.437c.778-1.064.271-2.427-1.117-3.024-1.388-.61-3.165-.221-3.943.857ZM662.865 168.997l-5.399 7.436c-.779 1.065-.271 2.427 1.117 3.024s3.165.208 3.943-.856l5.399-7.437c.778-1.064.271-2.427-1.117-3.024s-3.165-.207-3.943.857Z" fill="#67B6FF"/>
        <path opacity=".8" d="M646.143 178.38c-.558.779-.186 1.752.83 2.181l14.859 6.281c1.016.429 2.285.143 2.843-.636.559-.778.187-1.752-.829-2.18l-14.859-6.282c-.999-.428-2.285-.142-2.844.636ZM665.893 186.726c-.559.779-.186 1.752.829 2.18l4.637 1.96c1.016.428 2.285.143 2.844-.636.558-.779.186-1.752-.83-2.18l-4.637-1.96c-.998-.428-2.285-.143-2.843.636Z" fill="#BBE2FF"/>
        <path d="M452.87 15.154a41.738 41.738 0 0 0-9.275-4.75 39.657 39.657 0 0 0-7.903-2.037c-6.195-.935-12.016-.221-16.197 2.245-.711.428-1.387.908-1.997 1.44-4.214 3.634-4.925 8.968-2.623 14.393 1.642 3.868 4.823 7.8 9.376 11.188.44.337.914.674 1.388.999a42.33 42.33 0 0 0 13.319 6.009c8.581 2.193 17.009 1.35 21.951-2.816l.118-.091c1.54-1.324 2.606-2.869 3.233-4.569 1.337-3.595.677-7.839-1.71-12.018-1.489-2.608-3.638-5.165-6.414-7.527a36.329 36.329 0 0 0-3.266-2.466Z" fill="#FB67AE"/>
        <path d="M457.491 37.437c-4.603-3.14-11.661-2.829-15.756.701-2.15 1.843-3.064 4.218-2.776 6.502 8.581 2.194 17.009 1.35 21.951-2.816-.508-1.635-1.659-3.18-3.419-4.387Z" fill="#D43B8B"/>
        <path d="M433.235 72.608c-4.806 2.44-8.953 5.27-12.337 8.332-2.793 2.505-5.078 5.165-6.787 7.865-4.079 6.411-4.976 13.043-1.963 18.559v.013a15.235 15.235 0 0 0 1.912 2.738c5.162 5.983 14.792 8.773 25.759 8.319 7.819-.337 16.315-2.323 24.337-5.996.795-.35 1.607-.739 2.386-1.142 6.837-3.465 12.338-7.735 16.23-12.277 7.328-8.553 8.953-18.079 3.097-25.061l-.135-.156c-1.879-2.18-4.35-3.932-7.261-5.256-6.16-2.816-14.317-3.712-22.983-2.687-5.398.636-10.983 2.025-16.433 4.166h-.017a62.607 62.607 0 0 0-5.805 2.583Z" fill="#7C9AFF"/>
        <path opacity=".1" d="M485.768 73.802c3.672 4.257 4.502 9.474 2.928 14.86-.525-2.323-1.608-4.529-3.334-6.515-9.19-10.668-32.698-11.2-52.499-1.168-11.898 6.035-19.75 14.51-22.12 22.621-2.284-10.175 6.415-22.802 22.509-30.966 19.819-10.019 43.309-9.5 52.516 1.168Z" fill="#000"/>
        <path d="M476.407 76.009c-7.582 3.841-9.664 11.667-4.654 17.481 2.623 3.037 6.668 4.932 11.018 5.49 7.328-8.553 8.952-18.079 3.097-25.06-3.25-.053-6.55.622-9.461 2.089ZM438.768 85.873c0-5.519 5.834-9.993 13.031-9.993 7.198 0 13.032 4.474 13.032 9.993 0 5.52-5.834 9.993-13.032 9.993-7.197 0-13.031-4.474-13.031-9.993ZM455.491 65.833a9.126 9.126 0 0 0 1.506 2.388c3.977 4.607 12.05 5.866 18.058 2.83 1.371-.701 2.522-1.571 3.419-2.531-6.161-2.817-14.318-3.725-22.983-2.687ZM444.016 105.223c-5.721 2.894-7.481 8.669-4.198 13.186 7.819-.338 16.315-2.323 24.337-5.996-.22-1.519-.897-3.011-2.064-4.361-3.961-4.607-12.067-5.879-18.075-2.829ZM414.111 88.793c-4.079 6.41-4.976 13.043-1.964 18.559v.013c4.011 1.492 8.902 1.362 12.88-.649 6.008-3.05 7.666-9.254 3.689-13.861-3.232-3.764-9.24-5.308-14.605-4.062ZM433.235 72.609c-4.806 2.44-8.953 5.27-12.337 8.332 3.926 1.363 8.648 1.194 12.523-.766 4.502-2.284 6.55-6.333 5.636-10.162a64.544 64.544 0 0 0-5.822 2.596Z" fill="#4D85DF"/>
        <path opacity=".25" d="m438.431 109.817.304.35c1.371 1.596 4.214 2.051 6.296.986l32.427-16.43c2.081-1.051 2.674-3.232 1.286-4.828l-.305-.35c-1.37-1.597-4.214-2.05-6.295-.987l-32.427 16.431c-2.099 1.051-2.674 3.231-1.286 4.828Z" fill="#fff"/>
        <path d="M784.65 147.622a35.24 35.24 0 0 0-7.345-6.411 34.13 34.13 0 0 0-6.939-3.517c-5.652-2.115-11.508-2.583-16.365-1.012a17.81 17.81 0 0 0-2.42.986c-5.281 2.674-7.752 7.67-7.346 13.368.288 4.062 2.048 8.475 5.298 12.628.321.415.66.83.998 1.232 3.063 3.544 6.821 6.399 10.832 8.423 7.548 3.803 15.959 4.647 22.119 1.61l.136-.065c1.929-.974 3.469-2.258 4.637-3.764 2.488-3.206 3.283-7.423 2.369-11.927-.558-2.803-1.777-5.697-3.672-8.527a35.397 35.397 0 0 0-2.302-3.024Z" fill="#FFDEC3"/>
        <path opacity=".1" d="M783.583 174.877c-3.758 1.908-8.361 2.336-13.117 1.518 2.048-.272 3.994-.843 5.755-1.726 9.426-4.776 9.883-16.962 1.032-27.241-5.314-6.178-12.795-10.253-19.971-11.473 8.987-1.181 20.123 3.323 27.333 11.681 8.851 10.278 8.394 22.478-1.032 27.241Z" fill="#000"/>
        <path d="M781.639 170.023c-3.385-3.932-10.29-5.022-15.435-2.414-2.691 1.363-4.349 3.466-4.84 5.724 7.548 3.803 15.959 4.646 22.12 1.609.051-1.687-.542-3.4-1.845-4.919ZM780.302 153.528c-2.691-3.115-8.158-3.972-12.22-1.921-4.061 2.063-5.178 6.255-2.504 9.37 2.691 3.115 8.157 3.971 12.219 1.921 4.062-2.051 5.196-6.256 2.505-9.37ZM790.625 159.173a9.92 9.92 0 0 0-2.099.779c-4.062 2.064-5.179 6.256-2.488 9.37.609.714 1.388 1.311 2.234 1.778 2.471-3.205 3.266-7.436 2.353-11.927ZM755.878 153.215c-2.555-2.959-7.649-3.881-11.643-2.18.287 4.062 2.047 8.474 5.297 12.627 1.337-.116 2.657-.467 3.842-1.077 4.061-2.05 5.178-6.242 2.504-9.37ZM770.366 137.694c-5.653-2.115-11.508-2.582-16.366-1.012-1.32 2.077-1.201 4.62.576 6.684 2.691 3.115 8.157 3.971 12.236 1.921 3.3-1.688 4.654-4.802 3.554-7.593ZM784.649 147.622a35.24 35.24 0 0 0-7.345-6.411c-1.202 2.038-1.049 4.491.677 6.502 2.014 2.336 5.602 3.401 8.97 2.92a37.412 37.412 0 0 0-2.302-3.011Z" fill="#DFBCA7"/>
        <path opacity=".25" d="m751.817 150.322-.304.155c-1.405.714-1.811 2.181-.863 3.271l14.504 16.833c.93 1.077 2.843 1.388 4.264.662l.305-.156c1.405-.714 1.811-2.181.863-3.271l-14.504-16.832c-.948-1.078-2.86-1.389-4.265-.662Z" fill="#fff"/>
        <path d="M470.389 209.265c3.824-27.722 36.229-47.817 72.38-44.885 36.15 2.933 62.356 27.783 58.531 55.504-3.824 27.722-36.229 47.818-72.379 44.886-36.151-2.933-62.356-27.783-58.532-55.505Z" fill="#FFB1DB"/>
        <path opacity=".1" d="M592.68 189.152c16.569 21.764 9.495 49.123-15.215 64.554 16.281-15.821 19.243-38.273 5.196-56.728-18.329-24.075-58.625-32.186-90.019-18.131a71.071 71.071 0 0 0-8.428 4.478c4.958-4.815 11.136-9.02 18.447-12.304 31.377-14.055 71.69-5.944 90.019 18.131Z" fill="#000"/>
        <path d="M534.92 215.289c8.124-20.778-17.483-35.807-40.956-39.389a71.797 71.797 0 0 1 8.716-4.672c6.431-2.881 13.234-4.815 20.139-5.879 21.528 10.954 28.23 35.34 12.101 49.94ZM534.92 215.291c-5.788 19.895 18.109 36.001 42.361 38.753a69.622 69.622 0 0 1-8.225 4.347c-6.685 2.998-13.777 4.971-20.969 6.009-20.343-10.992-29.804-33.042-13.167-49.109Z" fill="#FB67AE"/>
        <path d="M534.919 215.292c23.676-6.904 34.559-30.59 23.964-47.747 9.85 2.816 18.853 7.437 26.097 13.692-1.777 19.428-23.524 37.053-50.061 34.055ZM534.919 215.291c-24.743 4.997-32.63 30.109-23.406 46.397-9.681-2.946-18.498-7.67-25.556-13.977 3.25-18.17 23.373-36.794 48.962-32.42Z" fill="#FB67AE"/>
        <path d="M534.918 215.29c-18.38-13.705-48.454-7.112-64.092 7.242-1.641-8.15-.626-16.43 2.81-24.1 21.493-6.892 54.072-2.998 61.282 16.858ZM534.918 215.291c19.835 13.355 53.074 7.618 65.92-8.501 1.726 8.189.744 16.521-2.674 24.244-23.17 8.565-54.191 2.53-63.246-15.743Z" fill="#FB67AE"/>
        <path d="M534.815 204.166c8.018-.995 15.57 3.184 16.867 9.333 1.297 6.149-4.152 11.94-12.17 12.935-8.019.994-15.57-3.184-16.868-9.333-1.297-6.149 4.152-11.94 12.171-12.935Z" fill="#FB67AE"/>
        <path opacity=".25" d="M521.081 209.261c18.132-2.242 35.201 7.212 38.125 21.116 2.924 13.904-9.404 26.993-27.536 29.236-18.132 2.242-35.201-7.212-38.124-21.116-2.924-13.905 9.404-26.994 27.535-29.236ZM480.931 207.828c0-5.118 5.41-9.266 12.083-9.266 6.674 0 12.084 4.148 12.084 9.266s-5.41 9.267-12.084 9.267c-6.673 0-12.083-4.149-12.083-9.267Z" fill="#fff"/>
        <path d="m106.079 150.879 26.012-5.139c4.248-.844 8.107 2.167 6.922 5.412l-7.21 19.843c-1.184 3.245-6.498 4.296-9.579 1.895l-18.802-14.704c-3.08-2.414-1.608-6.463 2.657-7.307Z" fill="#5D00FF"/>
        <path opacity=".15" d="m117.857 148.555-11.796 2.323c-4.248.844-5.737 4.893-2.657 7.307l8.529 6.658 5.924-16.288Z" fill="#000"/>
        <path d="m36.62 130.427-6.278 17.287c-1.388 3.802 1.54 7.774 6.499 8.838l59.353 12.68c4.958 1.064 10.137-1.181 11.525-4.984l6.279-17.287c1.388-3.803-1.54-7.774-6.499-8.838l-59.353-12.68c-4.959-1.064-10.154 1.181-11.525 4.984Z" fill="#5D00FF"/>
        <path d="m66.51 162.885-29.668-6.333c-4.959-1.064-7.886-5.036-6.499-8.838l6.28-17.287c1.387-3.803 6.566-6.048 11.524-4.984l29.668 6.333-11.305 31.109Z" fill="#008DFF"/>
        <path opacity=".15" d="m113.997 146.947-6.279 17.287c-1.015 2.816-4.129 4.776-7.683 5.165.22-.35.406-.727.541-1.103l6.279-17.287c1.388-3.803-1.54-7.774-6.499-8.838l-59.352-12.68a12.046 12.046 0 0 0-3.842-.182c1.895-3.114 6.532-4.828 10.983-3.88l59.353 12.68c4.942 1.051 7.87 5.035 6.499 8.838Z" fill="#000"/>
        <path opacity=".25" d="M37.23 151.374c-.626 1.739.71 3.569 2.979 4.049l49.012 10.46c2.267.48 4.654-.545 5.28-2.284.626-1.739-.71-3.569-2.979-4.049L42.51 149.089c-2.268-.493-4.637.546-5.28 2.285Z" fill="#fff"/>
        <path d="m37.484 216.965-6.093 8.397c-1.59 2.194-.558 4.997 2.32 6.217l27.23 11.615c2.86 1.22 6.516.429 8.107-1.778l6.092-8.397c1.591-2.193.559-4.996-2.318-6.216L45.59 215.187c-2.86-1.22-6.516-.415-8.107 1.778Z" fill="#AE7CFF"/>
        <path opacity=".15" d="m75.14 233.007-6.094 8.41c-1.201 1.661-3.57 2.518-5.89 2.323.102-.117.204-.221.289-.35l6.092-8.397c1.591-2.194.559-4.997-2.318-6.217l-27.231-11.615a7.378 7.378 0 0 0-2.234-.545c1.71-1.934 5.128-2.583 7.836-1.428l27.23 11.616c2.878 1.206 3.927 4.01 2.32 6.203Z" fill="#000"/>
        <path d="m59.62 228.802-3.707 5.113c-.525.74-.186 1.661.779 2.077.964.402 2.166.142 2.707-.597l3.707-5.114c.524-.74.186-1.661-.779-2.076-.947-.403-2.166-.13-2.708.597ZM53.256 226.09l-3.706 5.113c-.525.727-.186 1.662.778 2.077.965.402 2.166.143 2.708-.597l3.706-5.114c.525-.726.187-1.661-.778-2.076-.965-.402-2.183-.143-2.708.597ZM46.875 223.365l-3.707 5.113c-.524.727-.186 1.662.779 2.077.948.402 2.166.143 2.708-.597l3.706-5.113c.525-.727.186-1.662-.778-2.077-.965-.402-2.184-.13-2.708.597Z" fill="#67B6FF"/>
        <path opacity=".8" d="M48.958 235.552c-.39.532-.136 1.207.558 1.505l3.182 1.35c.694.298 1.574.104 1.963-.428.39-.533.135-1.207-.559-1.506l-3.181-1.35c-.694-.298-1.574-.103-1.963.429Z" fill="#BBE2FF"/>
        <path d="M110.983 254.047c-2.048.752-3.978 1.622-5.738 2.608a35.22 35.22 0 0 0-5.398 3.673c-2.454 2.051-4.485 4.348-6.042 6.827-1.794 2.842-2.945 5.918-3.402 9.071-.575 3.933-.068 7.982 1.642 11.902a23.958 23.958 0 0 0 1.658 3.153 28.67 28.67 0 0 0 3.825 4.854 32.89 32.89 0 0 0 6.16 4.893c3.284 2.024 6.973 3.595 10.916 4.646a46.247 46.247 0 0 0 10.866 1.557c2.42.052 4.874-.064 7.328-.389a45.631 45.631 0 0 0 7.937-1.778c.508-.169 1.033-.337 1.54-.532a45.262 45.262 0 0 0 4.045-1.713 36.81 36.81 0 0 0 6.042-3.712 31.625 31.625 0 0 0 4.13-3.764 26.642 26.642 0 0 0 4.163-5.996c1.032-2.063 1.76-4.23 2.132-6.45.88-5.152-.101-10.551-3.232-15.6-2.742-4.412-6.787-8.033-11.627-10.694a40.429 40.429 0 0 0-7.497-3.192 45.455 45.455 0 0 0-8.445-1.765 46.526 46.526 0 0 0-6.33-.299 45.913 45.913 0 0 0-7.514.753 44.504 44.504 0 0 0-7.159 1.947Z" fill="#C3C11E"/>
        <path d="M125.654 251.345c2.793 11.408 7.396 21.22 12.423 29.331a114.116 114.116 0 0 0 14.284 18.429 31.616 31.616 0 0 0 4.129-3.763c-8.309-8.968-19.31-23.828-24.506-43.685a43.039 43.039 0 0 0-6.33-.312ZM140.412 253.409c2.776 8.578 6.499 16.119 10.51 22.582a112.163 112.163 0 0 0 9.715 13.354c1.032-2.063 1.76-4.231 2.132-6.45-5.314-6.904-10.831-15.716-14.842-26.294-2.336-1.298-4.858-2.362-7.515-3.192ZM112.235 253.605c2.708 12.446 7.599 23.062 12.981 31.745a112.241 112.241 0 0 0 15.519 19.701c.508-.169 1.032-.338 1.54-.532a45.56 45.56 0 0 0 4.045-1.714c-8.987-9.019-23.051-26.41-28.179-50.706a44.22 44.22 0 0 0-5.906 1.506ZM105.246 256.641a35.32 35.32 0 0 0-5.399 3.673c2.776 11.577 7.43 21.518 12.507 29.72a112.583 112.583 0 0 0 13.116 17.184c2.42.051 4.874-.065 7.328-.39-9.02-9.201-22.576-26.385-27.552-50.187ZM93.805 267.141c-1.794 2.842-2.945 5.918-3.402 9.071 2.556 6.918 5.737 13.095 9.088 18.52 1.371 2.22 2.793 4.322 4.197 6.295 3.284 2.024 6.973 3.595 10.916 4.646-7.514-8.877-16.162-21.894-20.8-38.532Z" fill="#fff"/>
        <path opacity=".15" d="M159.555 267.282c4.738 7.631 4.535 16.093.423 23.257.727-4.997-.288-10.188-3.3-15.068-8.632-13.939-30.379-19.87-48.556-13.251-8.225 2.998-14.3 8.047-17.702 13.978 1.354-9.306 8.75-17.871 20.579-22.18 18.177-6.606 39.907-.675 48.556 13.264Z" fill="#000"/>
        <path d="M14.728 28.963C16.084 1.108 46.63-20.63 82.955-19.59c36.325 1.04 64.673 24.464 63.317 52.32-1.356 27.855-31.902 49.594-68.227 48.554-36.325-1.04-64.673-24.464-63.317-52.32Z" fill="#FFB1DB"/>
        <path opacity=".1" d="M137.353 5.37c16.569 21.765 9.495 49.123-15.215 64.555 16.281-15.82 19.243-38.273 5.196-56.728-18.329-24.075-58.625-32.186-90.02-18.13a71.207 71.207 0 0 0-8.428 4.477c4.96-4.815 11.137-9.02 18.448-12.304 31.394-14.055 71.69-5.93 90.019 18.13Z" fill="#000"/>
        <path d="M79.605 31.522c-5.788 19.896 18.11 36.002 42.361 38.753a69.527 69.527 0 0 1-8.225 4.348c-6.685 2.998-13.776 4.97-20.969 6.009-20.36-11.006-29.803-33.056-13.167-49.11Z" fill="#FB67AE"/>
        <path d="M79.606 31.52C54.863 36.518 46.976 61.63 56.2 77.919c-9.68-2.946-18.498-7.67-25.556-13.978 3.25-18.169 23.373-36.806 48.962-32.42ZM79.608 31.522c19.835 13.355 53.074 7.619 65.919-8.5 1.726 8.189.745 16.52-2.674 24.243-23.186 8.566-54.191 2.53-63.245-15.743Z" fill="#FB67AE"/>
        <path opacity=".25" d="M37.805 50.638c0-14.085 14.889-25.503 33.256-25.503 18.366 0 33.255 11.418 33.255 25.503 0 14.084-14.889 25.502-33.255 25.502-18.367 0-33.256-11.418-33.256-25.502Z" fill="#fff"/>
        <path d="m520.059 26.549-6.093 8.41c-1.591 2.193-.558 4.996 2.319 6.216l27.231 11.616c2.86 1.22 6.515.428 8.106-1.778l6.093-8.397c1.591-2.194.559-4.997-2.319-6.217l-27.231-11.616c-2.86-1.232-6.515-.44-8.106 1.765Z" fill="#AE7CFF"/>
        <path opacity=".15" d="M557.715 42.59 551.622 51c-1.201 1.661-3.571 2.518-5.889 2.323.101-.117.203-.22.287-.35l6.093-8.397c1.591-2.194.559-4.997-2.319-6.217l-27.23-11.615a7.426 7.426 0 0 0-2.234-.546c1.709-1.933 5.128-2.582 7.835-1.427l27.231 11.615c2.878 1.194 3.91 3.998 2.319 6.204Z" fill="#000"/>
        <path opacity=".8" d="M531.533 45.133c-.389.532-.136 1.207.558 1.505l3.182 1.35c.694.298 1.574.104 1.963-.428s.136-1.207-.558-1.506l-3.182-1.35c-.711-.298-1.591-.103-1.963.429Z" fill="#BBE2FF"/>
        <path d="M820.088 41.656c.863-1.012 2.607-1.323 3.96-.687 1.354.636 1.761 1.985.965 3.023l1.93.922c.896-.883 2.521-1.13 3.791-.52 1.269.598 1.709 1.83 1.083 2.843l1.963.934c.897-.882 2.522-1.129 3.791-.519 1.269.597 1.709 1.83 1.083 2.843l1.929.921c.847-1.012 2.607-1.324 3.961-.688 1.354.636 1.777 1.986.964 3.024l-1.303 1.61c-4.332 5.36-13.59 7.034-20.597 3.711-6.989-3.322-9.172-10.421-4.84-15.794l1.32-1.623Z" fill="#FDCFCA"/>
        <path opacity=".15" d="M816.618 48.183c-.525 4.218 2.014 8.501 7.007 10.876 4.992 2.362 11.136 2.193 15.807-.039l-22.814-10.837Z" fill="#000"/>
        <path d="M789.895 122.627c-.863 1.012-2.606 1.323-3.96.687-1.354-.636-1.76-1.985-.965-3.024l-1.929-.921c-.897.883-2.522 1.129-3.791.519-1.269-.597-1.709-1.83-1.083-2.842l-1.963-.935c-.897.883-2.522 1.13-3.791.52-1.27-.597-1.71-1.83-1.083-2.843l-1.93-.921c-.846 1.012-2.606 1.324-3.96.688-1.354-.636-1.777-1.986-.965-3.024l1.303-1.609c4.333-5.36 13.591-7.035 20.597-3.712 6.99 3.322 9.173 10.421 4.84 15.794l-1.32 1.623Z" fill="#FDCFCA"/>
        <path opacity=".15" d="M793.348 116.099c.525-4.218-2.014-8.501-7.006-10.876-4.993-2.362-11.136-2.194-15.807.039l22.813 10.837Z" fill="#000"/>
        <path d="m803.267 53.338-32.698 40.518c-.033.052-.084.104-.118.156-2.573 3.36-1.168 7.748 3.165 9.811l20.072 9.526c.964.454 1.963.753 3.012.922 3.791.61 7.836-.623 9.985-3.271l32.698-40.518c2.725-3.387 1.354-7.865-3.063-9.967l-20.072-9.526c-2.488-1.181-5.433-1.363-8.022-.688-1.981.519-3.775 1.557-4.959 3.037Z" fill="#865868"/>
        <path d="m803.266 53.337-2.488 3.076 30.785 23.75 5.906-7.307L808.241 50.3c-1.997.519-3.791 1.557-4.975 3.037ZM796.564 61.63l-5.889 7.307L821.443 92.7l5.906-7.32-30.785-23.75ZM786.443 74.168l-5.89 7.294 30.785 23.763 5.89-7.307-30.785-23.75ZM776.34 86.69l-5.771 7.164c-.034.052-.085.104-.119.156l26.25 20.259c3.791.61 7.836-.623 9.985-3.271l.44-.545L776.34 86.69Z" fill="#FDCFCA"/>
        <path opacity=".15" d="M808.124 50.43c2.589-.674 5.534-.493 8.022.688l20.072 9.526c3.165 1.506 4.755 4.231 4.4 6.905a8.928 8.928 0 0 0-2.082-1.35l-20.072-9.526c-2.487-1.181-5.432-1.363-8.022-.688-1.997.52-3.774 1.557-4.975 3.037L772.769 99.54c-.034.052-.084.104-.118.156a6.042 6.042 0 0 0-1.236 2.907c-2.64-2.284-3.198-5.71-1.083-8.462.034-.052.068-.104.119-.156l32.697-40.518c1.202-1.48 2.996-2.517 4.976-3.037Z" fill="#000"/>
        <path opacity=".25" d="M813.284 86.106c2.928 1.389 6.804.688 8.631-1.557l8.496-10.526c1.811-2.245.897-5.217-2.031-6.619-2.928-1.388-6.803-.688-8.631 1.558l-8.496 10.525c-1.811 2.258-.897 5.23 2.031 6.619ZM805.027 96.333c2.928 1.389 6.803.688 8.631-1.557l.948-1.168c1.811-2.245.897-5.217-2.031-6.62-2.928-1.388-6.803-.687-8.631 1.558l-.948 1.168c-1.811 2.259-.897 5.23 2.031 6.62Z" fill="#fff"/>
        <path d="M306.069 207.92c1.388 2.245 4.925 3.205 7.853 2.141l71.013-25.879c2.928-1.064 4.181-3.776 2.793-6.021-1.388-2.246-4.925-3.206-7.853-2.142l-71.013 25.879c-2.928 1.064-4.198 3.776-2.793 6.022Z" fill="#FEAB57"/>
        <path opacity=".15" d="M387.745 178.186c1.253 2.025.356 4.426-1.98 5.659a3.513 3.513 0 0 0-.558-2.232c-1.388-2.246-4.925-3.206-7.853-2.142L306.34 205.35a7.093 7.093 0 0 0-.812.363c.135-1.583 1.354-3.063 3.351-3.79l71.013-25.878c2.928-1.064 6.465-.104 7.853 2.141Z" fill="#000"/>
        <path d="M377.88 149.557c-2.048.753-3.977 1.622-5.738 2.609a35.196 35.196 0 0 0-5.398 3.673c-2.454 2.05-4.485 4.347-6.042 6.826-1.794 2.842-2.945 5.918-3.402 9.072-.575 3.932-.068 7.981 1.642 11.901a24.038 24.038 0 0 0 1.658 3.154 28.68 28.68 0 0 0 3.825 4.853 32.853 32.853 0 0 0 6.16 4.893c3.284 2.025 6.973 3.595 10.916 4.646a46.247 46.247 0 0 0 10.866 1.558 47.98 47.98 0 0 0 7.328-.39 45.631 45.631 0 0 0 7.937-1.778c.508-.168 1.033-.337 1.54-.532a45.262 45.262 0 0 0 4.045-1.713 36.81 36.81 0 0 0 6.042-3.712 31.62 31.62 0 0 0 4.13-3.763 26.687 26.687 0 0 0 4.163-5.996c1.032-2.064 1.76-4.231 2.132-6.45.88-5.153-.101-10.552-3.232-15.6-2.742-4.413-6.787-8.034-11.627-10.694-2.336-1.298-4.857-2.362-7.497-3.193a45.617 45.617 0 0 0-8.445-1.765 46.526 46.526 0 0 0-6.33-.298 45.802 45.802 0 0 0-7.514.752c-1.981.364-3.961.87-5.89 1.506-.423.155-.846.298-1.269.441Z" fill="#E7C26B"/>
        <path d="M392.553 146.87c2.793 11.408 7.396 21.219 12.423 29.331a114.116 114.116 0 0 0 14.284 18.429 31.551 31.551 0 0 0 4.129-3.764c-8.31-8.968-19.31-23.828-24.506-43.685a42.93 42.93 0 0 0-6.33-.311ZM407.312 148.921c2.775 8.578 6.499 16.119 10.51 22.582a112.15 112.15 0 0 0 9.714 13.355c1.032-2.064 1.76-4.231 2.132-6.451-5.314-6.904-10.831-15.716-14.842-26.294a40.984 40.984 0 0 0-7.514-3.192ZM379.133 149.129c2.707 12.446 7.599 23.062 12.98 31.745a112.275 112.275 0 0 0 15.52 19.7c.508-.168 1.032-.337 1.54-.532a45.262 45.262 0 0 0 4.045-1.713c-8.987-9.02-23.051-26.41-28.179-50.706a44.22 44.22 0 0 0-5.906 1.506ZM372.141 152.168a35.255 35.255 0 0 0-5.399 3.673c2.776 11.576 7.43 21.517 12.507 29.72a112.684 112.684 0 0 0 13.116 17.183c2.42.052 4.874-.065 7.328-.389-9.02-9.215-22.576-26.385-27.552-50.187ZM360.7 162.666c-1.794 2.842-2.945 5.918-3.402 9.071 2.556 6.918 5.72 13.095 9.088 18.52a116 116 0 0 0 4.197 6.295c3.284 2.024 6.973 3.595 10.917 4.646-7.515-8.877-16.163-21.894-20.8-38.532Z" fill="#fff"/>
        <path opacity=".15" d="M426.452 162.807c4.738 7.631 4.535 16.093.423 23.257.727-4.997-.288-10.188-3.301-15.068-8.631-13.938-30.378-19.869-48.555-13.25-8.225 2.998-14.301 8.046-17.702 13.977 1.354-9.305 8.749-17.871 20.579-22.18 18.177-6.606 39.924-.675 48.556 13.264Z" fill="#000"/>
        <path opacity=".15" d="m385.19 174.085-26.25 9.565a23.973 23.973 0 0 0 1.659 3.153 28.637 28.637 0 0 0 3.825 4.854l25.809-9.409-5.043-8.163Z" fill="#000"/>
        <path opacity=".5" d="M391.894 180.886c-4.57 1.661-6.516 5.853-4.35 9.357 2.167 3.504 7.633 4.996 12.203 3.335 4.569-1.661 6.516-5.853 4.349-9.357-2.166-3.517-7.632-5.01-12.202-3.335ZM406.944 186.167c1.155-1.936 4.138-2.786 6.662-1.9 2.524.886 3.633 3.174 2.478 5.109-1.156 1.936-4.139 2.786-6.663 1.9-2.524-.886-3.633-3.174-2.477-5.109Z" fill="#fff"/>
        <path d="m381.28 280.636 1.861-28.409c.305-4.646-6.075-7.8-11.457-5.685l-1.439.571-16.602 6.528-14.961 5.879c-.88.351-1.642.792-2.251 1.311l-.356.312a6.456 6.456 0 0 0-.863 1.038c-.304.48-.541.986-.677 1.518-.017.013 0 .013 0 .013a4.772 4.772 0 0 0 .203 2.985c.373.935 1.05 1.804 2.014 2.531.119.091.254.182.39.273.27.168.541.337.846.48l14.131 6.995 15.655 7.761 1.371.675c5.06 2.518 11.813-.13 12.135-4.776Z" fill="#FB67AE"/>
        <path opacity=".15" d="m353.61 253.642-14.961 5.879c-5.399 2.128-5.788 7.93-.694 10.46l14.115 6.996 1.54-23.335Z" fill="#000"/>
        <path d="m381.28 280.636 1.861-28.409c.305-4.647-6.075-7.8-11.457-5.685l-1.439.571-2.488 37.624 1.371.675c5.077 2.518 11.83-.13 12.152-4.776Z" fill="#D43B8B"/>
        <path d="m203.41 243.726-1.862 28.41c-.305 4.646 6.076 7.8 11.457 5.684l1.439-.571 16.603-6.528 14.96-5.879c.881-.35 1.642-.792 2.251-1.311l.356-.311a6.5 6.5 0 0 0 .863-1.038c.305-.481.541-.987.677-1.519.017-.013 0-.013 0-.013a4.765 4.765 0 0 0-.203-2.985c-.373-.934-1.049-1.804-2.014-2.531-.119-.091-.254-.181-.389-.272-.271-.169-.542-.338-.847-.48l-14.131-6.996-15.655-7.761-1.371-.675c-5.06-2.517-11.83.13-12.134 4.776Z" fill="#FB67AE"/>
        <path opacity=".15" d="m231.082 270.722 14.961-5.879c5.399-2.129 5.788-7.93.694-10.461l-14.115-6.995-1.54 23.335Z" fill="#000"/>
        <path d="m203.408 243.726-1.861 28.41c-.305 4.646 6.075 7.8 11.457 5.684l1.439-.571 2.488-37.624-1.371-.675c-5.077-2.518-11.847.13-12.152 4.776Z" fill="#D43B8B"/>
        <path d="M287.351 233.966a94.831 94.831 0 0 0-9.427.895c-5.06.74-9.782 1.882-14.064 3.349-13.455 4.594-22.475 12.472-23.085 21.699-.66 9.928 8.598 19.026 23.085 24.581 4.282 1.648 9.004 2.972 14.064 3.919 3.029.571 6.194 1 9.427 1.285 1.59.143 3.215.247 4.857.312 3.131.116 6.211.091 9.223-.065a94.12 94.12 0 0 0 9.427-.961c5.06-.791 9.799-1.972 14.064-3.478 13.065-4.633 21.815-12.381 22.424-21.466.644-9.772-8.326-18.753-22.424-24.321-4.248-1.687-8.987-3.05-14.064-4.049-3.029-.597-6.177-1.038-9.427-1.35a107.64 107.64 0 0 0-5.534-.363 89.169 89.169 0 0 0-8.546.013Z" fill="#FB67AE"/>
        <path d="M310.859 235.64v53.327c5.061-.792 9.799-1.973 14.064-3.478v-45.8c-4.248-1.687-8.986-3.063-14.064-4.049ZM287.353 233.967v55.715a97.36 97.36 0 0 0 4.857.312 104 104 0 0 0 9.224-.065v-55.625a107.68 107.68 0 0 0-5.535-.363 93.565 93.565 0 0 0-8.546.026ZM277.925 234.848c-5.06.74-9.782 1.882-14.064 3.348v46.294c4.282 1.648 9.004 2.972 14.064 3.919v-53.561Z" fill="#D43B8B"/>
        <path opacity=".15" d="M295.967 233.926c29.431 1.129 52.464 14.601 51.449 30.084-.491 7.41-6.414 13.938-15.672 18.611 2.674-3.141 4.282-6.606 4.536-10.305 1.015-15.483-22.018-28.955-51.449-30.084-15.334-.597-29.381 2.285-39.451 7.372 8.53-10.006 28.179-16.534 50.587-15.678Z" fill="#000"/>
        <path opacity=".25" d="M265.758 270.267c0-4.587 10.623-8.306 23.727-8.306 13.105 0 23.728 3.719 23.728 8.306 0 4.588-10.623 8.306-23.728 8.306-13.104 0-23.727-3.718-23.727-8.306Z" fill="#fff"/>
        <path d="m664.084 83.65 20.698 17.547c3.385 2.869 9.562 1.856 11.103-1.83l.423-.986 4.755-11.33 4.299-10.214a4.02 4.02 0 0 0 .288-2.141 3.513 3.513 0 0 0-.305-1 4.982 4.982 0 0 0-.761-1.194c0-.012 0 0 0 0-.61-.7-1.439-1.271-2.404-1.66a7.881 7.881 0 0 0-3.131-.572c-.152 0-.287.013-.44.013-.287.013-.575.052-.863.091l-13.674 2.258-15.164 2.492-1.337.22c-4.925.831-6.872 5.439-3.487 8.307Z" fill="#AE98FF"/>
        <path opacity=".15" d="m701.063 87.051 4.299-10.2c1.557-3.687-2.674-7.269-7.616-6.464l-13.674 2.258 16.991 14.406Z" fill="#000"/>
        <path d="m664.085 83.65 20.698 17.547c3.385 2.869 9.562 1.856 11.102-1.83l.423-.986-27.4-23.244-1.337.22c-4.925.818-6.871 5.426-3.486 8.294Z" fill="#6857DF"/>
        <path d="M705.968 40.043a52.78 52.78 0 0 0-4.857 4.776c-2.403 2.725-4.316 5.515-5.72 8.319-4.384 8.773-3.656 17.468 3.063 23.179 7.226 6.139 19.649 7.32 32.443 4.05a63.586 63.586 0 0 0 11.289-4.05 66.155 66.155 0 0 0 9.629-5.516 57.217 57.217 0 0 0 5.365-4.192 50.415 50.415 0 0 0 4.807-4.815c2.386-2.751 4.248-5.58 5.602-8.397 4.129-8.617 3.334-17.13-3.284-22.737-7.125-6.048-19.276-7.281-31.851-4.192a65.13 65.13 0 0 0-11.39 3.97 65.745 65.745 0 0 0-6.583 3.466 56.824 56.824 0 0 0-3.537 2.284 55.626 55.626 0 0 0-4.976 3.855Z" fill="#AE98FF"/>
        <path d="m721.082 30.426 40.906 31.368c2.386-2.751 4.248-5.58 5.602-8.397l-35.135-26.943a64.493 64.493 0 0 0-11.373 3.972ZM705.969 40.043l42.751 32.783a62.729 62.729 0 0 0 3.097-2.012 57.478 57.478 0 0 0 5.365-4.191l-42.666-32.719a56.87 56.87 0 0 0-3.537 2.284 51.694 51.694 0 0 0-5.01 3.855ZM701.113 44.819c-2.403 2.725-4.315 5.515-5.72 8.319L730.9 80.365a63.54 63.54 0 0 0 11.288-4.05l-41.075-31.498Z" fill="#6857DF"/>
        <path opacity=".15" d="M711.013 36.136c18.176-12.602 42.073-15.08 53.344-5.516 5.399 4.582 6.922 11.084 5.061 18.014-.83-3.05-2.539-5.814-5.247-8.098-11.271-9.565-35.151-7.1-53.344 5.515-9.478 6.567-15.52 14.601-17.551 22.128-2.657-9.733 3.893-22.439 17.737-32.043Z" fill="#000"/>
        <path opacity=".25" d="M728.699 55.548c7.706-5.91 16.809-8.51 20.332-5.81 3.522 2.702.131 9.683-7.575 15.592-7.707 5.91-16.81 8.51-20.332 5.81-3.523-2.702-.132-9.683 7.575-15.592Z" fill="#fff"/>
      </g>
    </g>
    <g filter="url(#f)">
      <circle cx="552.53" cy="157.141" r="65.5" fill="#000" fill-opacity=".06"/>
    </g>
    <g filter="url(#g)">
      <circle cx="687.54" cy="157.141" r="65.5" fill="#000" fill-opacity=".06"/>
    </g>
    <g filter="url(#h)">
      <circle cx="822.54" cy="157.141" r="65.5" fill="#000" fill-opacity=".06"/>
    </g>
    <g filter="url(#i)">
      <circle cx="147.53" cy="157.141" r="65.5" fill="#000" fill-opacity=".06"/>
    </g>
    <g filter="url(#j)">
      <circle cx="282.54" cy="157.141" r="65.5" fill="#000" fill-opacity=".06"/>
    </g>
    <g filter="url(#k)">
      <circle cx="417.54" cy="157.141" r="65.5" fill="#000" fill-opacity=".06"/>
    </g>
  </g>
  <defs>
    <filter id="a" x="0" y="0" width="990" height="323" filterUnits="userSpaceOnUse" color-interpolation-filters="sRGB">
      <feFlood flood-opacity="0" result="BackgroundImageFix"/>
      <feColorMatrix in="SourceAlpha" values="0 0 0 0 0 0 0 0 0 0 0 0 0 0 0 0 0 0 127 0" result="hardAlpha"/>
      <feOffset dy="4"/>
      <feGaussianBlur stdDeviation="25"/>
      <feComposite in2="hardAlpha" operator="out"/>
      <feColorMatrix values="0 0 0 0 0 0 0 0 0 0 0 0 0 0 0 0 0 0 0.25 0"/>
      <feBlend in2="BackgroundImageFix" result="effect1_dropShadow_1_11744"/>
      <feBlend in="SourceGraphic" in2="effect1_dropShadow_1_11744" result="shape"/>
    </filter>
    <filter id="b" x="48" y="46.641" width="894" height="230" filterUnits="userSpaceOnUse" color-interpolation-filters="sRGB">
      <feFlood flood-opacity="0" result="BackgroundImageFix"/>
      <feColorMatrix in="SourceAlpha" values="0 0 0 0 0 0 0 0 0 0 0 0 0 0 0 0 0 0 127 0" result="hardAlpha"/>
      <feOffset dy="4"/>
      <feGaussianBlur stdDeviation="2"/>
      <feComposite in2="hardAlpha" operator="out"/>
      <feColorMatrix values="0 0 0 0 0 0 0 0 0 0 0 0 0 0 0 0 0 0 0.25 0"/>
      <feBlend in2="BackgroundImageFix" result="effect1_dropShadow_1_11744"/>
      <feBlend in="SourceGraphic" in2="effect1_dropShadow_1_11744" result="shape"/>
    </filter>
    <filter id="f" x="487.03" y="91.641" width="131" height="135" filterUnits="userSpaceOnUse" color-interpolation-filters="sRGB">
      <feFlood flood-opacity="0" result="BackgroundImageFix"/>
      <feBlend in="SourceGraphic" in2="BackgroundImageFix" result="shape"/>
      <feColorMatrix in="SourceAlpha" values="0 0 0 0 0 0 0 0 0 0 0 0 0 0 0 0 0 0 127 0" result="hardAlpha"/>
      <feOffset dy="4"/>
      <feGaussianBlur stdDeviation="12.5"/>
      <feComposite in2="hardAlpha" operator="arithmetic" k2="-1" k3="1"/>
      <feColorMatrix values="0 0 0 0 0 0 0 0 0 0 0 0 0 0 0 0 0 0 0.25 0"/>
      <feBlend in2="shape" result="effect1_innerShadow_1_11744"/>
    </filter>
    <filter id="g" x="622.04" y="91.641" width="131" height="135" filterUnits="userSpaceOnUse" color-interpolation-filters="sRGB">
      <feFlood flood-opacity="0" result="BackgroundImageFix"/>
      <feBlend in="SourceGraphic" in2="BackgroundImageFix" result="shape"/>
      <feColorMatrix in="SourceAlpha" values="0 0 0 0 0 0 0 0 0 0 0 0 0 0 0 0 0 0 127 0" result="hardAlpha"/>
      <feOffset dy="4"/>
      <feGaussianBlur stdDeviation="12.5"/>
      <feComposite in2="hardAlpha" operator="arithmetic" k2="-1" k3="1"/>
      <feColorMatrix values="0 0 0 0 0 0 0 0 0 0 0 0 0 0 0 0 0 0 0.25 0"/>
      <feBlend in2="shape" result="effect1_innerShadow_1_11744"/>
    </filter>
    <filter id="h" x="757.04" y="91.641" width="131" height="135" filterUnits="userSpaceOnUse" color-interpolation-filters="sRGB">
      <feFlood flood-opacity="0" result="BackgroundImageFix"/>
      <feBlend in="SourceGraphic" in2="BackgroundImageFix" result="shape"/>
      <feColorMatrix in="SourceAlpha" values="0 0 0 0 0 0 0 0 0 0 0 0 0 0 0 0 0 0 127 0" result="hardAlpha"/>
      <feOffset dy="4"/>
      <feGaussianBlur stdDeviation="12.5"/>
      <feComposite in2="hardAlpha" operator="arithmetic" k2="-1" k3="1"/>
      <feColorMatrix values="0 0 0 0 0 0 0 0 0 0 0 0 0 0 0 0 0 0 0.25 0"/>
      <feBlend in2="shape" result="effect1_innerShadow_1_11744"/>
    </filter>
    <filter id="i" x="82.03" y="91.641" width="131" height="135" filterUnits="userSpaceOnUse" color-interpolation-filters="sRGB">
      <feFlood flood-opacity="0" result="BackgroundImageFix"/>
      <feBlend in="SourceGraphic" in2="BackgroundImageFix" result="shape"/>
      <feColorMatrix in="SourceAlpha" values="0 0 0 0 0 0 0 0 0 0 0 0 0 0 0 0 0 0 127 0" result="hardAlpha"/>
      <feOffset dy="4"/>
      <feGaussianBlur stdDeviation="12.5"/>
      <feComposite in2="hardAlpha" operator="arithmetic" k2="-1" k3="1"/>
      <feColorMatrix values="0 0 0 0 0 0 0 0 0 0 0 0 0 0 0 0 0 0 0.25 0"/>
      <feBlend in2="shape" result="effect1_innerShadow_1_11744"/>
    </filter>
    <filter id="j" x="217.04" y="91.641" width="131" height="135" filterUnits="userSpaceOnUse" color-interpolation-filters="sRGB">
      <feFlood flood-opacity="0" result="BackgroundImageFix"/>
      <feBlend in="SourceGraphic" in2="BackgroundImageFix" result="shape"/>
      <feColorMatrix in="SourceAlpha" values="0 0 0 0 0 0 0 0 0 0 0 0 0 0 0 0 0 0 127 0" result="hardAlpha"/>
      <feOffset dy="4"/>
      <feGaussianBlur stdDeviation="12.5"/>
      <feComposite in2="hardAlpha" operator="arithmetic" k2="-1" k3="1"/>
      <feColorMatrix values="0 0 0 0 0 0 0 0 0 0 0 0 0 0 0 0 0 0 0.25 0"/>
      <feBlend in2="shape" result="effect1_innerShadow_1_11744"/>
    </filter>
    <filter id="k" x="352.04" y="91.641" width="131" height="135" filterUnits="userSpaceOnUse" color-interpolation-filters="sRGB">
      <feFlood flood-opacity="0" result="BackgroundImageFix"/>
      <feBlend in="SourceGraphic" in2="BackgroundImageFix" result="shape"/>
      <feColorMatrix in="SourceAlpha" values="0 0 0 0 0 0 0 0 0 0 0 0 0 0 0 0 0 0 127 0" result="hardAlpha"/>
      <feOffset dy="4"/>
      <feGaussianBlur stdDeviation="12.5"/>
      <feComposite in2="hardAlpha" operator="arithmetic" k2="-1" k3="1"/>
      <feColorMatrix values="0 0 0 0 0 0 0 0 0 0 0 0 0 0 0 0 0 0 0.25 0"/>
      <feBlend in2="shape" result="effect1_innerShadow_1_11744"/>
    </filter>
    <radialGradient id="c" cx="0" cy="0" r="1" gradientUnits="userSpaceOnUse" gradientTransform="matrix(13.00034 530.49973 -2117.22436 51.88435 495 167.141)">
      <stop stop-color="#FAF9F9"/>
      <stop offset="1" stop-color="#C09F9B"/>
    </radialGradient>
    <radialGradient id="d" cx="0" cy="0" r="1" gradientUnits="userSpaceOnUse" gradientTransform="rotate(12.589 -444.412 2168.732) scale(465.696 1858.59)">
      <stop stop-color="#F2E6FA"/>
      <stop offset="1" stop-color="#9C9A67" stop-opacity="0"/>
    </radialGradient>
  </defs>
</svg>