<svg width="157" height="158" fill="none" xmlns="http://www.w3.org/2000/svg">
  <path d="M155.669 74.284c-1.186-6.016-3.127-11.774-5.751-16.658-2.983-5.557-7.021-10.227-11.765-13.607-17.816-12.69-40.412-12.275-59.977-10.098-18.487 2.063-37.153 8.537-51.579 22.044-7.272 6.817-14.077 16.8-18.043 27.872-4.337 12.146-4.014 25.381-.839 37.77 5.092 19.88 24.49 28.589 39.981 32.9 26.574 7.405 57.293 3.051 80.392-13.206 13.767-9.696 25.52-25.71 28.312-44.917 1.018-6.975.718-14.724-.731-22.1Z" fill="url(#a)"/>
  <path d="M155.705 86.014c-.048.802-.12 1.604-.216 2.406a60.801 60.801 0 0 1-.287 2.106c-2.912 18.806-14.749 34.432-28.575 43.828-23.195 15.784-53.95 19.823-80.488 12.361-15.468-4.34-34.817-13.02-39.789-32.556-1.557-6.087-1.69-12.404-.755-18.606.587-3.967 1.606-7.906 2.972-11.716 3.953-11.072 10.759-21.055 18.03-27.873 14.426-13.506 33.092-19.98 51.58-22.043 10.303-1.16 21.433-1.805 32.276-.344.06.015.12.029.18.029 3.917.558 7.799 1.375 11.585 2.564.012 0 .012 0 .024.014.755.244 1.51.487 2.253.76 4.756 1.69 9.357 3.995 13.658 7.06a36.46 36.46 0 0 1 4.085 3.395c.084.072.168.158.24.243 9.178 8.952 13.754 22.588 13.323 36.21v.013c-.024.731-.048 1.447-.096 2.149Z" fill="url(#b)"/>
  <path d="M155.489 88.42a60.735 60.735 0 0 1-.287 2.106c-2.912 18.806-14.749 34.432-28.575 43.828-23.195 15.784-53.95 19.823-80.488 12.361-15.468-4.34-34.817-13.02-39.789-32.556-1.557-6.088-1.69-12.404-.755-18.606.204 3.939-.575 7.419.324 11.387 8.434 37.025 54.07 41.05 80.213 39.13 16.401-1.203 32.3-7.061 45.731-18.562 13.778-11.788 24.142-33.745 21.41-54.356-.719-5.486-2.396-10.742-4.9-15.412-2.84-5.328-6.949-9.467-11.382-12.805-3.99-2.993-9.873-7.59-14.593-8.45.695.129 1.39.272 2.085.458 4.756 1.69 9.357 3.996 13.658 7.061a36.472 36.472 0 0 1 4.085 3.395 2.1 2.1 0 0 1 .24.243 42.832 42.832 0 0 1 5.104 6.389c6.386 9.754 9.297 22.243 7.919 34.39Z" fill="url(#c)"/>
  <path d="M152.985 70.187c-.695 3.653-1.749 6.388-1.653 10.198 0 3.825 1.054 8.58-.132 12.203-1.402 4.312-5.272 8.795-7.548 12.576-1.701 2.836-3.486 5.772-6.002 7.548-.024.015-.036.029-.06.043-2.456 1.719-5.416 2.192-7.836 3.982-1.905 1.418-3.343 3.552-4.78 5.643l-.719 1.032c-5.559 7.863-13.323 13.907-21.889 14.939-2.361.286-4.745.2-7.117.1-.288-.014-.563-.029-.85-.029-4.086-.172-8.184-.329-12.27-.487-3.534-.129-7.727-1.088-11.13.33-5.798 2.42-10.806 6.345-16.917 5.285a13.224 13.224 0 0 1-2.983-.874c-1.857-.802-3.522-1.833-5.128-2.907-3.355-2.278-6.482-4.756-10.747-5.758-5.571-1.304-11.466-1.633-16.546-4.942-6.254-4.082-7.356-11.444-10.699-18.233-1.737-3.523-3.51-7.176-3.905-11.23-.588-5.929 1.88-11.744 5.151-16.256.144-.2.048.043.24-.072 21.254-12.761 37.884-34.36 61.414-38.557 6.374-1.132 12.832-1.604 19.266-2.063 17.169-1.246 34.877-2.334 52.045-3.566 6.566 4.956 10.771 13.908 11.286 23.146.156 2.65 0 5.342-.491 7.95Z" fill="url(#d)"/>
  <path d="M94.398 138.422c-4.085-.172-8.182-.329-12.268-.487-3.534-.129-7.728-1.088-11.13.33-5.8 2.42-10.807 6.345-16.917 5.285 3.69-.817 7.104-4.383 10.663-6.46 9.105-5.299 19.409-.73 29.653 1.332ZM137.65 112.712c-.024.014-.036.029-.06.043-2.456 1.719-5.415 2.192-7.835 3.982-1.905 1.418-3.343 3.552-4.781 5.643 1.21-2.764 2.408-5.557 4.493-7.376 2.324-2.034 5.248-2.421 8.183-2.292ZM153.476 62.238a114.313 114.313 0 0 1-2.144 8.322c-1.618 5.457-3.99 9.18-6.602 13.864-3.067 5.486-5.116 11.201-8.937 16.128-4.134 5.328-9.118 9.711-14.473 13.12-11.215 7.104-23.83 10.298-36.255 13.392-7.452 1.862-15.06 3.738-22.632 2.793-12.604-1.561-24.561-10.8-37.081-8.393-.611 3.294 2.072 6.23 4.78 7.219 2.696.988 5.667.902 8.207 2.363 3.14 1.805 5.188 5.729 7.632 8.723-3.355-2.278-6.482-4.756-10.747-5.758-5.571-1.304-11.466-1.633-16.546-4.942-6.254-4.082-7.356-11.444-10.699-18.233-1.737-3.523-3.51-7.176-3.905-11.23-.588-5.929 1.88-11.744 5.151-16.256.144-.2.048.043.24-.072 21.254-12.761 37.884-34.36 61.414-38.557 6.374-1.132 12.832-1.604 19.266-2.063 17.169-1.246 34.877-2.334 52.045-3.566 6.566 4.956 10.771 13.908 11.286 23.146Z" fill="#420B22"/>
  <path d="M150.661 41.541c-1.186-6.015-3.127-11.773-5.751-16.657-2.983-5.558-7.021-10.227-11.765-13.607C115.329-1.413 92.733-.998 73.168 1.179 54.68 3.24 36.015 9.715 21.59 23.222 14.317 30.04 7.512 40.023 3.546 51.095-.79 63.24-.467 76.475 2.708 88.865c5.092 19.88 24.489 28.588 39.98 32.9 26.574 7.405 57.293 3.05 80.393-13.206 13.766-9.697 25.519-25.71 28.311-44.917 1.03-6.961.719-14.724-.731-22.1Z" fill="url(#e)"/>
  <path d="M150.697 53.286c-.048.802-.12 1.605-.216 2.407-.084.701-.18 1.403-.287 2.105-2.912 18.806-14.749 34.433-28.575 43.829-23.195 15.784-53.95 19.823-80.488 12.36-15.468-4.339-34.817-13.019-39.79-32.556C-.215 75.344-.347 69.027.588 62.826c.587-3.968 1.605-7.907 2.971-11.717 3.954-11.072 10.76-21.055 18.032-27.872C36.015 9.73 54.68 3.256 73.168 1.193 83.47.033 94.602-.61 105.445.85a.769.769 0 0 0 .179.028c3.918.559 7.8 1.375 11.586 2.564.012 0 .012 0 .024.014a60.77 60.77 0 0 1 2.252.76c4.757 1.69 9.357 3.996 13.659 7.06a36.55 36.55 0 0 1 4.085 3.395c.084.072.168.158.24.244 9.177 8.952 13.754 22.587 13.323 36.209v.014a42.872 42.872 0 0 1-.096 2.148Z" fill="url(#f)"/>
  <path d="M150.481 55.692c-.084.702-.18 1.404-.287 2.106-2.912 18.806-14.749 34.433-28.575 43.828-23.195 15.784-53.95 19.824-80.488 12.361-15.468-4.34-34.817-13.019-39.79-32.556C-.215 75.344-.347 69.027.588 62.825c.204 3.94-.575 7.42.323 11.387 1.834 8.05 5.823 15.369 11.25 20.597 4.913 4.755 10.843 7.734 16.798 10.269 18.043 7.649 36.638 9.525 55.484 5.343 12.017-2.679 26.37-5.099 36.925-12.991 18.727-14.008 35.608-46.837 22.009-72.418-2.839-5.328-6.949-9.467-11.382-12.804-3.989-2.994-9.872-7.592-14.592-8.451.695.129 1.389.272 2.084.458 4.757 1.69 9.357 3.996 13.659 7.062a36.55 36.55 0 0 1 4.085 3.394c.084.072.168.158.24.244a42.832 42.832 0 0 1 5.104 6.388c6.374 9.754 9.285 22.244 7.907 34.39Z" fill="url(#g)"/>
  <path d="M54.286 56.165c1.557-.3 4.9.143 4.002 3.151-.336 1.103-1.27 1.733-2.145 2.206-1.965 1.06-4.54 2.65-6.326.258-2.312-3.08 2.588-5.257 4.469-5.615Z" fill="url(#h)"/>
  <path d="M94.278 41.298c.934-.53 2-.745 3.055-.888 1.222-.157 2.504-.229 3.63.258 1.126.501 2.025 1.733 1.773 2.965-.167.83-.802 1.49-1.545 1.876-1.977 1.031-6.937 2.464-8.567.13-1.018-1.433.42-3.639 1.654-4.34Z" fill="url(#i)"/>
  <path d="M23.171 80.443c2.025-.545 4.17-1.461 5.272-3.595.095-.187.18-.373.215-.588.06-.386-.048-.773-.227-1.117-1.366-2.635-6.099-1.805-7.968-.372-1.042.802-3.342 3.18-2.672 4.827.767 1.905 4.146 1.174 5.38.845Z" fill="url(#j)"/>
  <path d="M132.665 35.726c.887-.372 1.881-1.16 1.774-2.292-.108-1.088-1.175-1.575-2.061-1.804-1.582-.387-3.223-.645-4.793-.2-1.521.429-4.708 2.72-2.851 4.683 1.677 1.761 6.146.386 7.931-.387Z" fill="url(#k)"/>
  <path d="M109.326 55.664c-.084.215-.156.458-.132.702.048.444.431.702.767.873 3.175 1.619 7.057.989 9.776-1.575 3.367-3.18.252-6.23-2.947-5.844-2.959.387-6.206 2.478-7.464 5.844Z" fill="url(#l)"/>
  <path d="M74.498 69.429c-.084.171-.168.358-.156.544.024.344.3.558.551.702a6.6 6.6 0 0 0 5.463.501c1.426-.501 3.595-1.905 4.218-3.681 1.126-3.208-2.157-3.882-3.894-3.251-2.372.859-4.828 2.635-6.182 5.185Z" fill="url(#m)"/>
  <path d="M41.37 86.945c-.383.401-.767.888-.779 1.504-.012.63.395 1.189.875 1.432.479.244 1.018.215 1.545.158 1.606-.186 3.187-.73 4.649-1.59 1.126-.673 2.192-1.547 2.935-2.764 1.702-2.765-2.132-3.18-3.474-2.55-1.965.888-4.146 2.149-5.751 3.81Z" fill="url(#n)"/>
  <path d="M74.378 87.532c2.528 1.132.551 3.38-.983 4.512-2.012 1.475-4.672 3.18-7.008 1.647-.911-.587-1.57-1.905-1.258-3.108.874-3.394 6.637-4.053 8.985-3.18.084.043.18.086.264.13Z" fill="url(#o)"/>
  <path d="M106.642 69.672c1.438-.53 2.947-.716 4.457-.888.347-.043.719-.086 1.054.086.707.343.911 1.546.599 2.392-.311.845-.994 1.403-1.653 1.862-2.444 1.675-5.236 2.606-8.051 2.65-3.978.057 2.396-5.658 3.594-6.102Z" fill="url(#p)"/>
  <path d="M100.412 91.114c.36.071.779.243.863.673.036.215-.024.43-.096.63-1.33 3.781-5.032 6.073-8.339 5.17-.67-.185-1.401-.6-1.557-1.403-.192-1.002.623-1.848 1.342-2.406 2.108-1.662 5.235-3.137 7.787-2.664Z" fill="url(#q)"/>
  <path d="M37.476 51.51c3.055-2.62-.084-3.509-2.312-2.993-1.965.458-3.93 1.848-5.248 3.552-.42.544-.767 1.232-.73 1.962.155 3.767 7.236-1.618 8.29-2.52Z" fill="url(#r)"/>
  <path d="M77.313 33.893c.503-.559 1.006-1.318.838-2.12a1.737 1.737 0 0 0-.575-.93c-1.318-1.19-3.163-.53-4.696.171-1.69.774-8.399 3.065-4.026 5.844 2.552 1.618 6.578-.902 8.459-2.965Z" fill="url(#s)"/>
  <path d="M113.22 25.012c.443-.186.887-.415 1.21-.83.324-.416.479-1.06.252-1.561-.264-.602-.923-.73-1.498-.788-1.198-.115-2.396-.244-3.606-.358-1.63-.158-6.674.787-4.014 3.767 1.761 1.962 5.763.587 7.656-.23Z" fill="url(#t)"/>
  <path d="M57.868 24.87c.036-.2.024-.416-.024-.645-.203-.93-1.126-1.619-2.084-1.704-2.133-.187-10.723 2.979-6.05 5.27 2.156 1.06 7.75-.1 8.158-2.921Z" fill="url(#u)"/>
  <path d="M90.804 15.259c.18-.186.359-.416.359-.702 0-.516-.551-.73-.97-.76-2.576-.2-5.667.53-7.728 2.507 1.521 2.88 6.71.688 8.339-1.045Z" fill="url(#v)"/>
  <path d="M71.095 11.32c.227.043.479.114.635.286.251.272.215.745.012 1.06-.204.315-.54.516-.863.702a12.726 12.726 0 0 1-5.81 1.518c-.324 0-.672-.014-.923-.215-2.133-1.718 5.834-3.58 6.949-3.351Z" fill="url(#w)"/>
  <path d="M105.625.878h-.635c.155 0 .299-.014.455-.028.06.014.12.028.18.028Z" fill="url(#x)"/>
  <path d="M145.426 90.698c-.611 2.163-.455 5.614-1.558 7.348-1.713 2.707-4.433 3.365-6.505 5.471-1.678 1.704-2.48 4.555-2.025 7.133.036.186 3.654-2.048 3.954-2.292 1.186-.945 1.833-1.848 2.552-3.237 1.641-3.18 3.714-6.187 5.846-8.952 2.684-3.48 2.84-6.717.695-10.885-1.378 1.36-2.324 3.28-2.935 5.285 0 .043-.012.086-.024.129Z" fill="url(#y)"/>
  <path d="M100.748 134.942c1.031.129 2.061.215 3.019.244 2.397.071 4.865-.444 6.913-1.92.947-.687 1.786-1.561 2.612-2.42 2.516-2.621 7.548-8.694 1.33-9.167-3.163-.229-6.446.602-9.525 1.389a69.385 69.385 0 0 0-8.914 2.951c-1.964.802-4.912 1.26-3.822 4.497 1.199 3.524 5.715 4.082 8.387 4.426Z" fill="url(#z)"/>
  <path d="M58.73 138.595c1.031-.688 1.93-1.934 1.846-3.338-.108-1.819-1.701-2.922-3.127-3.609-2.336-1.132-12.904-3.953-11.07 2.865.635 2.349 2.935 4.211 4.636 5.328 2.516 1.633 5.296.358 7.716-1.246Z" fill="url(#A)"/>
  <defs>
    <linearGradient id="a" x1="212.136" y1="86.721" x2="46.197" y2="94.61" gradientUnits="userSpaceOnUse">
      <stop stop-color="#FFD061"/>
      <stop offset="1" stop-color="#CC5327"/>
    </linearGradient>
    <linearGradient id="b" x1="185.507" y1="105.947" x2="-36.28" y2="83.684" gradientUnits="userSpaceOnUse">
      <stop stop-color="#FFD061"/>
      <stop offset="1" stop-color="#CC5327"/>
    </linearGradient>
    <linearGradient id="c" x1="192.761" y1="75.73" x2="39.922" y2="96.693" gradientUnits="userSpaceOnUse">
      <stop stop-color="#BF9A73"/>
      <stop offset="1" stop-color="#CF5224"/>
    </linearGradient>
    <linearGradient id="d" x1="176.887" y1="146.228" x2="31.489" y2="128.996" gradientUnits="userSpaceOnUse">
      <stop stop-color="#8F3333"/>
      <stop offset="1" stop-color="#5E183D"/>
      <stop offset="1" stop-color="#5E183D"/>
    </linearGradient>
    <linearGradient id="e" x1="210.569" y1="53.75" x2="44.63" y2="61.639" gradientUnits="userSpaceOnUse">
      <stop stop-color="#FFD061"/>
      <stop offset="1" stop-color="#CC5327"/>
    </linearGradient>
    <linearGradient id="f" x1="121.328" y1="62.846" x2="-161.529" y2="43.419" gradientUnits="userSpaceOnUse">
      <stop stop-color="#FFD061"/>
      <stop offset="1" stop-color="#CC5327"/>
    </linearGradient>
    <linearGradient id="g" x1="187.755" y1="42.993" x2="34.916" y2="63.956" gradientUnits="userSpaceOnUse">
      <stop stop-color="#BF9A73"/>
      <stop offset="1" stop-color="#CD532A"/>
    </linearGradient>
    <linearGradient id="h" x1="144.284" y1="121.307" x2="-26.91" y2="39.408" gradientUnits="userSpaceOnUse">
      <stop stop-color="#FFD061"/>
      <stop offset="1" stop-color="#CC5327"/>
    </linearGradient>
    <linearGradient id="i" x1="160.719" y1="86.951" x2="-10.474" y2="5.051" gradientUnits="userSpaceOnUse">
      <stop stop-color="#FFD061"/>
      <stop offset="1" stop-color="#CC5327"/>
    </linearGradient>
    <linearGradient id="j" x1="130.259" y1="150.622" x2="-40.934" y2="68.722" gradientUnits="userSpaceOnUse">
      <stop stop-color="#FFD061"/>
      <stop offset="1" stop-color="#CC5327"/>
    </linearGradient>
    <linearGradient id="k" x1="171.973" y1="63.43" x2=".779" y2="-18.47" gradientUnits="userSpaceOnUse">
      <stop stop-color="#FFD061"/>
      <stop offset="1" stop-color="#CC5327"/>
    </linearGradient>
    <linearGradient id="l" x1="161.337" y1="85.66" x2="-9.857" y2="3.76" gradientUnits="userSpaceOnUse">
      <stop stop-color="#FFD061"/>
      <stop offset="1" stop-color="#CC5327"/>
    </linearGradient>
    <linearGradient id="m" x1="147.642" y1="114.289" x2="-23.552" y2="32.389" gradientUnits="userSpaceOnUse">
      <stop stop-color="#FFD061"/>
      <stop offset="1" stop-color="#CC5327"/>
    </linearGradient>
    <linearGradient id="n" x1="132.552" y1="145.829" x2="-38.641" y2="63.929" gradientUnits="userSpaceOnUse">
      <stop stop-color="#FFD061"/>
      <stop offset="1" stop-color="#CC5327"/>
    </linearGradient>
    <linearGradient id="o" x1="137.144" y1="136.231" x2="-34.05" y2="54.331" gradientUnits="userSpaceOnUse">
      <stop stop-color="#FFD061"/>
      <stop offset="1" stop-color="#CC5327"/>
    </linearGradient>
    <linearGradient id="p" x1="152.816" y1="103.471" x2="-18.378" y2="21.571" gradientUnits="userSpaceOnUse">
      <stop stop-color="#FFD061"/>
      <stop offset="1" stop-color="#CC5327"/>
    </linearGradient>
    <linearGradient id="q" x1="142.249" y1="125.56" x2="-28.945" y2="43.66" gradientUnits="userSpaceOnUse">
      <stop stop-color="#FFD061"/>
      <stop offset="1" stop-color="#CC5327"/>
    </linearGradient>
    <linearGradient id="r" x1="142.087" y1="125.899" x2="-29.108" y2="43.999" gradientUnits="userSpaceOnUse">
      <stop stop-color="#FFD061"/>
      <stop offset="1" stop-color="#CC5327"/>
    </linearGradient>
    <linearGradient id="s" x1="158.301" y1="92.007" x2="-12.893" y2="10.107" gradientUnits="userSpaceOnUse">
      <stop stop-color="#FFD061"/>
      <stop offset="1" stop-color="#CC5327"/>
    </linearGradient>
    <linearGradient id="t" x1="170.986" y1="65.492" x2="-.207" y2="-16.408" gradientUnits="userSpaceOnUse">
      <stop stop-color="#FFD061"/>
      <stop offset="1" stop-color="#CC5327"/>
    </linearGradient>
    <linearGradient id="u" x1="156.438" y1="95.906" x2="-14.758" y2="14.005" gradientUnits="userSpaceOnUse">
      <stop stop-color="#FFD061"/>
      <stop offset="1" stop-color="#CC5327"/>
    </linearGradient>
    <linearGradient id="v" x1="168.283" y1="71.142" x2="-2.911" y2="-10.757" gradientUnits="userSpaceOnUse">
      <stop stop-color="#FFD061"/>
      <stop offset="1" stop-color="#CC5327"/>
    </linearGradient>
    <linearGradient id="w" x1="164.466" y1="79.122" x2="-6.729" y2="-2.779" gradientUnits="userSpaceOnUse">
      <stop stop-color="#FFD061"/>
      <stop offset="1" stop-color="#CC5327"/>
    </linearGradient>
    <linearGradient id="x" x1="105.547" y1="1.036" x2="105.03" y2=".789" gradientUnits="userSpaceOnUse">
      <stop stop-color="#FFD061"/>
      <stop offset="1" stop-color="#CC5327"/>
    </linearGradient>
    <linearGradient id="y" x1="197.235" y1="181.377" x2="94.319" y2="72.901" gradientUnits="userSpaceOnUse">
      <stop stop-color="#BF9A73"/>
      <stop offset="1" stop-color="#9C5457"/>
    </linearGradient>
    <linearGradient id="z" x1="162.769" y1="214.076" x2="59.854" y2="105.601" gradientUnits="userSpaceOnUse">
      <stop stop-color="#BF9A73"/>
      <stop offset="1" stop-color="#72203D"/>
    </linearGradient>
    <linearGradient id="A" x1="128.016" y1="247.048" x2="25.101" y2="138.573" gradientUnits="userSpaceOnUse">
      <stop stop-color="#BF9A73"/>
      <stop offset="1" stop-color="#712A47"/>
    </linearGradient>
  </defs>
</svg>