<svg width="157" height="159" fill="none" xmlns="http://www.w3.org/2000/svg">
  <path d="M78.034 151.687c40.645 0 73.594-32.963 73.594-73.626 0-40.662-32.949-73.626-73.594-73.626C37.389 4.435 4.44 37.4 4.44 78.061c0 40.663 32.949 73.626 73.594 73.626Z" fill="url(#a)"/>
  <path opacity=".7" d="M37.33 83.905 20.128 32.617A73.486 73.486 0 0 0 8.267 54.563l40.021 90.861a72.865 72.865 0 0 0 15.73 4.927L37.33 83.905Z" fill="#FCFFAC"/>
  <path d="m57.378 39.28 3.129-3.679-10.178-25.77a74.34 74.34 0 0 0-5.686 2.6l12.735 26.85Z" fill="#FCFFAC"/>
  <path opacity=".7" d="m111.116 50.136 30.506 65.006a73.595 73.595 0 0 0 4.701-9.588L97.363 7a73.258 73.258 0 0 0-10.366-2.025l24.119 45.16Z" fill="#FCFFAC"/>
  <path d="M118.2 119.627c21.429-21.438 21.429-56.196 0-77.633-21.428-21.438-56.17-21.438-77.6 0-21.428 21.437-21.428 56.195 0 77.633 21.43 21.437 56.172 21.437 77.6 0Z" fill="#FCFFAC"/>
  <path d="M117.04 117.091c21.546-21.556 21.546-56.505 0-78.06-21.547-21.557-56.48-21.557-78.027 0-21.546 21.555-21.546 56.504 0 78.06 21.547 21.555 56.48 21.555 78.027 0Z" fill="#FBAA12"/>
  <path opacity=".3" d="M123.191 46.34a54.996 54.996 0 0 1 5.894 24.847c0 30.483-24.704 55.198-55.174 55.198-18.67 0-35.174-9.276-45.158-23.476 9.087 18.002 27.745 30.35 49.28 30.35 30.471 0 55.174-24.714 55.174-55.198 0-11.808-3.707-22.748-10.016-31.721Z" fill="#EA831C"/>
  <path opacity=".25" d="M6.71 59.837c6.898 22.638 27.937 39.11 52.822 39.11 30.493 0 55.213-24.73 55.213-55.237a55.024 55.024 0 0 0-12.726-35.277A73.412 73.412 0 0 0 78.03 4.432c-34.355.003-63.214 23.557-71.32 55.405Z" fill="#FFFFEB"/>
  <path d="M24.234 80.122c0-30.483 24.704-55.198 55.174-55.198 18.722 0 35.268 9.332 45.242 23.597-9.785-15.422-27.007-25.657-46.616-25.657-30.47 0-55.174 24.714-55.174 55.197 0 11.753 3.671 22.651 9.931 31.602-5.418-8.542-8.557-18.676-8.557-29.541Z" fill="#CF7310"/>
  <defs>
    <linearGradient id="a" x1="25.994" y1="130.121" x2="130.115" y2="26.045" gradientUnits="userSpaceOnUse">
      <stop stop-color="#FBC01E"/>
      <stop offset=".461" stop-color="#FDC822"/>
      <stop offset="1" stop-color="#FCE13C"/>
    </linearGradient>
  </defs>
</svg>