<svg width="157" height="158" fill="none" xmlns="http://www.w3.org/2000/svg">
  <path d="M14.403 122.299c-11.627-28.744.45-66.175 30.685-89.153 30.235-22.977 68.619-23.885 91.977-4.056l1.287-.976 7.784 10.81c21.226 29.467 10.397 74.659-24.187 100.938-34.583 26.28-79.822 23.694-101.048-5.777l-7.785-10.81 1.287-.976Z" fill="#C6640C"/>
  <path d="m15.877 90.998 58.822 33.716 20.428 29.296c-28.483 9.254-58.198 2.33-74.226-19.921l-7.785-10.81 1.287-.976c-1.952-4.826-3.235-9.898-3.88-15.106l5.354-16.2Z" fill="#A3490A"/>
  <path d="M13.117 123.275c21.226 29.471 66.465 32.057 101.048 5.777 34.583-26.279 45.409-71.471 24.187-100.938C117.13-1.353 71.887-3.943 37.304 22.337 2.721 48.615-8.109 93.808 13.117 123.275Z" fill="url(#a)"/>
  <path d="M13.117 123.275c21.226 29.471 66.465 32.057 101.048 5.777 34.583-26.279 45.409-71.471 24.187-100.938C117.13-1.353 71.887-3.943 37.304 22.337 2.721 48.615-8.109 93.808 13.117 123.275Z" fill="url(#b)"/>
  <path opacity=".7" d="M113.416 53.613 101.282 5.318c7.758 1.414 15.064 4.167 21.545 8.235l13.378 91.728a91.196 91.196 0 0 1-10.812 13.741l-11.977-65.41Z" fill="#FCFFAC"/>
  <path d="m73.066 34.233-4.585-.641L63.69 8.335a84.754 84.754 0 0 1 6.197-1.792l3.18 27.69Z" fill="#FCFFAC"/>
  <path opacity=".7" d="m33.008 76.847 7.975 66.837a59.389 59.389 0 0 1-9.002-3.911L22.195 36.691a92.937 92.937 0 0 1 7.764-8.171l3.049 48.327Z" fill="#FCFFAC"/>
  <path d="M29.337 114.032c-15.824-21.971-7.75-55.665 18.033-75.257 25.783-19.592 59.513-17.662 75.338 4.31 15.824 21.971 7.75 55.665-18.033 75.257-25.783 19.592-59.513 17.662-75.338-4.31Z" fill="#FCFFAC"/>
  <path d="M28.811 111.346C12.9 89.252 21.018 55.371 46.944 35.671c25.927-19.7 59.844-17.76 75.756 4.333 15.912 22.093 7.794 55.974-18.133 75.675-25.926 19.7-59.843 17.76-75.755-4.333Z" fill="#FBAA12"/>
  <path opacity=".3" d="M20.753 81.9c.69 7.851 3.29 15.342 7.955 21.821 15.913 22.094 49.83 24.031 75.758 4.331 15.886-12.071 25.085-29.467 26.171-46.211 1.664 18.924-7.764 39.931-26.088 53.858-25.927 19.701-59.845 17.763-75.758-4.331-6.166-8.559-8.725-18.881-8.038-29.467Z" fill="#EA831C"/>
  <path opacity=".25" d="M126.905 16.374c5.947 20.865-3.357 46.407-24.53 62.496-25.945 19.714-59.887 17.773-75.81-4.335-7.002-9.72-9.353-21.72-7.588-33.791 5.046-6.74 11.176-12.98 18.323-18.408C66.536.121 103.384-1.467 126.905 16.374Z" fill="#FFFFEB"/>
  <path d="M122.584 42.404c-15.913-22.094-49.83-24.032-75.758-4.331-15.93 12.106-25.137 29.563-26.178 46.353.274-17.503 9.585-36.056 26.271-48.736 25.928-19.7 59.846-17.763 75.759 4.33 6.134 8.52 8.697 18.79 8.045 29.325.152-9.695-2.466-19.066-8.139-26.941Z" fill="#CF7310"/>
  <defs>
    <radialGradient id="a" cx="0" cy="0" r="1" gradientUnits="userSpaceOnUse" gradientTransform="rotate(142.77 25.119 50.602) scale(78.6441 65.7357)">
      <stop stop-color="#FBC01E"/>
      <stop offset=".461" stop-color="#FDC822"/>
      <stop offset="1" stop-color="#FCE13C"/>
    </radialGradient>
    <radialGradient id="b" cx="0" cy="0" r="1" gradientUnits="userSpaceOnUse" gradientTransform="rotate(142.77 25.119 50.602) scale(78.6441 65.7357)">
      <stop stop-color="#FBC01E"/>
      <stop offset=".461" stop-color="#FDC822"/>
      <stop offset="1" stop-color="#FCE13C"/>
    </radialGradient>
  </defs>
</svg>